<svg width="70" height="34" viewBox="0 0 70 34" fill="none" xmlns="http://www.w3.org/2000/svg">
<g id="Group 151">
<path id="Vector" d="M23.4979 0.243675C20.208 0.691046 16.5481 1.82981 13.8339 3.25326L11.9834 4.22934H13.8339C15.2321 4.27001 16.1368 3.94465 17.4528 3.04991C20.5781 0.975736 24.3203 0.935066 26.2942 2.96857C27.4868 4.18867 27.898 5.89681 27.1167 6.1815C26.7877 6.30351 26.5821 6.01882 26.5821 5.53078C26.5821 4.83939 26.3354 4.67671 25.2662 4.67671C24.526 4.67671 23.6212 4.88006 23.2923 5.08341C22.8399 5.3681 23.0866 5.49011 24.2381 5.49011C25.9653 5.49011 26.4176 6.50686 24.8549 6.83222C24.3203 6.91356 24.9783 7.03557 26.2531 7.07624C30.0365 7.15758 30.7767 6.46619 28.8028 4.63604C28.227 4.10733 27.5691 3.29393 27.4046 2.84656C26.7877 1.3011 27.6102 1.01641 32.9151 0.975736C36.6162 0.935066 37.5209 0.853726 36.4517 0.569036C34.1076 -0.00034523 26.6232 -0.203695 23.4979 0.243675Z" fill="white"/>
<path id="Vector_2" d="M3.14258 1.95198C3.14258 2.76538 5.19873 3.74146 7.58388 3.98548C9.68115 4.2295 10.5036 3.78213 8.89982 3.25342C8.44746 3.13141 8.07735 2.84672 8.07735 2.64337C8.07735 2.11466 9.39329 1.87064 12.6009 1.70796C14.0813 1.62662 12.5598 1.54528 9.2288 1.50461C4.49964 1.42327 3.14258 1.54528 3.14258 1.95198Z" fill="white"/>
<path id="Vector_3" d="M4.16934 5.65318L2.52441 6.18189L5.07405 6.14122C8.3639 6.10055 9.47422 6.87328 11.407 10.6963C13.751 15.3733 14.738 16.1054 19.6728 17.0408C23.086 17.6915 26.1702 18.0982 26.1702 17.8542C26.1702 17.7728 24.3197 17.1628 22.099 16.4714C16.2184 14.6413 13.422 12.4451 13.2576 9.47616C13.2164 7.89003 12.5173 7.9307 21.4822 8.82544C25.8823 9.27281 28.0208 9.67951 28.8021 10.1676C29.8713 10.8589 29.9124 10.8589 31.0227 9.88286C33.2845 7.76802 35.0528 7.44266 37.5202 8.58142C39.6997 9.59817 40.9334 12.079 41.797 17.1628C42.4138 20.9044 42.7017 21.6365 43.6064 22.4499C44.2233 22.9786 45.2102 23.3853 45.8271 23.3853L46.9374 23.3446L46.0738 22.6533C44.8401 21.6365 44.2644 20.4164 44.2644 18.8303C44.2644 17.0815 44.8812 16.4714 46.5673 16.4714C47.5542 16.4714 48.3356 16.8781 49.487 17.9355C52.0367 20.3757 52.6535 20.6198 56.2723 20.7824L59.6856 20.9451L57.0948 20.3757C55.491 20.0504 54.1339 19.5217 53.5993 18.9523C52.7358 18.0982 52.7358 18.0169 53.4348 17.5288C53.805 17.2441 55.8611 16.8781 57.9995 16.7154C64.7026 16.2274 64.7437 15.7393 58.1229 15.6987C49.2814 15.658 45.457 14.4786 42.0849 10.8183C40.2343 8.82544 40.0698 7.524 41.6325 7.524C42.9896 7.524 44.0999 8.13405 46.1561 9.9642C47.8832 11.5503 49.3225 11.9977 54.3396 12.6484C56.3135 12.8924 56.3546 12.8518 55.4499 12.2011C53.7638 10.981 46.1561 7.56467 43.6475 6.91395C40.6044 6.14122 38.8361 6.14122 34.3948 6.91395C30.3236 7.60534 18.9325 7.72735 16.6296 7.07663C15.7661 6.87328 15.067 6.42591 15.067 6.14122C15.067 5.81586 14.4912 5.4905 13.7922 5.32782C11.6537 4.92112 5.93763 5.12447 4.16934 5.65318Z" fill="white"/>
<path id="Vector_4" d="M47.3487 5.49023C47.4721 5.69358 48.0478 5.89693 48.6235 5.89693C50.2685 5.89693 54.5453 7.48306 56.5603 8.82517L58.452 10.0859L57.2183 8.7845C56.5603 8.05244 55.3266 7.07636 54.5453 6.66966L53.106 5.85626L54.5453 6.14095C56.6014 6.50698 61.454 8.54048 64.2503 10.208C66.3476 11.4687 66.5532 11.5094 65.6896 10.6147C64.2503 9.06919 59.4801 6.79167 55.9435 5.89693C52.5714 5.04286 46.8964 4.75817 47.3487 5.49023Z" fill="white"/>
<path id="Vector_5" d="M5.07542 8.8249C6.92596 10.7771 7.29607 11.7125 7.58393 15.3728L7.87179 18.7077L13.2178 19.1551C21.4835 19.8872 22.3883 19.7245 16.0964 18.667C10.0924 17.6503 9.3111 17.2843 9.3111 15.3728C9.3111 13.4613 7.62505 10.0043 6.1035 8.74356C4.12959 7.11676 3.47162 7.1981 5.07542 8.8249Z" fill="white"/>
<path id="Vector_6" d="M1.16812 8.41849C0.386782 9.39458 -0.188942 12.4855 0.0577965 14.1936C0.427905 16.3898 1.78497 18.708 3.01866 19.2774C4.25236 19.8468 5.89728 19.8468 6.22627 19.3181C6.39076 19.074 6.02065 18.9114 5.4038 18.9114C2.89529 18.9114 1.49711 16.9999 1.49711 13.5022C1.49711 11.7128 1.70272 11.1027 2.52518 10.208L3.51214 9.15055H2.44294C1.70272 9.15055 1.45598 8.98787 1.6616 8.5405C1.94946 7.80844 1.74384 7.76777 1.16812 8.41849Z" fill="white"/>
<path id="Vector_7" d="M31.5579 10.7369C28.7204 13.7465 28.8849 18.8303 31.928 21.8399C33.3262 23.2633 33.6552 23.3853 35.7525 23.3853C37.4385 23.3853 38.261 23.182 38.9601 22.5312C39.9059 21.7585 39.9059 21.7178 39.0423 22.1245C35.1768 23.9954 31.2289 20.5791 31.5991 15.7393C31.7635 13.8279 32.0103 13.2991 33.1206 12.3231C33.8197 11.713 34.8889 11.1843 35.5469 11.1436C36.6572 11.1436 36.6572 11.1436 35.7114 10.7369C35.0123 10.4929 34.3954 10.5743 33.4907 11.0216C31.9692 11.7944 31.5991 11.5097 32.7094 10.4116C33.2029 9.92353 33.3673 9.5575 33.1206 9.5575C32.8739 9.5575 32.1748 10.0862 31.5579 10.7369Z" fill="white"/>
<path id="Vector_8" d="M68.1169 13.7056C68.3225 14.4377 68.5692 16.1865 68.7337 17.5693C69.0627 20.5789 69.1449 20.4975 63.84 21.5549C58.1239 22.653 59.7277 22.8564 66.8009 21.8803C67.7467 21.7583 68.9393 21.3516 69.3917 20.9856C70.173 20.3755 70.173 20.2128 69.5562 17.1626C69.0216 14.275 68.3636 12.4042 67.9112 12.4042C67.829 12.4042 67.9112 13.0142 68.1169 13.7056Z" fill="white"/>
<path id="Vector_9" d="M22.7975 20.0092C23.291 20.0905 24.0312 20.0905 24.4424 20.0092C24.8126 19.8872 24.4013 19.8058 23.4966 19.8465C22.5919 19.8465 22.2629 19.9278 22.7975 20.0092Z" fill="white"/>
<path id="Vector_10" d="M3.34798 30.5023C2.19653 33.5526 2.27878 34.976 3.43022 33.2272C4.25269 32.0478 6.2266 32.0071 6.84344 33.1459C7.33692 34.0406 8.07714 34.244 8.07714 33.4712C8.07714 33.1865 7.58366 31.7224 6.96681 30.2176C5.48638 26.476 4.78729 26.5167 3.34798 30.5023ZM5.81537 30.5837C6.02098 31.3564 5.89761 31.5191 5.23964 31.5191C4.29381 31.5191 4.25269 31.3971 4.62279 29.9736C4.91066 28.9162 5.36301 29.1602 5.81537 30.5837Z" fill="white"/>
<path id="Vector_11" d="M8.07715 27.5336C8.07715 27.6149 8.61175 29.0384 9.2286 30.7059C10.7502 34.7729 11.367 34.8135 12.7652 31.0312C13.9989 27.6149 14.04 27.4523 13.2998 27.4523C13.0119 27.4523 12.4362 28.469 12.025 29.7298C11.6137 30.9905 11.1614 31.8853 11.038 31.7226C10.8735 31.6006 10.4623 30.6245 10.0922 29.5671C9.72207 28.469 9.14635 27.6149 8.77624 27.5336C8.36501 27.4523 8.07715 27.4523 8.07715 27.5336Z" fill="white"/>
<path id="Vector_12" d="M14.6562 27.8183C14.6562 28.0216 15.0675 28.2656 15.6021 28.347C16.4245 28.469 16.5068 28.713 16.6302 31.1939C16.7124 32.7393 16.918 33.9594 17.1236 33.9594C17.3293 33.9594 17.5349 32.7393 17.6171 31.1939C17.7405 28.713 17.8227 28.469 18.6863 28.347C20.578 28.0623 19.5088 27.4522 17.1236 27.4522C15.7666 27.4522 14.6562 27.6149 14.6562 27.8183Z" fill="white"/>
<path id="Vector_13" d="M21.2361 28.2656C20.1257 29.3637 20.1257 31.8853 21.2361 33.0647C23.21 35.1389 26.5821 33.5121 26.5821 30.5025C26.5821 27.8996 23.0866 26.4355 21.2361 28.2656ZM24.6904 28.9164C25.554 29.7298 25.5129 31.4786 24.6493 32.414C23.8268 33.3087 23.3745 33.3494 22.3875 32.4547C21.0304 31.2346 21.8118 28.2656 23.4978 28.2656C23.7857 28.2656 24.3614 28.5503 24.6904 28.9164Z" fill="white"/>
<path id="Vector_14" d="M27.4053 27.6958C27.4053 27.8178 27.8988 29.2819 28.4745 30.9494C29.8727 34.8131 30.5718 34.8944 31.8054 31.3968C32.2989 30.014 32.8335 28.5499 32.9569 28.1432C33.1625 27.6551 33.0391 27.4518 32.6279 27.4518C32.1756 27.4518 31.7232 28.2245 31.2708 29.6886C30.8596 30.9087 30.4073 31.9255 30.2839 31.9255C30.1605 31.9255 29.7082 30.9087 29.2969 29.6886C28.8857 28.3465 28.3511 27.4518 27.981 27.4518C27.6931 27.4518 27.4053 27.5738 27.4053 27.6958Z" fill="white"/>
<path id="Vector_15" d="M34.8074 28.2652C33.697 29.3633 33.697 31.8849 34.8074 33.0643C36.041 34.3657 38.1794 34.2844 39.2898 32.9016C41.0581 30.6648 39.7421 27.4518 37.028 27.4518C36.1644 27.4518 35.3008 27.7772 34.8074 28.2652ZM38.2617 28.9159C39.1253 29.7293 39.0842 31.4782 38.2206 32.4136C37.3981 33.3083 36.699 33.349 35.8766 32.4949C34.6017 31.2341 35.4242 28.2652 37.0691 28.2652C37.357 28.2652 37.9327 28.5499 38.2617 28.9159Z" fill="white"/>
<path id="Vector_16" d="M41.3877 30.7058V33.9594H43.2382C45.6645 33.9594 46.7337 32.9427 46.7337 30.7058C46.7337 28.469 45.6645 27.4522 43.2382 27.4522H41.3877V30.7058ZM44.842 28.7943C45.3766 29.1604 45.5411 29.7298 45.4178 30.9092C45.2944 32.414 45.2121 32.536 43.9785 32.658L42.6214 32.78V30.7872C42.6214 28.1843 43.2382 27.6149 44.842 28.7943Z" fill="white"/>
<path id="Vector_17" d="M48.3779 30.7058C48.3779 32.6173 48.5424 33.9594 48.7892 33.9594C49.0359 33.9594 49.2004 32.6173 49.2004 30.7058C49.2004 28.7943 49.0359 27.4522 48.7892 27.4522C48.5424 27.4522 48.3779 28.7943 48.3779 30.7058Z" fill="white"/>
<path id="Vector_18" d="M50.4336 27.8183C50.4336 28.0216 50.8448 28.2656 51.3794 28.347C52.2019 28.469 52.2841 28.713 52.4075 31.1939C52.4898 33.3087 52.6542 33.9594 53.1066 33.9594C53.6001 33.9594 53.7234 33.3494 53.7234 31.1125C53.7234 28.5503 53.8057 28.2656 54.5459 28.2656C54.9983 28.2656 55.3684 28.0623 55.3684 27.8589C55.3684 27.6149 54.258 27.4522 52.901 27.4522C51.5439 27.4522 50.4336 27.6149 50.4336 27.8183Z" fill="white"/>
<path id="Vector_19" d="M56.6016 30.7058V33.9594H59.069C61.0017 33.9594 61.5363 33.8374 61.5363 33.3494C61.5363 32.902 61.0429 32.7393 59.6858 32.7393C58.1231 32.7393 57.8353 32.6173 57.8353 31.9259C57.8353 31.2345 58.1231 31.1125 59.4802 31.1125C60.6728 31.1125 61.1251 30.9499 61.1251 30.5025C61.1251 30.0551 60.6728 29.8924 59.4391 29.8924C58.082 29.8924 57.7941 29.7704 57.9175 29.1604C57.9997 28.6723 58.5343 28.4283 59.8092 28.347C62.441 28.1436 61.8653 27.4522 59.069 27.4522H56.6016V30.7058Z" fill="white"/>
<path id="Vector_20" d="M63.1816 30.7463V33.9999L65.3612 33.8779C67.8286 33.7559 68.2398 33.0238 65.978 32.8205L64.4153 32.6985V30.0549C64.4153 28.0214 64.292 27.452 63.7985 27.452C63.305 27.452 63.1816 28.1028 63.1816 30.7463Z" fill="white"/>
</g>
</svg>
