<svg width="150" height="72" viewBox="0 0 150 72" fill="none" xmlns="http://www.w3.org/2000/svg">
<path d="M21.0371 47.5503C25.6898 47.5503 29.4742 51.3037 29.4742 55.9157C29.4742 60.5285 25.6898 64.2804 21.0371 64.2804C16.3853 64.2804 12.6001 60.5285 12.6001 55.9157C12.6001 51.3037 16.3853 47.5503 21.0371 47.5503Z" fill="#1B1B35"/>
<path d="M4.81348 55.9156C4.81348 64.7985 12.0767 72.0001 21.0371 72.0001C29.9969 72.0001 37.2601 64.7985 37.2601 55.9156C37.2601 47.0327 29.9969 39.8311 21.0371 39.8311C12.0774 39.8311 4.81348 47.0327 4.81348 55.9156ZM8.99361 55.9156C8.99361 49.3318 14.3963 43.9754 21.0371 43.9754C27.678 43.9754 33.0807 49.3318 33.0807 55.9156C33.0807 62.4995 27.6787 67.8559 21.0371 67.8559C14.3956 67.8559 8.99361 62.4995 8.99361 55.9156Z" fill="#1B1B35"/>
<path d="M124.038 47.5503C128.69 47.5503 132.475 51.3037 132.475 55.9157C132.475 60.5285 128.69 64.2804 124.038 64.2804C119.386 64.2804 115.601 60.5285 115.601 55.9157C115.6 51.3037 119.385 47.5503 124.038 47.5503Z" fill="#1B1B35"/>
<path d="M107.815 55.9156C107.815 64.7985 115.078 72.0001 124.039 72.0001C132.998 72.0001 140.262 64.7985 140.262 55.9156C140.262 47.0327 132.998 39.8311 124.039 39.8311C115.078 39.8311 107.815 47.0327 107.815 55.9156ZM111.995 55.9156C111.995 49.3318 117.398 43.9754 124.039 43.9754C130.679 43.9754 136.081 49.3318 136.081 55.9156C136.081 62.4995 130.679 67.8559 124.039 67.8559C117.398 67.8559 111.995 62.4995 111.995 55.9156Z" fill="#1B1B35"/>
<path d="M0 37.8087V57.8655H2.92211C2.92211 57.8655 0 37.8087 21.0365 37.8087C42.073 37.8087 40.0117 57.8655 40.0117 57.8655H105.65C105.65 57.8655 103.402 37.5855 124.037 37.5855C144.673 37.5855 142.29 57.8655 142.29 57.8655H148.359C156.677 34.9117 131.051 24.8818 123.408 23.991C115.766 23.0995 88.1172 3.71098 76.8777 1.70545C65.6381 -0.300085 35.2919 -1.41486 21.0372 3.48845C6.78256 8.39104 6.07012 33.5744 6.07012 33.5744L0 37.8087ZM126.804 27.9157C126.804 27.9157 134.686 29.1886 140.26 34.5142C140.261 34.5142 126.57 38.7968 126.804 27.9157ZM64.4539 5.93313C67.9017 6.15418 71.0711 6.43013 73.7164 6.73169C88.933 8.46787 109.057 25.8326 109.057 25.8326H64.4547V5.93313H64.4539ZM30.8268 6.51578C38.9161 5.28537 50.3048 5.2334 60.2502 5.70038V25.8326H30.8268V6.51578ZM13.3126 25.8326C13.3126 25.8326 15.6478 16.1087 20.9021 10.0892C21.9977 8.83387 24.2746 7.88232 27.3244 7.17526V25.8319L13.3126 25.8326Z" fill="#1B1B35"/>
</svg>
