<svg width="64" height="35" viewBox="0 0 64 35" fill="none" xmlns="http://www.w3.org/2000/svg">
<g id="Frame 222">
<g id="Group">
<g id="Group_2">
<path id="Vector" d="M8.97578 23.7938C10.9609 23.7938 12.5756 25.5141 12.5756 27.628C12.5756 29.7421 10.9609 31.4618 8.97578 31.4618C6.99097 31.4618 5.37598 29.7421 5.37598 27.628C5.37598 25.5141 6.99097 23.7938 8.97578 23.7938Z" fill="#1B1B35"/>
<path id="Vector_2" d="M2.05371 27.628C2.05371 31.6993 5.15267 35 8.97581 35C12.7986 35 15.8976 31.6993 15.8976 27.628C15.8976 23.5566 12.7986 20.2559 8.97581 20.2559C5.15298 20.2559 2.05371 23.5566 2.05371 27.628ZM3.83723 27.628C3.83723 24.6103 6.14239 22.1553 8.97581 22.1553C11.8092 22.1553 14.1144 24.6103 14.1144 27.628C14.1144 30.6456 11.8095 33.1006 8.97581 33.1006C6.14208 33.1006 3.83723 30.6456 3.83723 27.628Z" fill="#1B1B35"/>
</g>
<g id="Group_3">
<path id="Vector_3" d="M52.923 23.7938C54.9079 23.7938 56.5228 25.5141 56.5228 27.628C56.5228 29.7421 54.9079 31.4618 52.923 31.4618C50.9382 31.4618 49.3232 29.7421 49.3232 27.628C49.3229 25.5141 50.9379 23.7938 52.923 23.7938Z" fill="#1B1B35"/>
<path id="Vector_4" d="M46.001 27.628C46.001 31.6993 49.0999 35 52.9231 35C56.7459 35 59.8449 31.6993 59.8449 27.628C59.8449 23.5566 56.7459 20.2559 52.9231 20.2559C49.0999 20.2559 46.001 23.5566 46.001 27.628ZM47.7845 27.628C47.7845 24.6103 50.0897 22.1553 52.9231 22.1553C55.7565 22.1553 58.0613 24.6103 58.0613 27.628C58.0613 30.6456 55.7565 33.1006 52.9231 33.1006C50.0897 33.1006 47.7845 30.6456 47.7845 27.628Z" fill="#1B1B35"/>
</g>
<path id="Vector_5" d="M0 19.329V28.5217H1.24677C1.24677 28.5217 0 19.329 8.97557 19.329C17.9511 19.329 17.0717 28.5217 17.0717 28.5217H45.0773C45.0773 28.5217 44.1181 19.2267 52.9226 19.2267C61.7272 19.2267 60.7103 28.5217 60.7103 28.5217H63.2999C66.8487 18.0012 55.9151 13.4042 52.6542 12.9959C49.3934 12.5873 37.5967 3.70087 32.8011 2.78166C28.0056 1.86246 15.0579 1.35152 8.97589 3.59887C2.89389 5.84589 2.58992 17.3883 2.58992 17.3883L0 19.329ZM54.1029 14.7947C54.1029 14.7947 57.4659 15.3781 59.8444 17.819C59.8447 17.819 54.0034 19.7819 54.1029 14.7947ZM27.5003 4.71935C28.9714 4.82067 30.3237 4.94714 31.4523 5.08536C37.9447 5.88111 46.531 13.8399 46.531 13.8399H27.5007V4.71935H27.5003ZM13.1528 4.9864C16.6042 4.42246 21.4634 4.39864 25.7067 4.61267V13.8399H13.1528V4.9864ZM5.68006 13.8399C5.68006 13.8399 6.6764 9.38315 8.91824 6.6242C9.3857 6.04886 10.3572 5.61273 11.6584 5.28866V13.8396L5.68006 13.8399Z" fill="#1B1B35"/>
</g>
</g>
</svg>
