<svg width="73" height="36" viewBox="0 0 73 36" fill="none" xmlns="http://www.w3.org/2000/svg">
<g id="Frame 221">
<g id="Group">
<g id="Group_2">
<path id="Vector" d="M23.1657 20.7862V6.85398V4.38585V3.84397C23.1657 2.90206 22.3711 2 21.4591 2H21.3424C21.312 2 21.2832 2.00745 21.2531 2.00939L21.2452 2C21.2452 2 13.8464 2 7.5194 2C5.53585 2 4.76282 3.47019 4.04372 4.56303C2.52118 6.8773 0.966012 10.9034 0.940296 15.0244L0.936846 14.9939L0.911133 28.236H9.02627H10.4698H72.088V20.7862H23.1657Z" fill="#1B1B35"/>
<path id="Vector_2" d="M21.9126 3.61951V11.6688C21.9126 11.6688 16.3985 14.4177 2.41895 16.3452C2.41895 16.3452 2.43369 6.85851 7.02203 3.61951H21.9126Z" fill="white"/>
<g id="Group_3">
<path id="Vector_3" d="M22.2647 28.5853C22.2647 31.6215 19.8813 34.0835 16.9413 34.0835C14.0012 34.0835 11.6182 31.6215 11.6182 28.5853C11.6182 25.5484 14.0012 23.087 16.9413 23.087C19.8813 23.087 22.2647 25.5484 22.2647 28.5853Z" fill="#1B1B35" stroke="white" stroke-width="2" stroke-miterlimit="10"/>
<g id="Group_4">
<path id="Vector_4" d="M20.3999 28.5853C20.3999 30.5579 18.8514 32.157 16.9418 32.157C15.0323 32.157 13.4834 30.5579 13.4834 28.5853C13.4834 26.6128 15.032 25.0137 16.9418 25.0137C18.8514 25.0137 20.3999 26.6124 20.3999 28.5853Z" fill="white"/>
<path id="Vector_5" d="M17.9522 28.5852C17.9522 29.1611 17.4997 29.6285 16.9418 29.6285C16.3839 29.6285 15.9316 29.1615 15.9316 28.5852C15.9316 28.009 16.3839 27.5416 16.9418 27.5416C17.4997 27.5413 17.9522 28.0087 17.9522 28.5852Z" fill="white" stroke="#1B1B35" stroke-width="2" stroke-miterlimit="10"/>
</g>
</g>
<g id="Group_5">
<path id="Vector_6" d="M66.3018 28.5851C66.3018 31.6214 63.9181 34.0833 60.9781 34.0833C58.038 34.0833 55.6553 31.6214 55.6553 28.5851C55.6553 25.5482 58.038 23.0869 60.9781 23.0869C63.9181 23.0866 66.3018 25.5482 66.3018 28.5851Z" fill="#1B1B35" stroke="white" stroke-width="2" stroke-miterlimit="10"/>
<g id="Group_6">
<path id="Vector_7" d="M63.4226 31.1111C64.7731 29.7163 64.7731 27.4549 63.4226 26.0601C62.0721 24.6653 59.8826 24.6652 58.5321 26.0601C57.1817 27.4549 57.1817 29.7163 58.5321 31.1111C59.8826 32.5059 62.0721 32.5059 63.4226 31.1111Z" fill="white"/>
<path id="Vector_8" d="M61.9883 28.5854C61.9883 29.1613 61.5361 29.6286 60.9779 29.6286C60.42 29.6286 59.9678 29.1616 59.9678 28.5854C59.9678 28.0091 60.42 27.5417 60.9779 27.5417C61.5361 27.5414 61.9883 28.0088 61.9883 28.5854Z" fill="white" stroke="#1B1B35" stroke-width="2" stroke-miterlimit="10"/>
</g>
</g>
<g id="Group_7">
<path id="Vector_9" d="M53.7807 28.5851C53.7807 31.6214 51.397 34.0833 48.4569 34.0833C45.5169 34.0833 43.1338 31.6214 43.1338 28.5851C43.1338 25.5482 45.5169 23.0869 48.4569 23.0869C51.397 23.0869 53.7807 25.5482 53.7807 28.5851Z" fill="#1B1B35" stroke="white" stroke-width="2" stroke-miterlimit="10"/>
<g id="Group_8">
<path id="Vector_10" d="M51.9143 28.5851C51.9143 30.5576 50.3657 32.1567 48.4562 32.1567C46.5463 32.1567 44.998 30.5576 44.998 28.5851C44.998 26.6125 46.5463 25.0134 48.4562 25.0134C50.3657 25.0134 51.9143 26.6122 51.9143 28.5851Z" fill="white"/>
<path id="Vector_11" d="M49.4662 28.585C49.4662 29.1609 49.0136 29.6283 48.4557 29.6283C47.8975 29.6283 47.4453 29.1612 47.4453 28.585C47.4453 28.0088 47.8975 27.5414 48.4557 27.5414C49.0136 27.5411 49.4662 28.0084 49.4662 28.585Z" fill="white" stroke="#1B1B35" stroke-width="2" stroke-miterlimit="10"/>
</g>
</g>
</g>
<path id="Vector_12" d="M4.14369 25.6447C4.52754 25.6447 4.83864 25.8961 4.83864 26.2928C4.83864 26.6889 4.52754 26.941 4.14369 26.941H2.80366C2.41949 26.941 2.1084 26.6889 2.1084 26.2928C2.1084 25.8961 2.41981 25.6447 2.80366 25.6447H4.14369Z" fill="white"/>
<path id="Vector_13" d="M70.2163 25.6447C70.6001 25.6447 70.9112 25.8961 70.9112 26.2928C70.9112 26.6889 70.6001 26.941 70.2163 26.941H68.8759C68.4921 26.941 68.1807 26.6889 68.1807 26.2928C68.1807 25.8961 68.4921 25.6447 68.8759 25.6447H70.2163Z" fill="white"/>
<path id="Vector_14" d="M15.9527 3.29565H14.6982V13.9844H15.9527V3.29565Z" fill="#1B1B35"/>
<path id="Vector_15" d="M70.916 2H26.0324C25.2625 2 24.7344 2.80165 24.7344 3.59651V8.77924V15.6897V19.1667H72.0886V15.6897V8.77924V3.59651C72.0886 2.80165 71.6859 2 70.916 2Z" fill="#1B1B35"/>
</g>
</g>
</svg>
