<svg width="366" height="73" viewBox="0 0 366 73" fill="none" xmlns="http://www.w3.org/2000/svg">
<path d="M51.9026 42.1593V10.8931V5.35422V4.13815C51.9026 2.02437 50.0492 0 47.9223 0H47.6502C47.5793 0 47.512 0.0167178 47.4418 0.0210791L47.4235 0C47.4235 0 30.1678 0 15.4119 0C10.7858 0 8.98296 3.29933 7.30588 5.75183C3.75497 10.9454 0.12799 19.9806 0.0680156 29.2287L0.0599692 29.1604L0 58.8776H18.9262H22.2928H166V42.1593H51.9026Z" fill="#1B1B35"/>
<path d="M48.978 3.63428V21.6981C48.978 21.6981 36.1179 27.8671 3.51465 32.1928C3.51465 32.1928 3.54903 10.9031 14.25 3.63428H48.978Z" fill="white"/>
<path d="M49.8008 59.6611C49.8008 66.4749 44.2422 72 37.3854 72C30.5286 72 24.9707 66.4749 24.9707 59.6611C24.9707 52.8459 30.5286 47.3223 37.3854 47.3223C44.2422 47.3223 49.8008 52.8459 49.8008 59.6611Z" fill="#1B1B35" stroke="white" stroke-width="2" stroke-miterlimit="10"/>
<path d="M45.4502 59.6611C45.4502 64.0878 41.8386 67.6764 37.3851 67.6764C32.9317 67.6764 29.3193 64.0878 29.3193 59.6611C29.3193 55.2344 32.931 51.6458 37.3851 51.6458C41.8386 51.6458 45.4502 55.2337 45.4502 59.6611Z" fill="white"/>
<path d="M39.7417 59.6614C39.7417 60.9538 38.6863 62.0026 37.3851 62.0026C36.084 62.0026 35.0293 60.9545 35.0293 59.6614C35.0293 58.3682 36.084 57.3193 37.3851 57.3193C38.6863 57.3186 39.7417 58.3675 39.7417 59.6614Z" fill="white" stroke="#1B1B35" stroke-width="2" stroke-miterlimit="10"/>
<path d="M152.504 59.6611C152.504 66.4749 146.945 72 140.088 72C133.231 72 127.674 66.4749 127.674 59.6611C127.674 52.8459 133.231 47.3223 140.088 47.3223C146.945 47.3215 152.504 52.8459 152.504 59.6611Z" fill="#1B1B35" stroke="white" stroke-width="2" stroke-miterlimit="10"/>
<path d="M145.789 65.3293C148.939 62.1991 148.939 57.1241 145.789 53.994C142.64 50.8638 137.533 50.8638 134.383 53.994C131.234 57.1241 131.234 62.1991 134.383 65.3293C137.533 68.4594 142.64 68.4594 145.789 65.3293Z" fill="white"/>
<path d="M142.445 59.6614C142.445 60.9538 141.39 62.0026 140.088 62.0026C138.787 62.0026 137.732 60.9545 137.732 59.6614C137.732 58.3682 138.787 57.3193 140.088 57.3193C141.39 57.3186 142.445 58.3675 142.445 59.6614Z" fill="white" stroke="#1B1B35" stroke-width="2" stroke-miterlimit="10"/>
<path d="M123.303 59.6611C123.303 66.4749 117.744 72 110.887 72C104.031 72 98.4727 66.4749 98.4727 59.6611C98.4727 52.8459 104.031 47.3223 110.887 47.3223C117.744 47.3223 123.303 52.8459 123.303 59.6611Z" fill="#1B1B35" stroke="white" stroke-width="2" stroke-miterlimit="10"/>
<path d="M118.952 59.6611C118.952 64.0878 115.341 67.6764 110.887 67.6764C106.433 67.6764 102.822 64.0878 102.822 59.6611C102.822 55.2344 106.433 51.6458 110.887 51.6458C115.341 51.6458 118.952 55.2337 118.952 59.6611Z" fill="white"/>
<path d="M113.243 59.6614C113.243 60.9538 112.188 62.0026 110.887 62.0026C109.585 62.0026 108.53 60.9545 108.53 59.6614C108.53 58.3682 109.585 57.3193 110.887 57.3193C112.188 57.3186 113.243 58.3675 113.243 59.6614Z" fill="white" stroke="#1B1B35" stroke-width="2" stroke-miterlimit="10"/>
<path d="M7.53971 53.0625C8.43494 53.0625 9.16048 53.6266 9.16048 54.5163C9.16048 55.4045 8.43494 55.97 7.53971 55.97H4.41447C3.51851 55.97 2.79297 55.4045 2.79297 54.5163C2.79297 53.6266 3.51924 53.0625 4.41447 53.0625H7.53971Z" fill="white"/>
<path d="M161.631 53.0625C162.526 53.0625 163.252 53.6266 163.252 54.5163C163.252 55.4045 162.526 55.97 161.631 55.97H158.505C157.61 55.97 156.884 55.4045 156.884 54.5163C156.884 53.6266 157.61 53.0625 158.505 53.0625H161.631Z" fill="white"/>
<path d="M35.0799 2.90771H32.1543V26.8949H35.0799V2.90771Z" fill="#1B1B35"/>
<path d="M163.265 0H58.5868C56.7912 0 55.5596 1.79904 55.5596 3.58281V15.2137V30.7217V38.5248H166V30.7217V15.2137V3.58281C166 1.79904 165.061 0 163.265 0Z" fill="#1B1B35"/>
<path d="M237.037 47.5503C241.689 47.5503 245.474 51.3037 245.474 55.9157C245.474 60.5285 241.689 64.2804 237.037 64.2804C232.385 64.2804 228.6 60.5285 228.6 55.9157C228.6 51.3037 232.385 47.5503 237.037 47.5503Z" fill="#1B1B35"/>
<path d="M220.813 55.9156C220.813 64.7985 228.077 72.0001 237.037 72.0001C245.997 72.0001 253.26 64.7985 253.26 55.9156C253.26 47.0327 245.997 39.8311 237.037 39.8311C228.077 39.8311 220.813 47.0327 220.813 55.9156ZM224.994 55.9156C224.994 49.3318 230.396 43.9754 237.037 43.9754C243.678 43.9754 249.081 49.3318 249.081 55.9156C249.081 62.4995 243.679 67.8559 237.037 67.8559C230.396 67.8559 224.994 62.4995 224.994 55.9156Z" fill="#1B1B35"/>
<path d="M340.038 47.5503C344.69 47.5503 348.475 51.3037 348.475 55.9157C348.475 60.5285 344.69 64.2804 340.038 64.2804C335.386 64.2804 331.601 60.5285 331.601 55.9157C331.6 51.3037 335.385 47.5503 340.038 47.5503Z" fill="#1B1B35"/>
<path d="M323.814 55.9156C323.814 64.7985 331.078 72.0001 340.038 72.0001C348.998 72.0001 356.261 64.7985 356.261 55.9156C356.261 47.0327 348.998 39.8311 340.038 39.8311C331.078 39.8311 323.814 47.0327 323.814 55.9156ZM327.995 55.9156C327.995 49.3318 333.397 43.9754 340.038 43.9754C346.679 43.9754 352.081 49.3318 352.081 55.9156C352.081 62.4995 346.679 67.8559 340.038 67.8559C333.397 67.8559 327.995 62.4995 327.995 55.9156Z" fill="#1B1B35"/>
<path d="M216 37.8087V57.8655H218.922C218.922 57.8655 216 37.8087 237.037 37.8087C258.073 37.8087 256.012 57.8655 256.012 57.8655H321.65C321.65 57.8655 319.402 37.5855 340.037 37.5855C360.673 37.5855 358.29 57.8655 358.29 57.8655H364.359C372.677 34.9117 347.051 24.8818 339.408 23.991C331.766 23.0995 304.117 3.71098 292.878 1.70545C281.638 -0.300085 251.292 -1.41486 237.037 3.48845C222.783 8.39104 222.07 33.5744 222.07 33.5744L216 37.8087ZM342.804 27.9157C342.804 27.9157 350.686 29.1886 356.26 34.5142C356.261 34.5142 342.57 38.7968 342.804 27.9157ZM280.454 5.93313C283.902 6.15418 287.071 6.43013 289.716 6.73169C304.933 8.46787 325.057 25.8326 325.057 25.8326H280.455V5.93313H280.454ZM246.827 6.51578C254.916 5.28537 266.305 5.2334 276.25 5.70038V25.8326H246.827V6.51578ZM229.313 25.8326C229.313 25.8326 231.648 16.1087 236.902 10.0892C237.998 8.83387 240.275 7.88232 243.324 7.17526V25.8319L229.313 25.8326Z" fill="#1B1B35"/>
</svg>
