<svg width="40" height="40" viewBox="0 0 40 40" fill="none" xmlns="http://www.w3.org/2000/svg">
<g id="Component 4">
<path id="Vector 301" d="M35 29.9774V16.526C35 14.4617 34.0502 12.5131 32.4263 11.2458L24.0929 4.74238C21.6855 2.86362 18.3145 2.86362 15.9071 4.74238L7.57373 11.2458C5.94982 12.5131 5 14.4617 5 16.526V29.9774C5 33.6718 7.98477 36.6666 11.6667 36.6666H28.3333C32.0152 36.6666 35 33.6718 35 29.9774Z" stroke="white" stroke-width="2" stroke-linejoin="round"/>
<g id="Vector">
<path d="M27.1742 26.3354C27.1742 30.1393 23.587 36.6667 19.9997 36.6667C16.4124 36.6667 12.8252 30.1393 12.8252 26.3354C12.8252 22.5315 16.0373 19.4479 19.9997 19.4479C23.9621 19.4479 27.1742 22.5315 27.1742 26.3354Z" stroke="white" stroke-width="2"/>
<path d="M22.1521 25.9049C22.1521 27.0936 21.1884 28.0573 19.9997 28.0573C18.811 28.0573 17.8473 27.0936 17.8473 25.9049C17.8473 24.7162 18.811 23.7526 19.9997 23.7526C21.1884 23.7526 22.1521 24.7162 22.1521 25.9049Z" stroke="white" stroke-width="2"/>
</g>
</g>
</svg>
