<svg width="142" height="43" viewBox="0 0 142 43" fill="none" xmlns="http://www.w3.org/2000/svg">
<g id="Group">
<g id="Group_2">
<path id="Vector" d="M-0.000247955 24.5929H54.7783V34.3453H-0.000247955V24.5929Z" fill="#1B1B35"/>
<path id="Vector_2" d="M112.462 24.5929V6.3543V3.1233V2.41392C112.462 1.18088 113.602 0 114.809 0H114.963C115.004 0 115.041 0.00975208 115.081 0.0122962L115.092 0C115.092 0 124.883 0 133.255 0C135.88 0 136.903 1.92461 137.854 3.35524C139.869 6.38483 141.927 11.6554 141.961 17.0501L141.966 17.0103L142 34.3453H131.261H129.351H56.8538V24.5929H112.462Z" fill="#1B1B35"/>
<path id="Vector_3" d="M114.538 2.12012V12.6573C114.538 12.6573 121.671 16.256 140.17 18.7793C140.17 18.7793 139.987 6.36028 133.916 2.12012H114.538Z" fill="white"/>
<g id="Group_3">
<path id="Vector_4" d="M120.788 42.0001C116.897 42.0001 113.743 38.7776 113.743 34.8024C113.743 30.8272 116.897 27.6047 120.788 27.6047C124.678 27.6047 127.832 30.8272 127.832 34.8024C127.832 38.7776 124.678 42.0001 120.788 42.0001Z" fill="#1B1B35" stroke="white" stroke-width="2" stroke-miterlimit="10"/>
<g id="Group_4">
<path id="Vector_5" d="M120.669 39.4764C118.142 39.4122 116.146 37.2674 116.209 34.6859C116.273 32.1044 118.372 30.0638 120.899 30.128C123.425 30.1922 125.422 32.337 125.359 34.9185C125.295 37.5 123.195 39.5406 120.669 39.4764Z" fill="white"/>
<path id="Vector_6" d="M119.451 34.8023C119.451 35.5562 120.05 36.1681 120.788 36.1681C121.526 36.1681 122.125 35.5567 122.125 34.8023C122.125 34.048 121.526 33.4362 120.788 33.4362C120.05 33.4357 119.451 34.0476 119.451 34.8023Z" fill="white" stroke="#1B1B35" stroke-width="2" stroke-miterlimit="10"/>
</g>
</g>
<g id="Group_5">
<path id="Vector_7" d="M61.0043 34.8024C61.0043 38.7771 64.1582 42.0001 68.0487 42.0001C71.9393 42.0001 75.0928 38.7771 75.0928 34.8024C75.0928 30.8268 71.9393 27.6047 68.0487 27.6047C64.1582 27.6047 61.0043 30.8268 61.0043 34.8024Z" fill="#1B1B35" stroke="white" stroke-width="2" stroke-miterlimit="10"/>
<g id="Group_6">
<path id="Vector_8" d="M63.4742 34.8021C63.4742 37.3844 65.5234 39.4777 68.0499 39.4777C70.5772 39.4777 72.626 37.3844 72.626 34.8021C72.626 32.2198 70.5767 30.1265 68.0499 30.1265C65.5234 30.1265 63.4742 32.2194 63.4742 34.8021Z" fill="white"/>
<path id="Vector_9" d="M66.7125 34.8022C66.7125 35.5561 67.3109 36.168 68.0496 36.168C68.7875 36.168 69.3867 35.5565 69.3867 34.8022C69.3867 34.0479 68.7879 33.436 68.0496 33.436C67.3109 33.4356 66.7125 34.0475 66.7125 34.8022Z" fill="white" stroke="#1B1B35" stroke-width="2" stroke-miterlimit="10"/>
</g>
</g>
<g id="Group_7">
<path id="Vector_10" d="M77.5713 34.8024C77.5713 38.7771 80.7256 42.0001 84.6161 42.0001C88.5063 42.0001 91.6602 38.7771 91.6602 34.8024C91.6602 30.8268 88.5063 27.6047 84.6161 27.6047C80.7252 27.6043 77.5713 30.8268 77.5713 34.8024Z" fill="#1B1B35" stroke="white" stroke-width="2" stroke-miterlimit="10"/>
<g id="Group_8">
<path id="Vector_11" d="M80.0396 34.8023C80.0396 37.3846 82.0889 39.478 84.6153 39.478C87.1426 39.478 89.1914 37.3846 89.1914 34.8023C89.1914 32.2201 87.1422 30.1267 84.6153 30.1267C82.0884 30.1267 80.0396 32.2197 80.0396 34.8023Z" fill="white"/>
<path id="Vector_12" d="M83.2794 34.8025C83.2794 35.5564 83.8778 36.1682 84.6165 36.1682C85.3551 36.1682 85.9531 35.5568 85.9531 34.8025C85.9531 34.0481 85.3551 33.4363 84.6165 33.4363C83.8778 33.4363 83.2794 34.0477 83.2794 34.8025Z" fill="white" stroke="#1B1B35" stroke-width="2" stroke-miterlimit="10"/>
</g>
</g>
<g id="Group_9">
<path id="Vector_13" d="M3.45408 34.8024C3.45408 38.7771 6.60842 42.0001 10.4989 42.0001C14.3891 42.0001 17.543 38.7771 17.543 34.8024C17.543 30.8268 14.3891 27.6047 10.4989 27.6047C6.60842 27.6043 3.45408 30.8268 3.45408 34.8024Z" fill="#1B1B35" stroke="white" stroke-width="2" stroke-miterlimit="10"/>
<g id="Group_10">
<path id="Vector_14" d="M5.92147 34.8023C5.92147 37.3846 7.97029 39.478 10.4976 39.478C13.024 39.478 15.0732 37.3846 15.0732 34.8023C15.0732 32.2201 13.024 30.1267 10.4976 30.1267C7.97029 30.1267 5.92147 32.2197 5.92147 34.8023Z" fill="white"/>
<path id="Vector_15" d="M9.15967 34.8025C9.15967 35.5564 9.75807 36.1682 10.4968 36.1682C11.2346 36.1682 11.833 35.5568 11.833 34.8025C11.833 34.0481 11.2346 33.4363 10.4968 33.4363C9.75807 33.4359 9.15967 34.0477 9.15967 34.8025Z" fill="white" stroke="#1B1B35" stroke-width="2" stroke-miterlimit="10"/>
</g>
</g>
<g id="Group_11">
<path id="Vector_16" d="M20.0195 34.8024C20.0195 38.7771 23.1743 42.0001 27.0644 42.0001C30.9549 42.0001 34.1084 38.7771 34.1084 34.8024C34.1084 30.8268 30.9549 27.6047 27.0644 27.6047C23.1743 27.6043 20.0195 30.8268 20.0195 34.8024Z" fill="#1B1B35" stroke="white" stroke-width="2" stroke-miterlimit="10"/>
<g id="Group_12">
<path id="Vector_17" d="M22.4879 34.8022C22.4879 37.3845 24.5371 39.4778 27.064 39.4778C29.5913 39.4778 31.6396 37.3845 31.6396 34.8022C31.6396 32.22 29.5913 30.1266 27.064 30.1266C24.5375 30.1266 22.4879 32.2195 22.4879 34.8022Z" fill="white"/>
<path id="Vector_18" d="M25.7262 34.8023C25.7262 35.5562 26.3246 36.1681 27.0633 36.1681C27.8016 36.1681 28.4004 35.5567 28.4004 34.8023C28.4004 34.048 27.802 33.4362 27.0633 33.4362C26.3246 33.4357 25.7262 34.0476 25.7262 34.8023Z" fill="white" stroke="#1B1B35" stroke-width="2" stroke-miterlimit="10"/>
</g>
</g>
</g>
<path id="Vector_19" d="M137.723 30.9532C137.215 30.9532 136.804 31.2823 136.804 31.8013C136.804 32.3194 137.215 32.6493 137.723 32.6493H139.497C140.005 32.6493 140.417 32.3194 140.417 31.8013C140.417 31.2823 140.005 30.9532 139.497 30.9532H137.723Z" fill="white"/>
<path id="Vector_20" d="M50.6608 30.9532C50.1524 30.9532 49.7412 31.2823 49.7412 31.8013C49.7412 32.3194 50.1524 32.6493 50.6608 32.6493H52.434C52.9424 32.6493 53.3545 32.3194 53.3545 31.8013C53.3545 31.2823 52.9424 30.9532 52.434 30.9532H50.6608Z" fill="white"/>
<path id="Vector_21" d="M1.96355 25.865C1.45518 25.865 1.04393 26.194 1.04393 26.713C1.04393 27.2307 1.45518 27.5611 1.96355 27.5611H3.7368C4.24516 27.5611 4.65723 27.2307 4.65723 26.713C4.65723 26.194 4.24516 25.865 3.7368 25.865H1.96355Z" fill="white"/>
<path id="Vector_22" d="M122.422 1.69617H123.667V15.6887H122.422V1.69617Z" fill="#1B1B35"/>
<path id="Vector_23" d="M58.956 0H108.021C109.039 0 109.973 1.04944 109.973 2.08998V8.87466V17.921V22.4728H56.854V17.921V8.87466V2.08998C56.854 1.04944 57.9367 0 58.956 0Z" fill="#1B1B35"/>
<path id="Vector_24" d="M1.40533 0H53.0524C54.0712 0 54.7783 1.04944 54.7783 2.08998V8.87466V17.921V22.4728H-0.000247955V17.921V8.87466V2.08998C-0.000247955 1.04944 0.386532 0 1.40533 0Z" fill="#1B1B35"/>
</g>
</svg>
