<svg width="167" height="73" viewBox="0 0 167 73" fill="none" xmlns="http://www.w3.org/2000/svg">
<g id="Group">
<g id="Group_2">
<path id="Vector" d="M114.597 42.1593V10.8931V5.35422V4.13815C114.597 2.02437 116.451 0 118.578 0H118.85C118.921 0 118.988 0.0167178 119.058 0.0210791L119.076 0C119.076 0 136.332 0 151.088 0C155.714 0 157.517 3.29933 159.194 5.75183C162.745 10.9454 166.372 19.9806 166.432 29.2287L166.44 29.1604L166.5 58.8776H147.574H144.207H0.500183V42.1593H114.597Z" fill="#1B1B35"/>
<path id="Vector_2" d="M117.522 3.63428V21.6981C117.522 21.6981 130.383 27.8671 162.986 32.1928C162.986 32.1928 162.951 10.9031 152.25 3.63428H117.522Z" fill="white"/>
<g id="Group_3">
<path id="Vector_3" d="M116.699 59.6611C116.699 66.4749 122.257 72 129.114 72C135.971 72 141.529 66.4749 141.529 59.6611C141.529 52.8459 135.971 47.3223 129.114 47.3223C122.257 47.3223 116.699 52.8459 116.699 59.6611Z" fill="#1B1B35" stroke="white" stroke-width="2" stroke-miterlimit="10"/>
<g id="Group_4">
<path id="Vector_4" d="M121.05 59.6611C121.05 64.0878 124.661 67.6764 129.115 67.6764C133.568 67.6764 137.181 64.0878 137.181 59.6611C137.181 55.2344 133.569 51.6458 129.115 51.6458C124.661 51.6458 121.05 55.2337 121.05 59.6611Z" fill="white"/>
<path id="Vector_5" d="M126.758 59.6614C126.758 60.9538 127.814 62.0026 129.115 62.0026C130.416 62.0026 131.471 60.9545 131.471 59.6614C131.471 58.3682 130.416 57.3193 129.115 57.3193C127.814 57.3186 126.758 58.3675 126.758 59.6614Z" fill="white" stroke="#1B1B35" stroke-width="2" stroke-miterlimit="10"/>
</g>
</g>
<g id="Group_5">
<path id="Vector_6" d="M13.9966 59.6611C13.9966 66.4749 19.5559 72 26.4127 72C33.2695 72 38.8267 66.4749 38.8267 59.6611C38.8267 52.8459 33.2695 47.3223 26.4127 47.3223C19.5559 47.3215 13.9966 52.8459 13.9966 59.6611Z" fill="#1B1B35" stroke="white" stroke-width="2" stroke-miterlimit="10"/>
<g id="Group_6">
<path id="Vector_7" d="M20.7119 65.3293C17.5623 62.1991 17.5623 57.1241 20.7119 53.994C23.8615 50.8638 28.9679 50.8638 32.1175 53.994C35.2671 57.1241 35.2671 62.1991 32.1175 65.3293C28.9679 68.4594 23.8615 68.4594 20.7119 65.3293Z" fill="white"/>
<path id="Vector_8" d="M24.0562 59.6614C24.0562 60.9538 25.1109 62.0026 26.4127 62.0026C27.7139 62.0026 28.7686 60.9545 28.7686 59.6614C28.7686 58.3682 27.7139 57.3193 26.4127 57.3193C25.1109 57.3186 24.0562 58.3675 24.0562 59.6614Z" fill="white" stroke="#1B1B35" stroke-width="2" stroke-miterlimit="10"/>
</g>
</g>
<g id="Group_7">
<path id="Vector_9" d="M43.1961 59.6611C43.1961 66.4749 48.7554 72 55.6122 72C62.469 72 68.0269 66.4749 68.0269 59.6611C68.0269 52.8459 62.469 47.3223 55.6122 47.3223C48.7554 47.3223 43.1961 52.8459 43.1961 59.6611Z" fill="#1B1B35" stroke="white" stroke-width="2" stroke-miterlimit="10"/>
<g id="Group_8">
<path id="Vector_10" d="M47.5466 59.6611C47.5466 64.0878 51.1582 67.6764 55.6117 67.6764C60.0659 67.6764 63.6768 64.0878 63.6768 59.6611C63.6768 55.2344 60.0659 51.6458 55.6117 51.6458C51.1582 51.6458 47.5466 55.2337 47.5466 59.6611Z" fill="white"/>
<path id="Vector_11" d="M53.2552 59.6614C53.2552 60.9538 54.3106 62.0026 55.6117 62.0026C56.9136 62.0026 57.9683 60.9545 57.9683 59.6614C57.9683 58.3682 56.9136 57.3193 55.6117 57.3193C54.3106 57.3186 53.2552 58.3675 53.2552 59.6614Z" fill="white" stroke="#1B1B35" stroke-width="2" stroke-miterlimit="10"/>
</g>
</g>
</g>
<path id="Vector_12" d="M158.96 53.0625C158.065 53.0625 157.34 53.6266 157.34 54.5163C157.34 55.4045 158.065 55.97 158.96 55.97H162.086C162.981 55.97 163.707 55.4045 163.707 54.5163C163.707 53.6266 162.981 53.0625 162.086 53.0625H158.96Z" fill="white"/>
<path id="Vector_13" d="M4.86874 53.0625C3.97352 53.0625 3.24797 53.6266 3.24797 54.5163C3.24797 55.4045 3.97352 55.97 4.86874 55.97H7.99473C8.88995 55.97 9.61621 55.4045 9.61621 54.5163C9.61621 53.6266 8.88995 53.0625 7.99473 53.0625H4.86874Z" fill="white"/>
<path id="Vector_14" d="M131.42 2.90771H134.345V26.8949H131.42V2.90771Z" fill="#1B1B35"/>
<path id="Vector_15" d="M3.2348 0H107.913C109.709 0 110.94 1.79904 110.94 3.58281V15.2137V30.7217V38.5248H0.500114V30.7217V15.2137V3.58281C0.500114 1.79904 1.43923 0 3.2348 0Z" fill="#1B1B35"/>
</g>
</svg>
