<svg width="97" height="43" viewBox="0 0 97 43" fill="none" xmlns="http://www.w3.org/2000/svg">
<g id="Frame 211">
<g id="Group">
<g id="Group_2">
<path id="Vector" d="M66.8022 24.5074V6.703V3.54893V2.85645C66.8022 1.65277 67.8805 0.5 69.1179 0.5H69.2762C69.3175 0.5 69.3567 0.50952 69.3975 0.512003L69.4081 0.5C69.4081 0.5 79.4479 0.5 88.0331 0.5C90.7246 0.5 91.7735 2.37878 92.7493 3.77535C94.8153 6.73281 96.9255 11.8778 96.9604 17.1441L96.9651 17.1052L97 34.0275H85.9884H84.0296H0.418305V24.5074H66.8022Z" fill="#1B1B35"/>
<path id="Vector_2" d="M68.5037 2.56958V12.8559C68.5037 12.8559 75.9859 16.3688 94.9551 18.8321C94.9551 18.8321 94.9351 6.70878 88.709 2.56958H68.5037Z" fill="white"/>
<g id="Group_3">
<path id="Vector_3" d="M68.0251 34.4738C68.0251 38.3539 71.2592 41.5001 75.2486 41.5001C79.238 41.5001 82.4717 38.3539 82.4717 34.4738C82.4717 30.5929 79.238 27.4475 75.2486 27.4475C71.2592 27.4475 68.0251 30.5929 68.0251 34.4738Z" fill="#1B1B35" stroke="white" stroke-width="2" stroke-miterlimit="10"/>
<g id="Group_4">
<path id="Vector_4" d="M70.5562 34.4738C70.5562 36.9946 72.6575 39.0381 75.2486 39.0381C77.8397 39.0381 79.9414 36.9946 79.9414 34.4738C79.9414 31.9531 77.8401 29.9095 75.2486 29.9095C72.6575 29.9095 70.5562 31.9527 70.5562 34.4738Z" fill="white"/>
<path id="Vector_5" d="M73.8774 34.4739C73.8774 35.2099 74.4914 35.8071 75.2485 35.8071C76.0055 35.8071 76.6191 35.2103 76.6191 34.4739C76.6191 33.7375 76.0055 33.1403 75.2485 33.1403C74.4914 33.1398 73.8774 33.7371 73.8774 34.4739Z" fill="white" stroke="#1B1B35" stroke-width="2" stroke-miterlimit="10"/>
</g>
</g>
<g id="Group_5">
<path id="Vector_6" d="M8.27022 34.4738C8.27022 38.3539 11.5047 41.5001 15.4941 41.5001C19.4836 41.5001 22.7168 38.3539 22.7168 34.4738C22.7168 30.5929 19.4836 27.4475 15.4941 27.4475C11.5047 27.4471 8.27022 30.5929 8.27022 34.4738Z" fill="#1B1B35" stroke="white" stroke-width="2" stroke-miterlimit="10"/>
<g id="Group_6">
<path id="Vector_7" d="M12.1769 37.7014C10.3444 35.919 10.3444 33.029 12.1769 31.2466C14.0093 29.4641 16.9804 29.4641 18.8129 31.2466C20.6453 33.029 20.6453 35.919 18.8129 37.7014C16.9804 39.4839 14.0093 39.4839 12.1769 37.7014Z" fill="white"/>
<path id="Vector_8" d="M14.1225 34.4739C14.1225 35.2099 14.7361 35.8071 15.4936 35.8071C16.2506 35.8071 16.8643 35.2103 16.8643 34.4739C16.8643 33.7375 16.2506 33.1403 15.4936 33.1403C14.7361 33.1398 14.1225 33.7371 14.1225 34.4739Z" fill="white" stroke="#1B1B35" stroke-width="2" stroke-miterlimit="10"/>
</g>
</g>
<g id="Group_7">
<path id="Vector_9" d="M25.26 34.4738C25.26 38.3539 28.4945 41.5001 32.484 41.5001C36.4734 41.5001 39.707 38.3539 39.707 34.4738C39.707 30.5929 36.4734 27.4475 32.484 27.4475C28.4945 27.4475 25.26 30.5929 25.26 34.4738Z" fill="#1B1B35" stroke="white" stroke-width="2" stroke-miterlimit="10"/>
<g id="Group_8">
<path id="Vector_10" d="M27.791 34.4738C27.791 36.9946 29.8923 39.0381 32.4834 39.0381C35.0749 39.0381 37.1758 36.9946 37.1758 34.4738C37.1758 31.9531 35.0749 29.9095 32.4834 29.9095C29.8923 29.9095 27.791 31.9527 27.791 34.4738Z" fill="white"/>
<path id="Vector_11" d="M31.1123 34.4739C31.1123 35.2099 31.7264 35.8071 32.4834 35.8071C33.2409 35.8071 33.8545 35.2103 33.8545 34.4739C33.8545 33.7375 33.2409 33.1403 32.4834 33.1403C31.7264 33.1398 31.1123 33.7371 31.1123 34.4739Z" fill="white" stroke="#1B1B35" stroke-width="2" stroke-miterlimit="10"/>
</g>
</g>
</g>
<path id="Vector_12" d="M92.6133 30.7161C92.0924 30.7161 91.6703 31.0373 91.6703 31.5439C91.6703 32.0497 92.0924 32.3717 92.6133 32.3717H94.4316C94.9529 32.3717 95.375 32.0497 95.375 31.5439C95.375 31.0373 94.9524 30.7161 94.4316 30.7161H92.6133Z" fill="white"/>
<path id="Vector_13" d="M2.96049 30.7161C2.43963 30.7161 2.0175 31.0373 2.0175 31.5439C2.0175 32.0497 2.43963 32.3717 2.96049 32.3717H4.77925C5.30011 32.3717 5.72266 32.0497 5.72266 31.5439C5.72266 31.0373 5.30011 30.7161 4.77925 30.7161H2.96049Z" fill="white"/>
<path id="Vector_14" d="M76.5898 2.15576H78.292V15.8151H76.5898V2.15576Z" fill="#1B1B35"/>
<path id="Vector_15" d="M2.00874 0.5H62.9125C63.9572 0.5 64.6738 1.52445 64.6738 2.54021V9.16334V17.9943V22.4377H0.417648V17.9943V9.16334V2.54021C0.417648 1.52445 0.964044 0.5 2.00874 0.5Z" fill="#1B1B35"/>
</g>
</g>
</svg>
