<svg width="192" height="54" viewBox="0 0 192 54" fill="none" xmlns="http://www.w3.org/2000/svg">
<g filter="url(#filter0_f_233_8347)">
<path d="M157.432 -10.0474L123.042 9.07394L149.347 25.6166L183.737 6.49533L157.432 -10.0474ZM152.775 22.2923C152.503 22.3453 152.237 22.3121 152.073 22.2086L128.959 7.6728C128.793 7.56899 128.754 7.40988 128.861 7.25273C128.962 7.09864 129.194 6.97003 129.465 6.91709L167.189 -0.361975C167.46 -0.414919 167.727 -0.381752 167.891 -0.278219C168.057 -0.174403 168.096 -0.0152903 167.989 0.141851L153.379 21.9567C153.273 22.1128 153.04 22.2418 152.775 22.2923Z" fill="#0052A5"/>
<path d="M187.151 5.0807C188.196 5.73773 187.936 6.88481 186.576 7.64103L151.106 27.3624C149.746 28.1186 147.794 28.2018 146.749 27.5448L119.623 10.4854C118.582 9.83119 118.842 8.6841 120.202 7.92722L155.672 -11.7941C157.032 -12.5503 158.984 -12.6336 160.025 -11.9794L187.151 5.0807ZM149.347 25.6168L183.737 6.49549L157.432 -10.0466L123.042 9.07477L149.347 25.6168ZM153.38 21.9558L167.99 0.140975C168.096 -0.0161661 168.056 -0.174917 167.891 -0.279115C167.726 -0.382931 167.46 -0.415783 167.189 -0.362838L129.465 6.91619C129.194 6.96914 128.962 7.0988 128.861 7.25185C128.755 7.40899 128.794 7.56772 128.959 7.67192L152.073 22.2077C152.238 22.3115 152.504 22.3444 152.775 22.2914C153.04 22.2419 153.273 22.1129 153.38 21.9558ZM160.186 2.29376C161.033 2.02692 161.945 2.08803 162.463 2.4137C162.59 2.49429 162.694 2.5903 162.768 2.70214C163.136 3.26018 162.585 3.98728 161.522 4.32408C160.673 4.59586 159.762 4.53331 159.243 4.20631C159.116 4.12639 159.012 4.03105 158.939 3.92092C158.572 3.35727 159.128 2.63236 160.186 2.29376ZM137.712 11.0675L136.106 10.0574L140.656 9.08781L141.601 9.68254L137.712 11.0675ZM141.493 13.4454L145.057 11.8553L146.002 12.4501L143.099 14.4555L141.493 13.4454ZM155.521 10.6983C155.36 10.7682 154.373 10.6033 154.303 10.5589C154.242 10.5143 157.611 8.45058 157.646 8.39636C157.669 8.35936 157.669 7.46438 157.63 7.11368C156.35 7.93326 154.905 8.85913 154.208 9.24643C153.63 9.56751 152.529 9.65901 152.471 9.66403C152.218 9.92744 147.391 14.9295 147.002 15.1461C146.619 15.3592 145.075 15.5767 144.68 15.451C144.524 15.3525 147.23 12.3891 149.96 9.46584C148.728 9.59297 147.375 9.75828 146.819 9.94011C146.274 10.1155 140.591 12.322 140.315 12.3728C140.27 12.3805 140.194 12.3481 140.104 12.2925C139.819 12.1128 139.395 11.6873 139.381 11.5422C139.368 11.4317 145.164 9.0461 145.852 8.75612C146.692 8.40149 150.256 7.57444 151.69 7.61873C152.883 6.89165 153.987 6.22428 154.884 5.68169C154.165 5.7733 153.07 6.15215 152.849 6.14762C152.527 6.13754 149.266 5.16413 149.01 4.99992C148.971 4.89915 148.975 4.26179 149.035 4.20307C149.09 4.14845 152.826 5.0648 152.953 5.06196C153.106 5.05565 157.119 4.27432 157.33 4.23306C158.154 4.0915 158.987 4.2965 159.515 4.62815C159.851 4.83957 160.064 5.10344 160.069 5.36058C160.066 5.49296 159.995 7.99935 159.54 8.58975C159.372 8.81635 155.746 10.603 155.521 10.6983ZM146.885 16.8356L149.457 14.6228L150.407 15.2197L148.491 17.8458L146.885 16.8356Z" fill="url(#paint0_linear_233_8347)"/>
<path d="M158.94 3.92056C158.572 3.35729 159.128 2.63238 160.186 2.2934C161.034 2.02656 161.946 2.08767 162.464 2.41334C162.591 2.49393 162.695 2.59061 162.768 2.70178C163.137 3.25982 162.585 3.98693 161.524 4.32335C160.674 4.59513 159.763 4.53258 159.244 4.20558C159.116 4.12708 159.013 4.03174 158.94 3.92056ZM141.494 13.4455L143.099 14.4556L146.002 12.4501L145.057 11.8553L141.494 13.4455ZM137.712 11.0676L141.601 9.68256L140.656 9.08783L136.106 10.0575L137.712 11.0676ZM160.071 5.36089C160.064 5.10308 159.852 4.83988 159.516 4.62846C158.988 4.29681 158.155 4.09179 157.331 4.23334C157.12 4.27461 153.107 5.05558 152.955 5.06226C152.827 5.06511 149.092 4.14837 149.036 4.20338C148.976 4.26143 148.973 4.89908 149.025 5.01247C149.267 5.16445 152.528 6.13784 152.85 6.14792C153.071 6.15245 154.166 5.77361 154.885 5.682C153.988 6.22458 152.884 6.89194 151.691 7.61902C150.258 7.57434 146.693 8.40247 145.853 8.75643C145.165 9.04641 139.369 11.432 139.382 11.5425C139.396 11.6876 139.82 12.1131 140.106 12.2928C140.195 12.3491 140.271 12.3808 140.316 12.3731C140.592 12.3223 146.276 10.1161 146.82 9.94042C147.375 9.75896 148.729 9.59326 149.961 9.46613C147.231 12.3894 144.524 15.3521 144.684 15.4521C145.076 15.577 146.62 15.3589 147.003 15.1457C147.391 14.9295 152.218 9.92746 152.472 9.66367C152.53 9.65864 153.631 9.56715 154.208 9.24607C154.905 8.85915 156.351 7.9329 157.631 7.11332C157.669 7.46335 157.669 8.35938 157.647 8.396C157.611 8.45022 154.243 10.514 154.305 10.5595C154.374 10.6029 155.361 10.7679 155.522 10.6979C155.747 10.6026 159.373 8.81561 159.542 8.58968C159.996 8.00032 160.067 5.49326 160.071 5.36089ZM149.457 14.6228L146.885 16.8357L148.491 17.8458L150.407 15.2198L149.457 14.6228Z" fill="url(#paint1_linear_233_8347)"/>
<path d="M187.776 5.90717L187.776 5.9048L187.776 5.90547L187.776 5.90717C187.702 5.49979 187.263 3.07275 187.208 2.77206C187.143 2.41874 186.89 2.14039 186.583 1.94783L159.457 -15.1116C158.356 -15.8042 156.327 -15.606 155.104 -14.9263L119.635 4.79502C118.997 5.15012 118.303 5.80947 118.433 6.53017L119.001 9.66291C118.87 8.93984 119.564 8.28324 120.202 7.92776L155.672 -11.7936C157.109 -12.5927 159.07 -12.5785 160.025 -11.9788L187.151 5.08057C187.453 5.27028 187.712 5.55584 187.776 5.90717Z" fill="url(#paint2_linear_233_8347)"/>
</g>
<path d="M23.4979 20.2437C20.208 20.691 16.5481 21.8298 13.8339 23.2533L11.9834 24.2293H13.8339C15.2321 24.27 16.1368 23.9446 17.4528 23.0499C20.5781 20.9757 24.3203 20.9351 26.2942 22.9686C27.4868 24.1887 27.898 25.8968 27.1167 26.1815C26.7877 26.3035 26.5821 26.0188 26.5821 25.5308C26.5821 24.8394 26.3354 24.6767 25.2662 24.6767C24.526 24.6767 23.6212 24.8801 23.2923 25.0834C22.8399 25.3681 23.0866 25.4901 24.2381 25.4901C25.9653 25.4901 26.4176 26.5069 24.8549 26.8322C24.3203 26.9136 24.9783 27.0356 26.2531 27.0762C30.0365 27.1576 30.7767 26.4662 28.8028 24.636C28.227 24.1073 27.5691 23.2939 27.4046 22.8466C26.7877 21.3011 27.6102 21.0164 32.9151 20.9757C36.6162 20.9351 37.5209 20.8537 36.4517 20.569C34.1076 19.9997 26.6232 19.7963 23.4979 20.2437Z" fill="white"/>
<path d="M3.14258 21.952C3.14258 22.7654 5.19873 23.7415 7.58388 23.9855C9.68115 24.2295 10.5036 23.7821 8.89982 23.2534C8.44746 23.1314 8.07735 22.8467 8.07735 22.6434C8.07735 22.1147 9.39329 21.8706 12.6009 21.708C14.0813 21.6266 12.5598 21.5453 9.2288 21.5046C4.49964 21.4233 3.14258 21.5453 3.14258 21.952Z" fill="white"/>
<path d="M4.16934 25.6532L2.52441 26.1819L5.07405 26.1412C8.3639 26.1005 9.47422 26.8733 11.407 30.6963C13.751 35.3733 14.738 36.1054 19.6728 37.0408C23.086 37.6915 26.1702 38.0982 26.1702 37.8542C26.1702 37.7728 24.3197 37.1628 22.099 36.4714C16.2184 34.6413 13.422 32.4451 13.2576 29.4762C13.2164 27.89 12.5173 27.9307 21.4822 28.8254C25.8823 29.2728 28.0208 29.6795 28.8021 30.1676C29.8713 30.8589 29.9124 30.8589 31.0227 29.8829C33.2845 27.768 35.0528 27.4427 37.5202 28.5814C39.6997 29.5982 40.9334 32.079 41.797 37.1628C42.4138 40.9044 42.7017 41.6365 43.6064 42.4499C44.2233 42.9786 45.2102 43.3853 45.8271 43.3853L46.9374 43.3446L46.0738 42.6533C44.8401 41.6365 44.2644 40.4164 44.2644 38.8303C44.2644 37.0815 44.8812 36.4714 46.5673 36.4714C47.5542 36.4714 48.3356 36.8781 49.487 37.9355C52.0367 40.3757 52.6535 40.6198 56.2723 40.7824L59.6856 40.9451L57.0948 40.3757C55.491 40.0504 54.1339 39.5217 53.5993 38.9523C52.7358 38.0982 52.7358 38.0169 53.4348 37.5288C53.805 37.2441 55.8611 36.8781 57.9995 36.7154C64.7026 36.2274 64.7437 35.7393 58.1229 35.6987C49.2814 35.658 45.457 34.4786 42.0849 30.8183C40.2343 28.8254 40.0698 27.524 41.6325 27.524C42.9896 27.524 44.0999 28.134 46.1561 29.9642C47.8832 31.5503 49.3225 31.9977 54.3396 32.6484C56.3135 32.8924 56.3546 32.8518 55.4499 32.2011C53.7638 30.981 46.1561 27.5647 43.6475 26.9139C40.6044 26.1412 38.8361 26.1412 34.3948 26.9139C30.3236 27.6053 18.9325 27.7273 16.6296 27.0766C15.7661 26.8733 15.067 26.4259 15.067 26.1412C15.067 25.8159 14.4912 25.4905 13.7922 25.3278C11.6537 24.9211 5.93763 25.1245 4.16934 25.6532Z" fill="white"/>
<path d="M47.3487 25.4902C47.4721 25.6936 48.0478 25.8969 48.6235 25.8969C50.2685 25.8969 54.5453 27.4831 56.5603 28.8252L58.452 30.0859L57.2183 28.7845C56.5603 28.0524 55.3266 27.0764 54.5453 26.6697L53.106 25.8563L54.5453 26.1409C56.6014 26.507 61.454 28.5405 64.2503 30.208C66.3476 31.4687 66.5532 31.5094 65.6896 30.6147C64.2503 29.0692 59.4801 26.7917 55.9435 25.8969C52.5714 25.0429 46.8964 24.7582 47.3487 25.4902Z" fill="white"/>
<path d="M5.07542 28.8249C6.92596 30.7771 7.29607 31.7125 7.58393 35.3728L7.87179 38.7077L13.2178 39.1551C21.4835 39.8872 22.3883 39.7245 16.0964 38.667C10.0924 37.6503 9.3111 37.2843 9.3111 35.3728C9.3111 33.4613 7.62505 30.0043 6.1035 28.7436C4.12959 27.1168 3.47162 27.1981 5.07542 28.8249Z" fill="white"/>
<path d="M1.16812 28.4185C0.386782 29.3946 -0.188942 32.4855 0.0577965 34.1936C0.427905 36.3898 1.78497 38.708 3.01866 39.2774C4.25236 39.8468 5.89728 39.8468 6.22627 39.3181C6.39076 39.074 6.02065 38.9114 5.4038 38.9114C2.89529 38.9114 1.49711 36.9999 1.49711 33.5022C1.49711 31.7128 1.70272 31.1027 2.52518 30.208L3.51214 29.1506H2.44294C1.70272 29.1506 1.45598 28.9879 1.6616 28.5405C1.94946 27.8084 1.74384 27.7678 1.16812 28.4185Z" fill="white"/>
<path d="M31.5579 30.7369C28.7204 33.7465 28.8849 38.8303 31.928 41.8399C33.3262 43.2633 33.6552 43.3853 35.7525 43.3853C37.4385 43.3853 38.261 43.182 38.9601 42.5312C39.9059 41.7585 39.9059 41.7178 39.0423 42.1245C35.1768 43.9954 31.2289 40.5791 31.5991 35.7393C31.7635 33.8279 32.0103 33.2991 33.1206 32.3231C33.8197 31.713 34.8889 31.1843 35.5469 31.1436C36.6572 31.1436 36.6572 31.1436 35.7114 30.7369C35.0123 30.4929 34.3954 30.5743 33.4907 31.0216C31.9692 31.7944 31.5991 31.5097 32.7094 30.4116C33.2029 29.9235 33.3673 29.5575 33.1206 29.5575C32.8739 29.5575 32.1748 30.0862 31.5579 30.7369Z" fill="white"/>
<path d="M68.1169 33.7056C68.3225 34.4377 68.5692 36.1865 68.7337 37.5693C69.0627 40.5789 69.1449 40.4975 63.84 41.5549C58.1239 42.653 59.7277 42.8564 66.8009 41.8803C67.7467 41.7583 68.9393 41.3516 69.3917 40.9856C70.173 40.3755 70.173 40.2128 69.5562 37.1626C69.0216 34.275 68.3636 32.4042 67.9112 32.4042C67.829 32.4042 67.9112 33.0142 68.1169 33.7056Z" fill="white"/>
<path d="M22.7975 40.0092C23.291 40.0905 24.0312 40.0905 24.4424 40.0092C24.8126 39.8872 24.4013 39.8058 23.4966 39.8465C22.5919 39.8465 22.2629 39.9278 22.7975 40.0092Z" fill="white"/>
<path d="M3.34798 50.5023C2.19653 53.5526 2.27878 54.976 3.43022 53.2272C4.25269 52.0478 6.2266 52.0071 6.84344 53.1459C7.33692 54.0406 8.07714 54.244 8.07714 53.4712C8.07714 53.1865 7.58366 51.7224 6.96681 50.2176C5.48638 46.476 4.78729 46.5167 3.34798 50.5023ZM5.81537 50.5837C6.02098 51.3564 5.89761 51.5191 5.23964 51.5191C4.29381 51.5191 4.25269 51.3971 4.62279 49.9736C4.91066 48.9162 5.36301 49.1602 5.81537 50.5837Z" fill="white"/>
<path d="M8.07715 47.5336C8.07715 47.6149 8.61175 49.0384 9.2286 50.7059C10.7502 54.7729 11.367 54.8135 12.7652 51.0312C13.9989 47.6149 14.04 47.4523 13.2998 47.4523C13.0119 47.4523 12.4362 48.469 12.025 49.7298C11.6137 50.9905 11.1614 51.8853 11.038 51.7226C10.8735 51.6006 10.4623 50.6245 10.0922 49.5671C9.72207 48.469 9.14635 47.6149 8.77624 47.5336C8.36501 47.4523 8.07715 47.4523 8.07715 47.5336Z" fill="white"/>
<path d="M14.6562 47.8183C14.6562 48.0216 15.0675 48.2656 15.6021 48.347C16.4245 48.469 16.5068 48.713 16.6302 51.1939C16.7124 52.7393 16.918 53.9594 17.1236 53.9594C17.3293 53.9594 17.5349 52.7393 17.6171 51.1939C17.7405 48.713 17.8227 48.469 18.6863 48.347C20.578 48.0623 19.5088 47.4522 17.1236 47.4522C15.7666 47.4522 14.6562 47.6149 14.6562 47.8183Z" fill="white"/>
<path d="M21.2361 48.2656C20.1257 49.3637 20.1257 51.8853 21.2361 53.0647C23.21 55.1389 26.5821 53.5121 26.5821 50.5025C26.5821 47.8996 23.0866 46.4355 21.2361 48.2656ZM24.6904 48.9164C25.554 49.7298 25.5129 51.4786 24.6493 52.414C23.8268 53.3087 23.3745 53.3494 22.3875 52.4547C21.0304 51.2346 21.8118 48.2656 23.4978 48.2656C23.7857 48.2656 24.3614 48.5503 24.6904 48.9164Z" fill="white"/>
<path d="M27.4053 47.6958C27.4053 47.8178 27.8988 49.2819 28.4745 50.9494C29.8727 54.8131 30.5718 54.8944 31.8054 51.3968C32.2989 50.014 32.8335 48.5499 32.9569 48.1432C33.1625 47.6551 33.0391 47.4518 32.6279 47.4518C32.1756 47.4518 31.7232 48.2245 31.2708 49.6886C30.8596 50.9087 30.4073 51.9255 30.2839 51.9255C30.1605 51.9255 29.7082 50.9087 29.2969 49.6886C28.8857 48.3465 28.3511 47.4518 27.981 47.4518C27.6931 47.4518 27.4053 47.5738 27.4053 47.6958Z" fill="white"/>
<path d="M34.8074 48.2652C33.697 49.3633 33.697 51.8849 34.8074 53.0643C36.041 54.3657 38.1794 54.2844 39.2898 52.9016C41.0581 50.6648 39.7421 47.4518 37.028 47.4518C36.1644 47.4518 35.3008 47.7772 34.8074 48.2652ZM38.2617 48.9159C39.1253 49.7293 39.0842 51.4782 38.2206 52.4136C37.3981 53.3083 36.699 53.349 35.8766 52.4949C34.6017 51.2341 35.4242 48.2652 37.0691 48.2652C37.357 48.2652 37.9327 48.5499 38.2617 48.9159Z" fill="white"/>
<path d="M41.3877 50.7058V53.9594H43.2382C45.6645 53.9594 46.7337 52.9427 46.7337 50.7058C46.7337 48.469 45.6645 47.4522 43.2382 47.4522H41.3877V50.7058ZM44.842 48.7943C45.3766 49.1604 45.5411 49.7298 45.4178 50.9092C45.2944 52.414 45.2121 52.536 43.9785 52.658L42.6214 52.78V50.7872C42.6214 48.1843 43.2382 47.6149 44.842 48.7943Z" fill="white"/>
<path d="M48.3779 50.7058C48.3779 52.6173 48.5424 53.9594 48.7892 53.9594C49.0359 53.9594 49.2004 52.6173 49.2004 50.7058C49.2004 48.7943 49.0359 47.4522 48.7892 47.4522C48.5424 47.4522 48.3779 48.7943 48.3779 50.7058Z" fill="white"/>
<path d="M50.4336 47.8183C50.4336 48.0216 50.8448 48.2656 51.3794 48.347C52.2019 48.469 52.2841 48.713 52.4075 51.1939C52.4898 53.3087 52.6542 53.9594 53.1066 53.9594C53.6001 53.9594 53.7234 53.3494 53.7234 51.1125C53.7234 48.5503 53.8057 48.2656 54.5459 48.2656C54.9983 48.2656 55.3684 48.0623 55.3684 47.8589C55.3684 47.6149 54.258 47.4522 52.901 47.4522C51.5439 47.4522 50.4336 47.6149 50.4336 47.8183Z" fill="white"/>
<path d="M56.6016 50.7058V53.9594H59.069C61.0017 53.9594 61.5363 53.8374 61.5363 53.3494C61.5363 52.902 61.0429 52.7393 59.6858 52.7393C58.1231 52.7393 57.8353 52.6173 57.8353 51.9259C57.8353 51.2345 58.1231 51.1125 59.4802 51.1125C60.6728 51.1125 61.1251 50.9499 61.1251 50.5025C61.1251 50.0551 60.6728 49.8924 59.4391 49.8924C58.082 49.8924 57.7941 49.7704 57.9175 49.1604C57.9997 48.6723 58.5343 48.4283 59.8092 48.347C62.441 48.1436 61.8653 47.4522 59.069 47.4522H56.6016V50.7058Z" fill="white"/>
<path d="M63.1816 50.7463V53.9999L65.3612 53.8779C67.8286 53.7559 68.2398 53.0238 65.978 52.8205L64.4153 52.6985V50.0549C64.4153 48.0214 64.292 47.452 63.7985 47.452C63.305 47.452 63.1816 48.1028 63.1816 50.7463Z" fill="white"/>
<defs>
<filter id="filter0_f_233_8347" x="114.417" y="-19.5435" width="77.376" height="51.5317" filterUnits="userSpaceOnUse" color-interpolation-filters="sRGB">
<feFlood flood-opacity="0" result="BackgroundImageFix"/>
<feBlend mode="normal" in="SourceGraphic" in2="BackgroundImageFix" result="shape"/>
<feGaussianBlur stdDeviation="2" result="effect1_foregroundBlur_233_8347"/>
</filter>
<linearGradient id="paint0_linear_233_8347" x1="126.734" y1="23.1743" x2="180.044" y2="-7.60421" gradientUnits="userSpaceOnUse">
<stop stop-color="white"/>
<stop offset="1" stop-color="#D6E6EE"/>
</linearGradient>
<linearGradient id="paint1_linear_233_8347" x1="139.341" y1="15.6594" x2="162.523" y2="2.2753" gradientUnits="userSpaceOnUse">
<stop stop-color="#274158"/>
<stop offset="0.4181" stop-color="#1F3144"/>
<stop offset="0.9949" stop-color="#121622"/>
</linearGradient>
<linearGradient id="paint2_linear_233_8347" x1="125.81" y1="21.4565" x2="179.999" y2="-9.82946" gradientUnits="userSpaceOnUse">
<stop stop-color="#81879C"/>
<stop offset="1" stop-color="#B7BEC1"/>
</linearGradient>
</defs>
</svg>
