<svg width="40" height="40" viewBox="0 0 40 40" fill="none" xmlns="http://www.w3.org/2000/svg">
<g id="Component 4">
<path id="Vector" d="M36.6959 18.3281C36.1232 17.568 33.9959 17.0445 33.0959 15.6766C32.1959 14.3086 31.4592 11.3461 29.1686 10.2078C26.8779 9.06953 22.4998 8.75 19.9998 8.75C17.4998 8.75 13.1248 9.0625 10.8311 10.2055C8.5373 11.3484 7.80371 14.3086 6.90371 15.6742C6.00371 17.0398 3.87637 17.568 3.30371 18.3281C2.73105 19.0883 2.32793 23.8938 2.57324 26.25C2.81855 28.6062 3.27637 30 3.27637 30H9.99512C11.0951 30 11.4529 29.5867 13.7029 29.375C16.1717 29.1406 18.5936 29.0625 19.9998 29.0625C21.4061 29.0625 23.9061 29.1406 26.3732 29.375C28.6232 29.5883 28.9928 30 30.0811 30H36.7217C36.7217 30 37.1795 28.6062 37.4248 26.25C37.6701 23.8938 37.2654 19.0883 36.6959 18.3281ZM31.2498 30H35.6248V31.25H31.2498V30ZM4.3748 30H8.7498V31.25H4.3748V30Z" stroke="white" stroke-width="1.5" stroke-linecap="round" stroke-linejoin="round"/>
<path id="Vector_2" d="M28.4744 24.1532C28.0127 23.6196 26.508 23.1742 24.5158 22.8758C22.5236 22.5774 21.7971 22.5 20.0158 22.5C18.2346 22.5 17.4244 22.6282 15.515 22.8758C13.6057 23.1235 12.1721 23.5641 11.5572 24.1532C10.6346 25.0469 11.9861 26.05 13.0471 26.1719C14.0752 26.2891 16.1307 26.2461 20.0244 26.2461C23.9182 26.2461 25.9736 26.2891 27.0018 26.1719C28.0611 26.043 29.3158 25.1094 28.4744 24.1532ZM33.7166 18.9883C33.7122 18.9263 33.6851 18.868 33.6404 18.8248C33.5957 18.7815 33.5366 18.7563 33.4744 18.7539C32.5518 18.7211 31.615 18.7867 29.9533 19.2766C29.1055 19.5241 28.3094 19.9227 27.6033 20.4531C27.4252 20.5922 27.4885 20.968 27.7119 21.0078C29.0816 21.1685 30.4594 21.2494 31.8385 21.25C32.6658 21.25 33.5197 21.0157 33.6783 20.2782C33.7592 19.8529 33.7721 19.4176 33.7166 18.9883ZM6.28379 18.9883C6.28818 18.9263 6.31533 18.868 6.36002 18.8248C6.40472 18.7815 6.46382 18.7563 6.52598 18.7539C7.44864 18.7211 8.38536 18.7867 10.0471 19.2766C10.8949 19.5241 11.691 19.9227 12.3971 20.4531C12.5752 20.5922 12.5119 20.968 12.2885 21.0078C10.9188 21.1685 9.54097 21.2494 8.16192 21.25C7.33457 21.25 6.48067 21.0157 6.32207 20.2782C6.24122 19.8529 6.2283 19.4176 6.28379 18.9883Z" fill="white"/>
<path id="Vector_3" d="M33.75 15H35M5 15H6.25M6.09375 16.4844C6.09375 16.4844 9.71484 15.5469 20 15.5469C30.2852 15.5469 33.9062 16.4844 33.9062 16.4844" stroke="white" stroke-width="1.5" stroke-linecap="round" stroke-linejoin="round"/>
</g>
</svg>
