<svg width="74" height="42" viewBox="0 0 74 42" fill="none" xmlns="http://www.w3.org/2000/svg">
<g id="Group">
<path id="Vector" d="M57.593 28.1156C61.3907 28.1156 64.4688 31.2222 64.4688 35.0573C64.4688 38.8933 61.3907 41.9999 57.593 41.9999C53.7935 41.9999 50.7163 38.8933 50.7163 35.0573C50.7172 31.2222 53.7935 28.1156 57.593 28.1156ZM57.593 38.0755C59.2431 38.0755 60.5808 36.7264 60.5808 35.0573C60.5808 33.39 59.2431 32.0409 57.593 32.0409C55.942 32.0409 54.6042 33.39 54.6042 35.0573C54.6042 36.7264 55.942 38.0755 57.593 38.0755Z" fill="#1B1B35"/>
<path id="Vector_2" d="M17.2297 28.1156C21.0264 28.1156 24.1045 31.2222 24.1045 35.0573C24.1045 38.8933 21.0264 41.9999 17.2297 41.9999C13.4302 41.9999 10.3539 38.8933 10.3539 35.0573C10.3539 31.2222 13.4302 28.1156 17.2297 28.1156ZM17.2297 38.0755C18.8797 38.0755 20.2175 36.7264 20.2175 35.0573C20.2175 33.39 18.8797 32.0409 17.2297 32.0409C15.5777 32.0409 14.24 33.39 14.24 35.0573C14.24 36.7264 15.5777 38.0755 17.2297 38.0755Z" fill="#1B1B35"/>
<path id="Vector_3" d="M4.1072 0H65.7819C68.0419 0 70.2595 1.83009 70.7118 4.06583L73.1773 13.1539C73.6296 15.3888 74 19.0843 74 21.3656V30.9087C74 33.19 72.1509 35.0573 69.8919 35.0573H65.7017C65.7017 30.5431 62.0653 26.8699 57.5942 26.8699C53.123 26.8699 49.4856 30.5421 49.4856 35.0573H25.338C25.338 30.5431 21.7006 26.8699 17.2304 26.8699C12.7584 26.8699 9.12101 30.5421 9.12101 35.0573H4.1072C1.84814 35.0573 0 33.19 0 30.9087V4.14959C0 1.86733 1.84814 0 4.1072 0ZM56.9262 17.5045H66.5005L64.984 13.8768C64.7196 13.2432 65.0126 12.5148 65.6409 12.2477C66.2683 11.9779 66.9916 12.2747 67.2541 12.9093L69.1364 17.4086C70.4078 17.0718 71.1799 15.8716 70.9191 14.4481L68.708 5.54609C68.3993 3.86394 66.7603 2.48602 65.066 2.48602H56.9271L56.9262 17.5045ZM38.6436 17.5045H54.4617V2.48511H38.6436V17.5045ZM20.361 17.5045H36.1791V2.48511H20.361V17.5045ZM2.51888 14.3942C2.51888 16.1061 3.90543 17.5045 5.60065 17.5045H17.8975V2.48511H5.60065C3.90543 2.48511 2.51888 3.88629 2.51888 5.59822V14.3942Z" fill="#1B1B35"/>
</g>
</svg>
