<svg width="130" height="73" viewBox="0 0 130 73" fill="none" xmlns="http://www.w3.org/2000/svg">
<g id="Group">
<path id="Vector" d="M100.899 48.8672C107.519 48.8672 112.885 54.2667 112.885 60.9325C112.885 67.5999 107.519 72.9995 100.899 72.9995C94.2752 72.9995 88.9109 67.5999 88.9109 60.9325C88.9125 54.2667 94.2752 48.8672 100.899 48.8672ZM100.899 66.1785C103.775 66.1785 106.107 63.8336 106.107 60.9325C106.107 58.0346 103.775 55.6898 100.899 55.6898C98.0206 55.6898 95.6885 58.0346 95.6885 60.9325C95.6885 63.8336 98.0206 66.1785 100.899 66.1785Z" fill="#1B1B35"/>
<path id="Vector_2" d="M30.537 48.8672C37.1556 48.8672 42.5215 54.2667 42.5215 60.9325C42.5215 67.5999 37.1556 72.9995 30.537 72.9995C23.9135 72.9995 18.5508 67.5999 18.5508 60.9325C18.5508 54.2667 23.9135 48.8672 30.537 48.8672ZM30.537 66.1785C33.4135 66.1785 35.7455 63.8336 35.7455 60.9325C35.7455 58.0346 33.4135 55.6898 30.537 55.6898C27.6573 55.6898 25.3252 58.0346 25.3252 60.9325C25.3252 63.8336 27.6573 66.1785 30.537 66.1785Z" fill="#1B1B35"/>
<path id="Vector_3" d="M7.65985 -0.000488281H115.174C119.114 -0.000488281 122.979 3.18038 123.768 7.06631L128.066 22.8623C128.854 26.7467 129.5 33.1698 129.5 37.135V53.7218C129.5 57.687 126.277 60.9325 122.339 60.9325H115.034C115.034 53.0863 108.695 46.7019 100.901 46.7019C93.1064 46.7019 86.7655 53.0847 86.7655 60.9325H44.6703C44.6703 53.0863 38.3295 46.7019 30.5368 46.7019C22.7409 46.7019 16.4001 53.0847 16.4001 60.9325H7.65985C3.72176 60.9325 0.5 57.687 0.5 53.7218V7.2119C0.5 3.2451 3.72176 -0.000488281 7.65985 -0.000488281ZM99.7362 30.424H116.427L113.783 24.1188C113.322 23.0175 113.833 21.7514 114.928 21.2873C116.022 20.8183 117.283 21.3342 117.74 22.437L121.022 30.2574C123.238 29.672 124.584 27.5859 124.129 25.1117L120.275 9.63915C119.737 6.7154 116.879 4.32045 113.926 4.32045H99.7378L99.7362 30.424ZM67.8653 30.424H95.4399V4.31887H67.8653V30.424ZM35.9942 30.424H63.569V4.31887H35.9942V30.424ZM4.89103 25.018C4.89103 27.9935 7.30813 30.424 10.2633 30.424H31.6996V4.31887H10.2633C7.30813 4.31887 4.89103 6.75426 4.89103 9.72976V25.018Z" fill="#1B1B35"/>
</g>
</svg>
