<svg width="51" height="50" viewBox="0 0 51 50" fill="none" xmlns="http://www.w3.org/2000/svg">
<g id="Component 2">
<path id="Vector" d="M29.666 43.75H25.4993C20.897 43.75 17.166 40.019 17.166 35.4167V14.5833C17.166 9.98096 20.897 6.25 25.4993 6.25H37.9993C42.6017 6.25 46.3327 9.98096 46.3327 14.5833V29.1667M4.66602 14.5833H10.916M25.4993 14.5833H37.9993M25.4993 22.9167H37.9993M25.4993 31.25H31.7493M33.8327 39.5833L37.4844 42.5047C38.355 43.2012 39.6196 43.0888 40.3537 42.2498L46.3327 35.4167M7.79102 43.75L9.24935 41.8056C10.3312 40.3631 10.916 38.6086 10.916 36.8056V9.375C10.916 7.64911 9.51691 6.25 7.79102 6.25C6.06513 6.25 4.66602 7.64911 4.66602 9.375V36.8056C4.66602 38.6086 5.25083 40.3631 6.33268 41.8056L7.79102 43.75Z" stroke="#1B1B35" stroke-width="1.5" stroke-linecap="round" stroke-linejoin="round"/>
</g>
</svg>
