<svg width="143" height="43" viewBox="0 0 143 43" fill="none" xmlns="http://www.w3.org/2000/svg">
<g id="Group">
<g id="Group_2">
<path id="Vector" d="M0.499752 24.593H55.2783V34.3454H0.499752V24.593Z" fill="#1B1B35"/>
<path id="Vector_2" d="M112.962 24.5929V6.3543V3.1233V2.41392C112.962 1.18088 114.102 0 115.309 0H115.463C115.504 0 115.541 0.00975208 115.581 0.0122962L115.592 0C115.592 0 125.383 0 133.755 0C136.38 0 137.403 1.92461 138.354 3.35524C140.369 6.38483 142.427 11.6554 142.461 17.0501L142.466 17.0103L142.5 34.3453H131.761H129.851H57.3538V24.5929H112.962Z" fill="#1B1B35"/>
<path id="Vector_3" d="M115.038 2.12012V12.6573C115.038 12.6573 122.171 16.256 140.67 18.7793C140.67 18.7793 140.487 6.36028 134.416 2.12012H115.038Z" fill="white"/>
<g id="Group_3">
<path id="Vector_4" d="M121.288 42.0001C117.397 42.0001 114.243 38.7776 114.243 34.8024C114.243 30.8272 117.397 27.6047 121.288 27.6047C125.178 27.6047 128.332 30.8272 128.332 34.8024C128.332 38.7776 125.178 42.0001 121.288 42.0001Z" fill="#1B1B35" stroke="white" stroke-width="2" stroke-miterlimit="10"/>
<g id="Group_4">
<path id="Vector_5" d="M121.169 39.4765C118.642 39.4123 116.646 37.2675 116.709 34.686C116.773 32.1045 118.872 30.0639 121.399 30.1281C123.925 30.1923 125.922 32.3371 125.859 34.9186C125.795 37.5001 123.695 39.5407 121.169 39.4765Z" fill="white"/>
<path id="Vector_6" d="M119.951 34.8022C119.951 35.5561 120.55 36.168 121.288 36.168C122.026 36.168 122.625 35.5565 122.625 34.8022C122.625 34.0479 122.026 33.436 121.288 33.436C120.55 33.4356 119.951 34.0475 119.951 34.8022Z" fill="white" stroke="#1B1B35" stroke-width="2" stroke-miterlimit="10"/>
</g>
</g>
<g id="Group_5">
<path id="Vector_7" d="M61.5043 34.8024C61.5043 38.7771 64.6582 42.0001 68.5487 42.0001C72.4393 42.0001 75.5928 38.7771 75.5928 34.8024C75.5928 30.8268 72.4393 27.6047 68.5487 27.6047C64.6582 27.6047 61.5043 30.8268 61.5043 34.8024Z" fill="#1B1B35" stroke="white" stroke-width="2" stroke-miterlimit="10"/>
<g id="Group_6">
<path id="Vector_8" d="M63.9742 34.8021C63.9742 37.3844 66.0234 39.4777 68.5499 39.4777C71.0772 39.4777 73.126 37.3844 73.126 34.8021C73.126 32.2198 71.0767 30.1265 68.5499 30.1265C66.0234 30.1265 63.9742 32.2194 63.9742 34.8021Z" fill="white"/>
<path id="Vector_9" d="M67.2125 34.8022C67.2125 35.5561 67.8109 36.168 68.5496 36.168C69.2875 36.168 69.8867 35.5565 69.8867 34.8022C69.8867 34.0479 69.2879 33.436 68.5496 33.436C67.8109 33.4356 67.2125 34.0475 67.2125 34.8022Z" fill="white" stroke="#1B1B35" stroke-width="2" stroke-miterlimit="10"/>
</g>
</g>
<g id="Group_7">
<path id="Vector_10" d="M78.0713 34.8024C78.0713 38.7771 81.2256 42.0001 85.1161 42.0001C89.0063 42.0001 92.1602 38.7771 92.1602 34.8024C92.1602 30.8268 89.0063 27.6047 85.1161 27.6047C81.2252 27.6043 78.0713 30.8268 78.0713 34.8024Z" fill="#1B1B35" stroke="white" stroke-width="2" stroke-miterlimit="10"/>
<g id="Group_8">
<path id="Vector_11" d="M80.5396 34.8023C80.5396 37.3846 82.5889 39.478 85.1153 39.478C87.6426 39.478 89.6914 37.3846 89.6914 34.8023C89.6914 32.2201 87.6422 30.1267 85.1153 30.1267C82.5884 30.1267 80.5396 32.2197 80.5396 34.8023Z" fill="white"/>
<path id="Vector_12" d="M83.7794 34.8025C83.7794 35.5564 84.3778 36.1682 85.1165 36.1682C85.8551 36.1682 86.4531 35.5568 86.4531 34.8025C86.4531 34.0481 85.8551 33.4363 85.1165 33.4363C84.3778 33.4363 83.7794 34.0477 83.7794 34.8025Z" fill="white" stroke="#1B1B35" stroke-width="2" stroke-miterlimit="10"/>
</g>
</g>
<g id="Group_9">
<path id="Vector_13" d="M3.95408 34.8024C3.95408 38.7771 7.10842 42.0001 10.9989 42.0001C14.8891 42.0001 18.043 38.7771 18.043 34.8024C18.043 30.8268 14.8891 27.6047 10.9989 27.6047C7.10842 27.6043 3.95408 30.8268 3.95408 34.8024Z" fill="#1B1B35" stroke="white" stroke-width="2" stroke-miterlimit="10"/>
<g id="Group_10">
<path id="Vector_14" d="M6.42147 34.8023C6.42147 37.3846 8.47029 39.478 10.9976 39.478C13.524 39.478 15.5732 37.3846 15.5732 34.8023C15.5732 32.2201 13.524 30.1267 10.9976 30.1267C8.47029 30.1267 6.42147 32.2197 6.42147 34.8023Z" fill="white"/>
<path id="Vector_15" d="M9.65967 34.8025C9.65967 35.5564 10.2581 36.1682 10.9968 36.1682C11.7346 36.1682 12.333 35.5568 12.333 34.8025C12.333 34.0481 11.7346 33.4363 10.9968 33.4363C10.2581 33.4359 9.65967 34.0477 9.65967 34.8025Z" fill="white" stroke="#1B1B35" stroke-width="2" stroke-miterlimit="10"/>
</g>
</g>
<g id="Group_11">
<path id="Vector_16" d="M20.5195 34.8024C20.5195 38.7771 23.6743 42.0001 27.5644 42.0001C31.4549 42.0001 34.6084 38.7771 34.6084 34.8024C34.6084 30.8268 31.4549 27.6047 27.5644 27.6047C23.6743 27.6043 20.5195 30.8268 20.5195 34.8024Z" fill="#1B1B35" stroke="white" stroke-width="2" stroke-miterlimit="10"/>
<g id="Group_12">
<path id="Vector_17" d="M22.9879 34.8023C22.9879 37.3846 25.0371 39.478 27.564 39.478C30.0913 39.478 32.1396 37.3846 32.1396 34.8023C32.1396 32.2201 30.0913 30.1267 27.564 30.1267C25.0375 30.1267 22.9879 32.2197 22.9879 34.8023Z" fill="white"/>
<path id="Vector_18" d="M26.2262 34.8025C26.2262 35.5564 26.8246 36.1682 27.5633 36.1682C28.3016 36.1682 28.9004 35.5568 28.9004 34.8025C28.9004 34.0481 28.302 33.4363 27.5633 33.4363C26.8246 33.4359 26.2262 34.0477 26.2262 34.8025Z" fill="white" stroke="#1B1B35" stroke-width="2" stroke-miterlimit="10"/>
</g>
</g>
</g>
<path id="Vector_19" d="M138.223 30.9531C137.715 30.9531 137.304 31.2822 137.304 31.8012C137.304 32.3193 137.715 32.6492 138.223 32.6492H139.997C140.505 32.6492 140.917 32.3193 140.917 31.8012C140.917 31.2822 140.505 30.9531 139.997 30.9531H138.223Z" fill="white"/>
<path id="Vector_20" d="M51.1608 30.9531C50.6524 30.9531 50.2412 31.2822 50.2412 31.8012C50.2412 32.3193 50.6524 32.6492 51.1608 32.6492H52.934C53.4424 32.6492 53.8545 32.3193 53.8545 31.8012C53.8545 31.2822 53.4424 30.9531 52.934 30.9531H51.1608Z" fill="white"/>
<path id="Vector_21" d="M2.46355 25.865C1.95518 25.865 1.54393 26.194 1.54393 26.713C1.54393 27.2307 1.95518 27.5611 2.46355 27.5611H4.2368C4.74516 27.5611 5.15723 27.2307 5.15723 26.713C5.15723 26.194 4.74516 25.865 4.2368 25.865H2.46355Z" fill="white"/>
<path id="Vector_22" d="M122.922 1.69604H124.167V15.6886H122.922V1.69604Z" fill="#1B1B35"/>
<path id="Vector_23" d="M59.456 0H108.521C109.539 0 110.473 1.04944 110.473 2.08998V8.87466V17.921V22.4728H57.354V17.921V8.87466V2.08998C57.354 1.04944 58.4367 0 59.456 0Z" fill="#1B1B35"/>
<path id="Vector_24" d="M1.90533 0H53.5524C54.5712 0 55.2783 1.04944 55.2783 2.08998V8.87466V17.921V22.4728H0.499752V17.921V8.87466V2.08998C0.499752 1.04944 0.886532 0 1.90533 0Z" fill="#1B1B35"/>
</g>
</svg>
