<svg width="252" height="74" viewBox="0 0 252 74" fill="none" xmlns="http://www.w3.org/2000/svg">
<g id="Group">
<g id="Group_2">
<path id="Vector" d="M0.000114441 42.7449H97.2129V59.6954H0.000114441V42.7449Z" fill="#1B1B35"/>
<path id="Vector_2" d="M199.581 42.7448V11.0444V5.42859V4.19562C199.581 2.05249 201.603 0 203.745 0H204.019C204.091 0 204.158 0.01695 204.229 0.0213719L204.248 0C204.248 0 221.623 0 236.481 0C241.139 0 242.954 3.34515 244.643 5.83172C248.218 11.0974 251.87 20.2581 251.931 29.6347L251.939 29.5654L252 59.6953H232.943H229.553H100.895V42.7448H199.581Z" fill="#1B1B35"/>
<path id="Vector_3" d="M203.264 3.68481V21.9995C203.264 21.9995 215.923 28.2542 248.752 32.64C248.752 32.64 248.427 11.0546 237.653 3.68481H203.264Z" fill="white"/>
<g id="Group_3">
<path id="Vector_4" d="M214.356 72.9999C207.452 72.9999 201.855 67.3989 201.855 60.4897C201.855 53.5805 207.452 47.9795 214.356 47.9795C221.26 47.9795 226.857 53.5805 226.857 60.4897C226.857 67.3989 221.26 72.9999 214.356 72.9999Z" fill="#1B1B35" stroke="white" stroke-width="2" stroke-miterlimit="10"/>
<g id="Group_4">
<path id="Vector_5" d="M214.147 68.6129C209.664 68.5007 206.12 64.7724 206.232 60.2855C206.344 55.7986 210.07 52.2523 214.553 52.3645C219.037 52.4767 222.581 56.205 222.469 60.6919C222.357 65.1788 218.631 68.7251 214.147 68.6129Z" fill="white"/>
<path id="Vector_6" d="M211.983 60.4898C211.983 61.8001 213.045 62.8636 214.356 62.8636C215.665 62.8636 216.729 61.8009 216.729 60.4898C216.729 59.1787 215.666 58.1152 214.356 58.1152C213.045 58.1145 211.983 59.178 211.983 60.4898Z" fill="white" stroke="#1B1B35" stroke-width="2" stroke-miterlimit="10"/>
</g>
</g>
<g id="Group_5">
<path id="Vector_7" d="M108.261 60.4897C108.261 67.3982 113.858 72.9999 120.762 72.9999C127.666 72.9999 133.263 67.3982 133.263 60.4897C133.263 53.5798 127.666 47.9795 120.762 47.9795C113.858 47.9795 108.261 53.5798 108.261 60.4897Z" fill="#1B1B35" stroke="white" stroke-width="2" stroke-miterlimit="10"/>
<g id="Group_6">
<path id="Vector_8" d="M112.642 60.4897C112.642 64.9779 116.278 68.6164 120.762 68.6164C125.247 68.6164 128.883 64.9779 128.883 60.4897C128.883 56.0015 125.246 52.363 120.762 52.363C116.278 52.363 112.642 56.0008 112.642 60.4897Z" fill="white"/>
<path id="Vector_9" d="M118.389 60.4898C118.389 61.8001 119.451 62.8636 120.762 62.8636C122.071 62.8636 123.135 61.8009 123.135 60.4898C123.135 59.1787 122.072 58.1152 120.762 58.1152C119.451 58.1145 118.389 59.178 118.389 60.4898Z" fill="white" stroke="#1B1B35" stroke-width="2" stroke-miterlimit="10"/>
</g>
</g>
<g id="Group_7">
<path id="Vector_10" d="M137.662 60.4897C137.662 67.3982 143.26 72.9999 150.164 72.9999C157.068 72.9999 162.665 67.3982 162.665 60.4897C162.665 53.5798 157.068 47.9795 150.164 47.9795C143.259 47.9788 137.662 53.5798 137.662 60.4897Z" fill="#1B1B35" stroke="white" stroke-width="2" stroke-miterlimit="10"/>
<g id="Group_8">
<path id="Vector_11" d="M142.043 60.4897C142.043 64.9779 145.68 68.6164 150.163 68.6164C154.648 68.6164 158.284 64.9779 158.284 60.4897C158.284 56.0015 154.648 52.363 150.163 52.363C145.679 52.363 142.043 56.0008 142.043 60.4897Z" fill="white"/>
<path id="Vector_12" d="M147.791 60.4898C147.791 61.8001 148.853 62.8636 150.164 62.8636C151.475 62.8636 152.536 61.8009 152.536 60.4898C152.536 59.1787 151.475 58.1152 150.164 58.1152C148.853 58.1152 147.791 59.178 147.791 60.4898Z" fill="white" stroke="#1B1B35" stroke-width="2" stroke-miterlimit="10"/>
</g>
</g>
<g id="Group_9">
<path id="Vector_13" d="M6.12997 60.4897C6.12997 67.3982 11.7278 72.9999 18.6321 72.9999C25.5357 72.9999 31.1328 67.3982 31.1328 60.4897C31.1328 53.5798 25.5357 47.9795 18.6321 47.9795C11.7278 47.9788 6.12997 53.5798 6.12997 60.4897Z" fill="#1B1B35" stroke="white" stroke-width="2" stroke-miterlimit="10"/>
<g id="Group_10">
<path id="Vector_14" d="M10.5108 60.4897C10.5108 64.9779 14.1467 68.6164 18.6317 68.6164C23.1153 68.6164 26.752 64.9779 26.752 60.4897C26.752 56.0015 23.1153 52.363 18.6317 52.363C14.1467 52.363 10.5108 56.0008 10.5108 60.4897Z" fill="white"/>
<path id="Vector_15" d="M16.2587 60.4898C16.2587 61.8001 17.3206 62.8636 18.6315 62.8636C19.941 62.8636 21.0029 61.8009 21.0029 60.4898C21.0029 59.1787 19.941 58.1152 18.6315 58.1152C17.3206 58.1145 16.2587 59.178 16.2587 60.4898Z" fill="white" stroke="#1B1B35" stroke-width="2" stroke-miterlimit="10"/>
</g>
</g>
<g id="Group_11">
<path id="Vector_16" d="M35.5313 60.4897C35.5313 67.3982 41.1299 72.9999 48.0335 72.9999C54.9378 72.9999 60.5342 67.3982 60.5342 60.4897C60.5342 53.5798 54.9378 47.9795 48.0335 47.9795C41.1299 47.9788 35.5313 53.5798 35.5313 60.4897Z" fill="#1B1B35" stroke="white" stroke-width="2" stroke-miterlimit="10"/>
<g id="Group_12">
<path id="Vector_17" d="M39.9121 60.4897C39.9121 64.9779 43.5488 68.6164 48.0331 68.6164C52.5182 68.6164 56.1533 64.9779 56.1533 60.4897C56.1533 56.0015 52.5182 52.363 48.0331 52.363C43.5495 52.363 39.9121 56.0008 39.9121 60.4897Z" fill="white"/>
<path id="Vector_18" d="M45.6605 60.4898C45.6605 61.8001 46.7225 62.8636 48.0334 62.8636C49.3435 62.8636 50.4062 61.8009 50.4062 60.4898C50.4062 59.1787 49.3443 58.1152 48.0334 58.1152C46.7225 58.1145 45.6605 59.178 45.6605 60.4898Z" fill="white" stroke="#1B1B35" stroke-width="2" stroke-miterlimit="10"/>
</g>
</g>
</g>
<path id="Vector_19" d="M244.408 53.7996C243.507 53.7996 242.777 54.3715 242.777 55.2735C242.777 56.1741 243.507 56.7475 244.408 56.7475H247.556C248.457 56.7475 249.188 56.1741 249.188 55.2735C249.188 54.3715 248.457 53.7996 247.556 53.7996H244.408Z" fill="white"/>
<path id="Vector_20" d="M89.9032 53.7996C89.001 53.7996 88.2712 54.3715 88.2712 55.2735C88.2712 56.1741 89.001 56.7475 89.9032 56.7475H93.0501C93.9523 56.7475 94.6836 56.1741 94.6836 55.2735C94.6836 54.3715 93.9523 53.7996 93.0501 53.7996H89.9032Z" fill="white"/>
<path id="Vector_21" d="M3.48431 44.9558C2.58214 44.9558 1.85231 45.5277 1.85231 46.4298C1.85231 47.3296 2.58214 47.9037 3.48431 47.9037H6.63121C7.53338 47.9037 8.26465 47.3296 8.26465 46.4298C8.26465 45.5277 7.53338 44.9558 6.63121 44.9558H3.48431Z" fill="white"/>
<path id="Vector_22" d="M217.255 2.948H219.465V27.2683H217.255V2.948Z" fill="#1B1B35"/>
<path id="Vector_23" d="M104.625 0H191.698C193.506 0 195.162 1.82402 195.162 3.63257V15.425V31.1484V39.0599H100.895V31.1484V15.425V3.63257C100.895 1.82402 102.817 0 104.625 0Z" fill="#1B1B35"/>
<path id="Vector_24" d="M2.49452 0H94.15C95.958 0 97.2129 1.82402 97.2129 3.63257V15.425V31.1484V39.0599H0.000114441V31.1484V15.425V3.63257C0.000114441 1.82402 0.686508 0 2.49452 0Z" fill="#1B1B35"/>
</g>
</svg>
