<svg width="50" height="50" viewBox="0 0 50 50" fill="none" xmlns="http://www.w3.org/2000/svg">
<g id="UniqIcons/interface/outline/focus">
<path id="Vector" d="M34.2596 4.1665H37.5003C42.1027 4.1665 45.8337 7.89746 45.8337 12.4998V15.7406M15.7411 4.1665H12.5003C7.89795 4.1665 4.16699 7.89746 4.16699 12.4998V15.7406M45.8337 34.2591V37.4998C45.8337 42.1022 42.1027 45.8332 37.5003 45.8332H34.2596M15.7411 45.8332H12.5003C7.89795 45.8332 4.16699 42.1022 4.16699 37.4998V34.2591M35.417 24.9998C35.417 30.7528 30.7533 35.4165 25.0003 35.4165C19.2474 35.4165 14.5837 30.7528 14.5837 24.9998C14.5837 19.2469 19.2474 14.5832 25.0003 14.5832C30.7533 14.5832 35.417 19.2469 35.417 24.9998Z" stroke="white" stroke-width="4" stroke-linecap="round"/>
</g>
</svg>
