<svg width="93" height="125" viewBox="0 0 93 125" fill="none" xmlns="http://www.w3.org/2000/svg">
<g filter="url(#filter0_f_24_337)">
<path d="M32.0211 35.6816L17.4033 101.363L65.6153 92.0419L80.233 26.3609L32.0211 35.6816ZM65.3872 83.633C65.1555 84.0226 64.8269 84.2934 64.5253 84.3516L22.1627 92.5411C21.8596 92.6002 21.6281 92.4374 21.557 92.1055C21.4837 91.7839 21.5827 91.3413 21.8144 90.9517L54.1207 36.8841C54.3523 36.4945 54.681 36.2237 54.9826 36.1655C55.2856 36.1065 55.5171 36.2693 55.5883 36.6011L65.6445 82.4792C65.7148 82.8093 65.6155 83.2532 65.3872 83.633Z" fill="#0052A5"/>
<path d="M82.2764 19.6166C84.1663 19.2068 85.2081 21.006 84.6067 23.6271L68.9324 91.9699C68.3309 94.591 66.3118 97.0548 64.4218 97.4646L15.3488 108.108C13.4668 108.517 12.425 106.717 13.0253 104.096L28.6996 35.7531C29.301 33.1321 31.3202 30.6683 33.2022 30.26L82.2764 19.6166ZM65.0121 91.8326L80.2095 25.5692L32.6234 35.8917L17.4261 102.155L65.0121 91.8326ZM65.1571 82.2252L55.8162 36.3439C55.7502 36.012 55.524 35.8544 55.2251 35.9184C54.9259 35.9837 54.6005 36.2615 54.3677 36.6574L21.8948 91.6081C21.662 92.0041 21.5599 92.4523 21.6272 92.7722C21.6933 93.1041 21.9194 93.2617 22.2183 93.1977L64.032 84.1282C64.3312 84.0629 64.6566 83.7852 64.8895 83.3892C65.1198 83.0049 65.2231 82.5571 65.1571 82.2252ZM49.8449 48.5494C50.4552 47.1812 51.5136 46.16 52.4506 45.9566C52.6818 45.9071 52.905 45.9061 53.1136 45.9624C54.157 46.24 54.3982 47.8474 53.6359 49.5655C53.0287 50.943 51.9696 51.9613 51.0302 52.1639C50.8003 52.2138 50.5782 52.2152 50.3718 52.161C49.324 51.8737 49.0897 50.2643 49.8449 48.5494ZM35.6192 87.0324L32.7139 87.6622L36.5245 80.916L38.235 80.5453L35.6192 87.0324ZM42.4599 85.5482L44.4857 79.1891L46.1961 78.8185L45.3652 84.9185L42.4599 85.5482ZM54.4884 65.0622C54.3946 65.3473 53.1352 66.3245 53.0076 66.3521C52.8902 66.3679 54.159 59.6298 54.135 59.5167C54.1168 59.4414 53.084 58.2826 52.6374 57.8753C52.1963 60.4811 51.6984 63.4246 51.3902 64.7672C51.1349 65.88 50.0477 67.3271 49.9908 67.4034C50.02 68.0506 50.5621 80.3528 50.3906 81.1026C50.2216 81.8407 48.7989 83.9866 48.2262 84.3001C47.9432 84.3612 47.4558 77.258 47.0409 70.1778C45.8531 71.8288 44.5778 73.6758 44.1853 74.5822C43.7974 75.4666 40.1854 85.1831 39.9458 85.5809C39.9053 85.6461 39.7857 85.6957 39.6247 85.7314C39.1076 85.8438 38.1579 85.8038 37.9751 85.6331C37.8338 85.5054 41.3608 75.4216 41.7716 74.2158C42.2723 72.743 45.1801 67.3703 46.7844 65.6976C47.2385 63.3159 47.6643 61.1197 48.0099 59.3348C47.3367 60.321 46.5872 62.1333 46.3427 62.3939C45.9825 62.7692 41.3261 65.4441 40.8594 65.5402C40.7011 65.4565 39.9694 64.6271 39.967 64.4783C39.9632 64.3415 45.0682 61.0197 45.2033 60.8619C45.3608 60.6702 48.8076 54.8151 48.9887 54.5068C49.718 53.3293 50.857 52.5896 51.8113 52.3823C52.4202 52.2497 52.9545 52.3353 53.2576 52.6612C53.4063 52.837 56.2213 56.1685 56.4099 57.4818C56.4889 57.9784 54.6221 64.6675 54.4884 65.0622ZM52.2127 83.4324L52.4468 77.4622L54.164 77.0897L55.118 82.8027L52.2127 83.4324Z" fill="url(#paint0_linear_24_337)"/>
<path d="M50.301 52.229C49.2498 51.9425 49.0148 50.3308 49.7726 48.612C50.3847 47.2417 51.4463 46.2189 52.3861 46.0152C52.6179 45.9657 52.8431 45.9651 53.051 46.0211C54.0976 46.2991 54.3395 47.9089 53.5752 49.6283C52.9662 51.0079 51.9039 52.0277 50.9617 52.2306C50.7317 52.2836 50.509 52.285 50.301 52.229ZM42.3651 85.6678L45.2791 85.0371L46.1125 78.9279L44.3969 79.2991L42.3651 85.6678ZM35.5038 87.1542L38.1274 80.6574L36.4119 81.0286L32.5898 87.7849L35.5038 87.1542ZM53.1967 52.7303C52.8915 52.4036 52.3567 52.3182 51.7461 52.451C50.7889 52.6586 49.6464 53.3994 48.915 54.5787C48.7333 54.8874 45.2765 60.7501 45.1182 60.9434C44.9827 61.1015 39.8626 64.427 39.8661 64.5652C39.8674 64.7138 40.6028 65.5437 40.7908 65.6276C41.2294 65.5325 45.8997 62.8536 46.261 62.4778C46.5062 62.2167 47.258 60.4017 47.9332 59.414C47.5865 61.2016 47.1594 63.4011 46.7041 65.7864C45.0951 67.4603 42.1796 72.8428 41.6761 74.3174C41.2641 75.525 37.7265 85.624 37.8683 85.7519C38.0516 85.9228 39.0042 85.9629 39.5228 85.8504C39.6855 85.815 39.8042 85.7649 39.8449 85.6996C40.0852 85.3012 43.7096 75.5692 44.0971 74.6843C44.4905 73.7779 45.7699 71.9268 46.9613 70.2733C47.3775 77.3642 47.8651 84.4777 48.1545 84.4142C48.7245 84.1029 50.1504 81.9535 50.3199 81.2142C50.4916 80.4646 49.9478 68.1438 49.9189 67.4943C49.9759 67.4179 51.0664 65.9687 51.3225 64.8542C51.6314 63.5108 52.1311 60.5617 52.5734 57.9519C53.0202 58.3594 54.057 59.5217 54.0755 59.5957C54.0996 59.7091 52.827 66.4573 52.9474 66.441C53.0728 66.4138 54.3359 65.4352 54.43 65.1497C54.5641 64.7544 56.4368 58.0539 56.3587 57.5569C56.1705 56.2433 53.3459 52.9064 53.1967 52.7303ZM52.382 77.5696L52.1472 83.5488L55.0612 82.9181L54.1043 77.1966L52.382 77.5696Z" fill="url(#paint1_linear_24_337)"/>
<path d="M84.003 20.0552L83.9998 20.0527L84.001 20.0531L84.003 20.0552C83.4534 19.6175 80.1813 17.0065 79.7755 16.6835C79.2981 16.3046 78.7035 16.2496 78.1499 16.3701L29.1406 27.0063C27.1509 27.4381 25.1843 30.1408 24.6438 32.4956L8.98989 100.79C8.70866 102.019 8.71766 103.709 9.68888 104.485L13.9132 107.854C12.9387 107.076 12.9327 105.39 13.2142 104.159L28.8681 35.8649C29.5031 33.0969 31.6403 30.7515 33.3649 30.3756L82.3742 19.7394C82.9198 19.6204 83.5292 19.6775 84.003 20.0552Z" fill="url(#paint2_linear_24_337)"/>
</g>
<defs>
<filter id="filter0_f_24_337" x="0.830078" y="8.31305" width="91.9473" height="107.853" filterUnits="userSpaceOnUse" color-interpolation-filters="sRGB">
<feFlood flood-opacity="0" result="BackgroundImageFix"/>
<feBlend mode="normal" in="SourceGraphic" in2="BackgroundImageFix" result="shape"/>
<feGaussianBlur stdDeviation="4" result="effect1_foregroundBlur_24_337"/>
</filter>
<linearGradient id="paint0_linear_24_337" x1="37.694" y1="115.959" x2="71.4273" y2="15.6293" gradientUnits="userSpaceOnUse">
<stop stop-color="white"/>
<stop offset="1" stop-color="#D6E6EE"/>
</linearGradient>
<linearGradient id="paint1_linear_24_337" x1="42.5876" y1="91.1412" x2="57.2612" y2="47.4338" gradientUnits="userSpaceOnUse">
<stop stop-color="#274158"/>
<stop offset="0.4181" stop-color="#1F3144"/>
<stop offset="0.9949" stop-color="#121622"/>
</linearGradient>
<linearGradient id="paint2_linear_24_337" x1="34.871" y1="114.904" x2="69.1525" y2="13.0052" gradientUnits="userSpaceOnUse">
<stop stop-color="#81879C"/>
<stop offset="1" stop-color="#B7BEC1"/>
</linearGradient>
</defs>
</svg>
