<svg width="24" height="24" viewBox="0 0 24 24" fill="none" xmlns="http://www.w3.org/2000/svg">
<g id="Component 8">
<path id="Vector 301" d="M21 17.9865V9.91558C21 8.67704 20.4301 7.50788 19.4558 6.74749L14.4558 2.84544C13.0113 1.71819 10.9887 1.71819 9.54424 2.84544L4.54424 6.74749C3.56989 7.50788 3 8.67704 3 9.91558V17.9865C3 20.2031 4.79086 22 7 22H17C19.2091 22 21 20.2031 21 17.9865Z" stroke="white" stroke-width="1.5" stroke-linejoin="round"/>
<g id="Vector">
<path d="M16.3047 15.8012C16.3047 18.0836 14.1524 22 12 22C9.84766 22 7.69531 18.0836 7.69531 15.8012C7.69531 13.5189 9.62259 11.6687 12 11.6687C14.3774 11.6687 16.3047 13.5189 16.3047 15.8012Z" stroke="white" stroke-width="1.5"/>
<path d="M13.2914 15.543C13.2914 16.2562 12.7132 16.8344 12 16.8344C11.2868 16.8344 10.7086 16.2562 10.7086 15.543C10.7086 14.8297 11.2868 14.2515 12 14.2515C12.7132 14.2515 13.2914 14.8297 13.2914 15.543Z" stroke="white" stroke-width="1.5"/>
</g>
</g>
</svg>
