<svg width="51" height="50" viewBox="0 0 51 50" fill="none" xmlns="http://www.w3.org/2000/svg">
<g id="Component 2">
<path id="Vector" d="M17.166 37.5H33.8327M17.166 37.5C17.166 42.1024 20.897 45.8334 25.4994 45.8334C30.1017 45.8334 33.8327 42.1024 33.8327 37.5M17.166 37.5V32.8932C17.166 31.5311 16.4714 30.284 15.4817 29.3482C12.6702 26.6898 10.916 22.9248 10.916 18.75C10.916 10.6959 17.4452 4.16669 25.4994 4.16669C33.5535 4.16669 40.0827 10.6959 40.0827 18.75C40.0827 22.9248 38.3285 26.6898 35.517 29.3482C34.5273 30.284 33.8327 31.5311 33.8327 32.8932V37.5M21.3327 18.75L25.4994 22.9167M25.4994 22.9167L29.666 18.75M25.4994 22.9167V37.5" stroke="#1B1B35" stroke-width="1.5" stroke-linecap="round" stroke-linejoin="round"/>
</g>
</svg>
