<svg width="50" height="50" viewBox="0 0 50 50" fill="none" xmlns="http://www.w3.org/2000/svg">
<g id="Component 2">
<path id="Vector" d="M32.8571 28.6905C37.803 31.155 41.6667 36.7708 41.6667 43.75V47.9166H8.33333V43.75C8.33333 36.7625 12.2074 31.1384 17.1429 28.6905M36.7857 16.0714C37.2399 17.3756 37.2979 17.2896 37.2979 18.7521C37.2979 25.6541 31.7917 31.25 25 31.25C18.2042 31.25 12.6937 25.6541 12.6937 18.7521C12.6937 17.3187 12.7768 17.3527 13.2143 16.0714M12.5 16.6666H37.5L43.75 8.33331C39.7667 4.71873 32.8958 2.08331 25 2.08331C17.0083 2.08331 10.0667 4.78331 6.25 8.33331L12.5 16.6666ZM25 10.4166C25.5525 10.4166 26.0824 10.1972 26.4731 9.80645C26.8638 9.41575 27.0833 8.88585 27.0833 8.33331H22.9167C22.9167 8.88585 23.1362 9.41575 23.5269 9.80645C23.9176 10.1972 24.4475 10.4166 25 10.4166Z" stroke="black" stroke-width="1.5"/>
</g>
</svg>
