<svg width="40" height="40" viewBox="0 0 40 40" fill="none" xmlns="http://www.w3.org/2000/svg">
<g id="Component 4">
<path id="Ellipse 440" d="M36.6667 20C36.6667 10.7953 29.2047 3.33337 20 3.33337" stroke="white" stroke-width="2" stroke-linecap="round"/>
<path id="Ellipse 439" d="M36.6663 20C36.6663 29.2048 29.2044 36.6667 19.9997 36.6667C10.7949 36.6667 3.33301 29.2048 3.33301 20C3.33301 10.7953 10.7949 3.33337 19.9997 3.33337" stroke="white" stroke-width="2" stroke-linecap="round" stroke-linejoin="round" stroke-dasharray="0.5 3"/>
<path id="Ellipse 442" d="M22.5 20C22.5 21.3807 21.3807 22.5 20 22.5C18.6193 22.5 17.5 21.3807 17.5 20C17.5 18.6193 18.6193 17.5 20 17.5C21.3807 17.5 22.5 18.6193 22.5 20Z" stroke="white" stroke-width="2"/>
<path id="Vector 1133" d="M22.5003 20H26.667M20.0003 10V17.5" stroke="white" stroke-width="2" stroke-linecap="round" stroke-linejoin="round"/>
</g>
</svg>
