<svg width="141" height="182" viewBox="0 0 141 182" fill="none" xmlns="http://www.w3.org/2000/svg">
<g filter="url(#filter0_f_24_343)">
<path d="M81.8398 52.2896C84.7474 47.1656 87.7377 46.663 90.2992 52.1597C93.0383 58.0389 92.3377 64.0406 89.7287 68.6417L88.3762 71.0241L92.5189 79.9174L90.316 83.8017L78.4333 58.2962L81.8398 52.2896ZM87.8584 65.2792C89.3336 62.6793 89.7323 59.9652 87.9916 56.2271C86.4973 53.022 84.993 53.2396 83.4872 55.894L82.3023 57.9835L86.6751 67.3676L87.8584 65.2792ZM71.0639 70.2673C74.1502 64.8272 78.3228 66.1394 82.2953 74.6651C86.2167 83.0815 86.5476 91.4393 83.4612 96.8794C80.3696 102.33 76.1835 101.04 72.2111 92.5144C68.3099 84.1398 67.9723 75.7177 71.0639 70.2673ZM81.7269 93.1547C83.4421 90.1298 83.1954 85.67 79.9741 78.7551C76.7966 71.9347 74.5385 70.9477 72.8046 74.0054C71.0826 77.0416 71.3353 81.564 74.5322 88.4244C77.7356 95.2982 80.0356 96.1364 81.7269 93.1547ZM51.8529 116.971C53.6576 120.846 55.7047 121.137 58.9046 118.526C61.2722 116.565 62.2046 116.684 63.2029 118.825C64.3536 121.293 64.0861 124.173 62.8534 126.348C61.6498 128.471 60.2669 129.169 58.6955 128.909L58.8637 133.853C60.7804 134.25 62.817 133.269 64.6564 130.026C67.4084 125.173 67.5203 119.067 65.3906 114.498C63.1539 109.696 60.8954 110.325 58.2157 112.488C55.6731 114.534 54.8484 114.523 53.9902 112.683C53.0558 110.678 53.3319 108.328 54.3634 106.511C55.3201 104.825 56.4267 104.065 57.9479 104.218L57.7611 99.4279C55.8142 99.1828 54.1763 100.032 52.4917 103.003C50.2215 107.004 49.8779 112.73 51.8529 116.971ZM57.4622 95.2596L59.267 99.1337L62.3705 93.6618L72.4493 115.295L74.6709 111.378L64.5922 89.7446L67.5985 84.4461L66.0279 80.16L57.4622 95.2596ZM57.9319 16.631L37.1396 53.2826L37.5758 111.685L58.9845 157.639L88.8219 164.216L109.614 127.565L109.178 69.1619L87.7701 23.21L57.9319 16.631ZM105.051 71.6141L105.444 123.288L87.0469 155.717L60.6475 149.887L41.7104 109.241L41.3178 57.5668L59.7148 25.1382L86.1135 30.9706L105.051 71.6141Z" fill="url(#paint0_linear_24_343)"/>
<path d="M59.7159 25.1378L86.1147 30.9701L105.052 71.6165L105.444 123.291L87.0473 155.719L60.6486 149.887L41.7115 109.241L41.3188 57.5664L59.7159 25.1378ZM83.4623 96.8791C86.5487 91.439 86.2179 83.0811 82.2964 74.6648C78.3247 66.1407 74.1498 64.8279 71.065 70.2669C67.9734 75.7173 68.3109 84.1395 72.2137 92.5131C76.1838 101.038 80.3699 102.328 83.4623 96.8791ZM64.6575 130.026C67.4095 125.173 67.5214 119.067 65.3917 114.498C63.155 109.696 60.8965 110.325 58.2168 112.488C55.6742 114.534 54.8494 114.523 53.9913 112.683C53.0569 110.678 53.3329 108.328 54.3645 106.511C55.3212 104.825 56.4278 104.064 57.949 104.218L57.7622 99.4277C55.8153 99.1826 54.1781 100.034 52.4928 103.002C50.2218 107.007 49.8774 112.731 51.8532 116.974C53.658 120.848 55.705 121.14 58.9049 118.529C61.2726 116.567 62.2049 116.687 63.2033 118.828C64.354 121.296 64.0864 124.175 62.8537 126.351C61.6502 128.473 60.2672 129.172 58.6958 128.911L58.8641 133.856C60.7815 134.25 62.8189 133.266 64.6575 130.026ZM67.6004 84.4475L66.0298 80.1614L57.4641 95.2609L59.2689 99.1351L62.3724 93.6632L72.4512 115.296L74.6729 111.379L64.5941 89.746L67.6004 84.4475ZM89.7298 68.6414C92.3405 64.0392 93.0395 58.0385 90.3004 52.1593C87.7388 46.6626 84.7486 47.1652 81.841 52.2892L78.4337 58.2942L90.3164 83.7997L92.5193 79.9154L88.3766 71.0221L89.7298 68.6414ZM87.9927 56.2267C86.4984 53.0216 84.9941 53.2392 83.4883 55.8936L82.3034 57.9831L86.6763 67.3673L87.8611 65.2778C89.3347 62.6789 89.7335 59.9648 87.9927 56.2267ZM74.5325 88.4225C77.7344 95.2973 80.036 96.1345 81.7281 93.1544C83.4433 90.1295 83.1966 85.6697 79.9753 78.7548C76.7977 71.9343 74.5396 70.9473 72.8057 74.0051C71.0845 77.0385 71.3356 81.562 74.5325 88.4225Z" fill="url(#paint1_linear_24_343)"/>
<path d="M50.5403 17.5528L29.9263 53.9229L30.3586 111.881L37.4071 110.145L36.9747 52.1869L57.5887 15.8169L50.5403 17.5528Z" fill="#C8CFD3"/>
<path d="M60.5752 157.285L39.0109 111.092L31.8501 112.85L53.4145 159.044L83.468 165.653L90.6302 163.894L60.5752 157.285Z" fill="url(#paint2_linear_24_343)"/>
</g>
<defs>
<filter id="filter0_f_24_343" x="23.9263" y="9.81689" width="91.688" height="161.837" filterUnits="userSpaceOnUse" color-interpolation-filters="sRGB">
<feFlood flood-opacity="0" result="BackgroundImageFix"/>
<feBlend mode="normal" in="SourceGraphic" in2="BackgroundImageFix" result="shape"/>
<feGaussianBlur stdDeviation="3" result="effect1_foregroundBlur_24_343"/>
</filter>
<linearGradient id="paint0_linear_24_343" x1="104.097" y1="153.721" x2="25.3214" y2="39.0284" gradientUnits="userSpaceOnUse">
<stop stop-color="white"/>
<stop offset="1" stop-color="#D6E6EE"/>
</linearGradient>
<linearGradient id="paint1_linear_24_343" x1="100.563" y1="146.435" x2="30.8619" y2="44.9553" gradientUnits="userSpaceOnUse">
<stop stop-color="#BB1111"/>
<stop offset="1" stop-color="#FF3111"/>
</linearGradient>
<linearGradient id="paint2_linear_24_343" x1="77.559" y1="172.855" x2="34.9656" y2="110.715" gradientUnits="userSpaceOnUse">
<stop stop-color="#81879C"/>
<stop offset="1" stop-color="#B7BEC1"/>
</linearGradient>
</defs>
</svg>
