<svg width="50" height="50" viewBox="0 0 50 50" fill="none" xmlns="http://www.w3.org/2000/svg">
<g id="Component 2">
<path id="Vector 1624" d="M45.834 22.9167L45.834 27.0834" stroke="#1B1B35" stroke-width="1.5" stroke-linecap="round"/>
<path id="Vector 1628" d="M4.16602 22.9167L4.16602 27.0834" stroke="#1B1B35" stroke-width="1.5" stroke-linecap="round"/>
<path id="Vector" d="M24.9993 4.16669V45.8334M45.8327 25L4.16602 25M22.916 45.8334H27.0827M22.916 4.16669H27.0827M22.916 15.625H27.0827M22.916 34.375H27.0827M34.3743 22.9167V27.0834M15.6243 22.9167V27.0834M12.4993 4.16669L14.5827 6.25002M14.5827 6.25002L16.666 4.16669M14.5827 6.25002V8.33335M41.666 33.3334L43.7493 35.4167M43.7493 35.4167L45.8327 33.3334M43.7493 35.4167L41.666 37.5M43.7493 35.4167L45.8327 37.5" stroke="#1B1B35" stroke-width="1.5" stroke-linecap="round"/>
</g>
</svg>
