<svg width="36" height="30" viewBox="0 0 36 30" fill="none" xmlns="http://www.w3.org/2000/svg">
<g id="2 students">
<g id="student">
<path id="Vector 1458" d="M23.7307 14.7134V12.974L26.3038 14.1312C26.8339 14.3695 27.4413 14.3655 27.9682 14.1203L30.5967 12.8967V14.7134C30.5967 16.6094 29.0597 18.1464 27.1637 18.1464C25.2677 18.1464 23.7307 16.6094 23.7307 14.7134Z" stroke="white" stroke-width="2" stroke-linecap="round"/>
<path id="Vector 1456" d="M33.8694 10.6847L28.167 8.15027C27.512 7.85917 26.7644 7.85917 26.1094 8.15027L20.407 10.6847C20.0727 10.8332 20.0727 11.3077 20.407 11.4563L26.1094 13.9907C26.7644 14.2818 27.512 14.2818 28.167 13.9907L33.8694 11.4563C34.2037 11.3077 34.2037 10.8332 33.8694 10.6847Z" stroke="white" stroke-width="2" stroke-linecap="round" stroke-linejoin="round"/>
<path id="Vector" d="M23.7843 20.7542C23.956 20.6937 24.1321 20.6377 24.3123 20.5865C24.6045 20.5034 24.9171 20.5927 25.1313 20.8022L26.5177 22.1585C26.8593 22.4927 27.4171 22.4927 27.7587 22.1585L29.1451 20.8022C29.3593 20.5927 29.6719 20.5034 29.9641 20.5865C32.4123 21.283 34.1201 22.8568 34.1201 24.6866C34.1201 25.6192 33.3386 26.3753 32.3746 26.3753H25.7715" stroke="white" stroke-width="2" stroke-linecap="round" stroke-linejoin="round"/>
<line id="Line 1" x1="20.4912" y1="12.0705" x2="20.4912" y2="15.3477" stroke="white" stroke-width="2" stroke-linecap="round"/>
</g>
<g id="student_2">
<path id="Vector 1458_2" d="M7.16327 12.3477V8.67031L11.4154 10.255C11.8659 10.4229 12.3618 10.4229 12.8123 10.255L17.0645 8.67031V12.3477C17.0645 14.5568 15.2736 16.3477 13.0645 16.3477H11.1633C8.95413 16.3477 7.16327 14.5568 7.16327 12.3477Z" stroke="white" stroke-width="2" stroke-linecap="round"/>
<path id="Vector 1456_2" d="M21.9802 5.1242L13.6217 1.40931C12.6616 0.982624 11.5658 0.982624 10.6057 1.40931L2.2472 5.1242C1.75721 5.34198 1.75721 6.0374 2.2472 6.25518L10.6057 9.97007C11.5658 10.3968 12.6616 10.3968 13.6217 9.97007L21.9802 6.25518C22.4702 6.0374 22.4702 5.34198 21.9802 5.1242Z" stroke="white" stroke-width="2" stroke-linecap="round" stroke-linejoin="round"/>
<path id="Vector_2" d="M9.17198 19.985L11.2041 21.973C11.7048 22.4629 12.5226 22.4629 13.0233 21.973L15.0554 19.985C15.3693 19.6779 15.8276 19.547 16.2559 19.6689C19.8443 20.6898 22.3477 22.9966 22.3477 25.6787C22.3477 27.0458 21.2022 28.154 19.7892 28.154H4.4382C3.02518 28.154 1.87971 27.0458 1.87971 25.6787C1.87971 22.9966 4.38301 20.6898 7.97147 19.6689C8.39978 19.547 8.85806 19.6779 9.17198 19.985Z" stroke="white" stroke-width="2" stroke-linecap="round" stroke-linejoin="round"/>
<line id="Line 1_2" x1="3.08496" y1="6.88531" x2="3.08496" y2="12.425" stroke="white" stroke-width="2" stroke-linecap="round"/>
</g>
</g>
</svg>
