<svg width="24" height="24" viewBox="0 0 24 24" fill="none" xmlns="http://www.w3.org/2000/svg">
<g id="Component 8">
<path id="Vector" d="M2 21C2.5 20.0909 4.4 18.2727 8 18.2727C11.6 18.2727 13.5 16.0909 14 15M8 8V5C8 3.89543 8.89543 3 10 3H20C21.1046 3 22 3.89543 22 5V13C22 14.1046 21.1046 15 20 15H16.7397M12 7H18M10 13C10 14.1046 9.10457 15 8 15C6.89543 15 6 14.1046 6 13C6 11.8954 6.89543 11 8 11C9.10457 11 10 11.8954 10 13Z" stroke="white" stroke-width="1.5" stroke-linecap="round"/>
<path id="Vector 1464" d="M15 11H18" stroke="white" stroke-width="1.5" stroke-linecap="round"/>
</g>
</svg>
