<svg width="40" height="40" viewBox="0 0 40 40" fill="none" xmlns="http://www.w3.org/2000/svg">
<g id="Component 1">
<path id="Vector" d="M36.6668 20C36.6668 29.2048 29.2049 36.6667 20.0002 36.6667M36.6668 20C36.6668 10.7953 29.2049 3.33334 20.0002 3.33334M36.6668 20C36.6668 17.2386 29.2049 15 20.0002 15C10.7954 15 3.3335 17.2386 3.3335 20M36.6668 20C36.6668 22.7614 29.2049 25 20.0002 25C10.7954 25 3.3335 22.7614 3.3335 20M20.0002 36.6667C10.7954 36.6667 3.3335 29.2048 3.3335 20M20.0002 36.6667C23.6821 36.6667 26.6668 29.2048 26.6668 20C26.6668 10.7953 23.6821 3.33334 20.0002 3.33334M20.0002 36.6667C16.3183 36.6667 13.3335 29.2048 13.3335 20C13.3335 10.7953 16.3183 3.33334 20.0002 3.33334M3.3335 20C3.3335 10.7953 10.7954 3.33334 20.0002 3.33334" stroke="white" stroke-width="1.5"/>
</g>
</svg>
