<svg width="768" height="444" viewBox="0 0 768 444" fill="none" xmlns="http://www.w3.org/2000/svg">
<g clip-path="url(#clip0_24_355)">
<path d="M686.637 330.461H490.675C487.171 330.461 484.319 327.601 484.319 324.086V37.7396C484.319 34.2244 487.171 31.3639 490.675 31.3639H686.637C690.141 31.3639 692.992 34.2233 692.992 37.7396V324.086C692.992 327.601 690.141 330.461 686.637 330.461ZM490.675 31.6358C487.319 31.6358 484.59 34.3745 484.59 37.7396V324.086C484.59 327.452 487.32 330.189 490.675 330.189H686.637C689.992 330.189 692.721 327.452 692.721 324.086V37.7396C692.721 34.3745 689.991 31.6358 686.637 31.6358H490.675Z" fill="#E0E0E0"/>
<path d="M460.662 330.461H264.7C261.196 330.461 258.345 327.601 258.345 324.086V37.7396C258.345 34.2244 261.195 31.3639 264.7 31.3639H460.663C464.167 31.3639 467.019 34.2233 467.019 37.7396V324.086C467.018 327.601 464.166 330.461 460.662 330.461ZM264.7 31.6358C261.346 31.6358 258.616 34.3745 258.616 37.7396V324.086C258.616 327.452 261.346 330.189 264.7 330.189H460.663C464.019 330.189 466.748 327.452 466.748 324.086V37.7396C466.748 34.3745 464.018 31.6358 460.663 31.6358H264.7Z" fill="#E0E0E0"/>
<path d="M234.833 330.461H38.8711C35.367 330.461 32.5156 327.601 32.5156 324.086V37.7396C32.5156 34.2244 35.3659 31.3639 38.8711 31.3639H234.833C238.337 31.3639 241.189 34.2233 241.189 37.7396V324.086C241.19 327.601 238.338 330.461 234.833 330.461ZM38.8711 31.6358C35.5166 31.6358 32.7867 34.3745 32.7867 37.7396V324.086C32.7867 327.452 35.5166 330.189 38.8711 330.189H234.833C238.189 330.189 240.918 327.452 240.918 324.086V37.7396C240.918 34.3745 238.188 31.6358 234.833 31.6358H38.8711Z" fill="#E0E0E0"/>
<path d="M769.323 396.883H-43.8154V397.014H769.323V396.883Z" fill="#E0E0E0"/>
<path d="M725.255 428.834H664.835V429.292H725.255V428.834Z" fill="#EBEBEB"/>
<path d="M508.762 433.799H492.903V434.257H508.762V433.799Z" fill="#EBEBEB"/>
<path d="M79.043 414.914H0.250977V415.372H79.043V414.914Z" fill="#EBEBEB"/>
<path d="M106.837 414.914H95.2842V415.372H106.837V414.914Z" fill="#EBEBEB"/>
<path d="M315.265 422.641H144.384V423.099H315.265V422.641Z" fill="#EBEBEB"/>
<path d="M288.279 156.597C286.5 155.52 284.439 155.001 282.364 155.11C281.09 153.558 282.117 151.224 283.352 149.646C284.587 148.068 286.095 146.269 285.626 144.312C284.898 141.378 280.79 141.26 277.827 141.834C276.735 140.06 276.761 137.857 276.228 135.809C275.694 133.762 273.953 131.609 272.016 131.897C270.079 132.184 268.882 134.335 266.972 134.792C264.749 135.314 262.825 133.344 261.083 131.87C260.868 131.687 260.642 131.517 260.407 131.361C260.771 125.245 266.57 126.223 271.509 125.388C275.37 124.75 265.14 114.955 272.939 111.799C274.451 111.383 275.775 110.462 276.696 109.191C277.505 107.212 276.788 104.934 274.993 103.779C273.217 102.704 271.162 102.187 269.09 102.292C267.816 100.74 268.843 98.406 270.078 96.8278C271.313 95.2496 272.808 93.4496 272.353 91.494C271.611 88.5596 267.517 88.4421 264.553 89.0164C263.461 87.2424 263.487 85.0389 262.954 82.9919C262.421 80.945 260.692 78.7926 258.742 79.0797C256.791 79.3668 255.609 81.5182 253.698 81.975C251.476 82.496 249.551 80.5274 247.809 79.0536C246.067 77.5799 243.024 76.6543 241.829 78.5968C241.113 79.7443 241.542 81.3616 240.789 82.509C239.502 84.4657 236.421 83.2649 234.523 81.8565C232.625 80.448 229.558 79.17 228.258 81.1266C227.918 81.7673 227.67 82.4525 227.516 83.1616C227.331 83.6663 227.073 84.1416 226.75 84.5701C226.372 83.2138 226.255 81.7401 225.905 80.3707C225.372 78.3358 223.644 76.1714 221.693 76.4585C219.743 76.7456 218.56 78.91 216.649 79.3538C214.426 79.8889 212.502 77.9061 210.76 76.4324C209.018 74.9586 205.976 74.0331 204.78 75.9886C204.065 77.1361 204.494 78.7534 203.74 79.9009C203.584 80.1586 203.37 80.3783 203.116 80.5393C202.453 80.4088 201.803 80.4088 201.152 80.4088C199.878 78.8698 200.905 76.5488 202.14 74.9576C203.375 73.3663 204.883 71.5663 204.414 69.6238C203.686 66.6763 199.578 66.5719 196.615 67.1461C195.523 65.3591 195.549 63.1556 195.016 61.1217C194.482 59.0867 192.754 56.9093 190.804 57.2095C188.854 57.5096 187.67 59.661 185.76 60.1178C183.537 60.6399 181.613 58.6832 179.871 57.1964C178.128 55.7096 175.086 54.7971 173.89 56.7396C173.176 57.874 173.604 59.5044 172.851 60.6518C171.564 62.5954 168.508 61.3958 166.598 59.9873C164.687 58.5788 161.62 57.3008 160.319 59.2575C159.978 59.9025 159.729 60.5909 159.577 61.3044C158.68 63.9126 155.859 65.2167 153.675 66.8862C151.491 68.5557 149.762 71.8806 151.607 73.9156C152.517 74.9325 154.129 75.311 154.584 76.6151C155.144 78.1541 153.519 79.654 152.219 80.7623C150.515 82.6591 150.013 85.3532 150.919 87.7395C150.271 88.3312 149.504 88.776 148.67 89.0436C146.447 89.5656 144.523 87.5959 142.781 86.1222C141.038 84.6484 137.996 83.7228 136.8 85.6654C136.086 86.7998 136.514 88.4301 135.761 89.5776C134.474 91.5343 131.419 90.3335 129.508 88.925C127.597 87.5165 124.53 86.2385 123.229 88.1952C122.89 88.8358 122.641 89.521 122.487 90.2291C121.59 92.8373 118.769 94.1413 116.586 95.8109C114.402 97.4804 112.673 100.805 114.518 102.853C115.389 103.87 116.897 104.288 117.417 105.461C115.883 104.848 114.115 105.005 113.4 106.152C112.685 107.3 113.114 108.917 112.361 110.064C111.074 112.021 108.019 110.82 106.107 109.412C104.197 108.003 101.129 106.725 99.8286 108.682C99.4882 109.327 99.2377 110.015 99.0881 110.729C98.1915 113.337 95.3705 114.615 93.1858 116.298C91.0012 117.98 89.273 121.305 91.1194 123.34C92.029 124.344 93.6412 124.736 94.0965 126.04C94.669 127.579 93.0438 129.078 91.7439 130.187C89.5863 132.013 89.196 137.503 92.0431 139.016C93.239 139.642 95.0203 139.968 95.2805 141.155C95.5407 142.341 94.3448 143.254 93.5512 144.167C93.368 144.403 93.2032 144.655 93.059 144.917C91.5563 147.655 92.5505 151.097 95.2805 152.604C95.9689 152.917 96.8016 153.191 97.0618 153.908C97.1594 154.444 97.1008 154.997 96.8927 155.499C96.6194 156.497 96.5273 157.534 96.6194 158.564C96.6194 158.919 96.7539 159.259 96.9967 159.516C97.2569 159.703 97.5735 159.796 97.8934 159.777C102.001 159.96 103.977 158.499 106.487 162.085C106.706 162.446 106.998 162.757 107.344 162.998C107.695 163.174 108.083 163.267 108.475 163.272C111.296 163.507 113.116 161.746 115.716 161.406C119.317 160.95 120.058 162.802 123.218 164.289C128.17 166.636 130.576 165.188 131.512 161.798C131.758 160.838 131.906 159.854 131.954 158.863C131.932 157.368 132.564 155.939 133.683 154.951H133.761C136.4 155.173 138.182 153.66 140.495 153.19L141.964 153.034C144.707 153.008 145.617 154.664 148.464 155.968C149.774 156.661 151.222 157.048 152.702 157.103C153.118 158.642 151.61 160.024 150.31 161.093C148.166 162.932 147.776 168.423 150.623 169.923C151.806 170.548 153.6 170.9 153.86 172.074C154.12 173.248 152.924 174.173 152.131 175.074C151.949 175.307 151.786 175.555 151.643 175.815C150.134 178.558 151.126 182.01 153.86 183.524C154.537 183.85 155.381 184.111 155.628 184.828C155.738 185.366 155.684 185.925 155.472 186.432C155.187 187.422 155.094 188.458 155.199 189.484C155.195 189.841 155.325 190.185 155.563 190.449C155.831 190.63 156.151 190.717 156.473 190.697C160.581 190.879 162.556 189.419 165.066 193.004C165.279 193.371 165.571 193.683 165.924 193.917C166.276 194.091 166.662 194.189 167.055 194.204C169.876 194.439 171.696 192.665 174.296 192.339C177.883 191.882 178.638 193.734 181.783 195.221C186.749 197.555 189.155 196.121 190.09 192.73C190.337 191.766 190.486 190.778 190.533 189.783C190.897 183.68 196.695 184.645 201.648 183.823C201.997 183.795 202.305 183.58 202.453 183.261H202.765C205.586 183.496 207.407 181.735 210.007 181.396C213.607 180.939 214.349 182.792 217.507 184.278C222.46 186.625 224.865 185.178 225.801 181.788C226.048 180.823 226.197 179.835 226.243 178.84C226.569 174.093 230.143 173.624 234.043 173.258C234.167 175.137 235.249 176.818 236.903 177.706C237.592 178.019 238.424 178.292 238.684 179.01C238.782 179.545 238.723 180.099 238.515 180.601C238.243 181.594 238.151 182.627 238.242 183.653C238.238 184.009 238.368 184.354 238.606 184.618C238.875 184.797 239.193 184.889 239.516 184.879C243.624 185.061 245.6 183.601 248.109 187.187C248.328 187.548 248.621 187.859 248.967 188.099C249.318 188.275 249.705 188.369 250.098 188.373C252.919 188.608 254.739 186.847 257.339 186.508C260.939 186.051 261.681 187.903 264.839 189.39C269.792 191.737 272.198 190.29 273.133 186.9C273.379 185.939 273.528 184.956 273.576 183.965C273.94 177.848 279.751 178.827 284.691 177.992C288.551 177.352 278.308 167.559 286.108 164.403C287.619 163.986 288.944 163.066 289.864 161.795C290.584 159.907 289.932 157.764 288.279 156.597Z" fill="#E0E0E0"/>
<path d="M144.692 193.047C143.214 192.144 141.496 191.711 139.767 191.805C138.708 190.507 139.574 188.576 140.592 187.251C141.61 185.926 142.875 184.49 142.476 182.807C141.898 180.351 138.473 180.267 136.01 180.75C135.089 179.26 135.116 177.411 134.634 175.726C134.153 174.043 132.845 172.276 131.126 172.483C129.406 172.69 128.512 174.525 126.916 174.899C125.073 175.34 123.463 173.698 122.019 172.47C120.575 171.242 118.029 170.469 117.025 172.084C116.433 173.05 116.791 174.416 116.172 175.368C115.085 177.025 112.54 175.989 110.944 174.816C109.348 173.643 106.816 172.58 105.716 174.209C105.438 174.746 105.23 175.316 105.097 175.907C104.354 178.087 102.016 179.163 100.186 180.558C98.3554 181.951 96.9112 184.698 98.466 186.423C99.2227 187.265 100.557 187.61 100.942 188.672C101.41 190.053 100.048 191.212 98.9755 192.122C97.1866 193.654 96.8571 198.236 99.2227 199.478C100.227 200.002 101.685 200.168 101.974 201.272C102.263 202.376 101.204 203.024 100.599 203.783C99.0059 205.843 99.3799 208.808 101.433 210.406C101.625 210.556 101.83 210.689 102.043 210.808C102.606 211.084 103.308 211.305 103.515 211.912C103.617 212.375 103.569 212.858 103.377 213.292C103.147 214.118 103.073 214.979 103.157 215.832C103.151 216.128 103.259 216.415 103.46 216.632C103.68 216.79 103.947 216.867 104.216 216.853C107.628 217.005 109.279 215.79 111.37 218.772C111.553 219.072 111.796 219.331 112.086 219.531C112.38 219.678 112.705 219.758 113.034 219.766C115.387 219.959 116.913 218.497 119.073 218.22C122.045 217.834 122.677 219.38 125.305 220.622C129.432 222.568 131.454 221.367 132.183 218.538C132.388 217.738 132.512 216.919 132.555 216.095C132.857 211.003 137.699 211.803 141.813 211.113C145.032 210.574 136.517 202.432 142.996 199.796C144.264 199.453 145.373 198.676 146.132 197.602C146.835 195.933 146.222 194.004 144.692 193.047Z" fill="#E0E0E0"/>
<path d="M207.596 164.909L212.897 148.043L223.218 134.725L221.455 133.25L211.718 143.896L209.988 127.03H207.169C207.169 127.03 209.485 147.068 206.153 154.405C206.153 154.405 194.053 185.29 186.686 191.976C186.268 192.363 185.905 192.804 185.604 193.288C183.394 187.603 180.522 182.201 177.046 177.193C179.956 169.727 186.199 153.317 188.319 144.537C189.981 137.717 191.228 130.801 192.052 123.83L189.639 123.563C189.639 123.563 182.792 155.998 171.476 170.758C168.123 167.668 164.322 165.105 160.202 163.161C159.283 158.602 158.894 150.669 161.901 138.285L159.509 137.672C159.509 137.672 154.945 148.15 155.345 160.729C153.643 159.871 152.001 158.895 150.434 157.81C139.529 150.114 131.858 136.212 131.858 136.212L129.626 138.392C129.626 138.392 138.934 158.896 151.905 165.744C164.876 172.592 173.282 189.284 173.953 193.658C174.136 194.907 175.636 204.816 173.558 222.179C159.755 216.272 132.405 200.006 130.587 198.507L127.402 202.802L171.653 234.566C172.346 276.893 169.158 320.931 169.276 330.46H195.045C194.41 317.316 188.981 267.891 191.391 216.232C191.596 214.963 191.813 213.508 192.019 211.815C194.031 195.969 206.018 174.32 211.719 168.164C217.829 161.567 224.62 156.337 224.62 156.337L223.052 152.964L207.596 164.909Z" fill="#E6E6E6"/>
<path d="M411.569 34.0732C411.569 30.6917 408.836 27.9498 405.465 27.9498C404.873 27.9476 404.284 28.0357 403.719 28.2108C403.806 27.5876 403.85 26.9589 403.85 26.3292C403.85 19.1693 398.063 13.3645 390.926 13.3645C390.129 13.3645 389.335 13.4374 388.552 13.5821C385.308 8.23524 378.357 6.53852 373.028 9.79274C369.709 11.819 367.661 15.4158 367.605 19.3139H367.41C361.659 19.4999 357.147 24.3279 357.333 30.0979C357.509 35.6057 361.92 40.0302 367.41 40.2075H405.638C408.949 40.1194 411.582 37.3948 411.569 34.0732Z" fill="#F0F0F0"/>
<path d="M509.751 94.9005C509.751 91.7627 507.215 89.2198 504.088 89.2198C503.54 89.2176 502.993 89.2992 502.469 89.4623C502.55 88.8837 502.59 88.3007 502.589 87.7167C502.589 81.0734 497.221 75.6884 490.599 75.6884C489.861 75.6884 489.122 75.7559 488.396 75.8907C485.386 70.93 478.938 69.3562 473.994 72.3755C470.913 74.256 469.014 77.5918 468.963 81.2082H468.782C463.447 81.3812 459.261 85.86 459.432 91.2134C459.597 96.3231 463.687 100.428 468.782 100.593H504.249C507.32 100.509 509.763 97.9829 509.751 94.9005Z" fill="#E0E0E0"/>
<path d="M184.521 14.7274C184.521 12.8414 182.996 11.3122 181.116 11.3122C180.786 11.3111 180.458 11.36 180.143 11.4579C180.192 11.1099 180.215 10.7597 180.215 10.4083C180.215 6.41454 176.988 3.17663 173.007 3.17663C172.562 3.17663 172.12 3.21687 171.683 3.29845C169.873 0.31614 165.996 -0.630105 163.023 1.18516C161.172 2.31522 160.029 4.32192 159.999 6.49611H159.89C156.682 6.60052 154.166 9.29351 154.269 12.5108C154.367 15.5833 156.827 18.0501 159.89 18.1502H181.214C183.059 18.099 184.528 16.5796 184.521 14.7274Z" fill="#F0F0F0"/>
<path d="M679.302 33.7991C679.302 30.5112 676.645 27.8454 673.368 27.8454C672.792 27.8432 672.221 27.928 671.671 28.0988C671.755 27.493 671.798 26.8817 671.798 26.2694C671.798 19.3074 666.172 13.6637 659.232 13.6637C658.458 13.6637 657.685 13.7343 656.924 13.8747C653.77 8.67574 647.012 7.02688 641.83 10.1908C638.602 12.1616 636.611 15.6584 636.557 19.4477H636.368C630.775 19.6283 626.389 24.3236 626.569 29.9326C626.741 35.2881 631.029 39.5897 636.368 39.7626H673.537C676.754 39.6778 679.314 37.0294 679.302 33.7991Z" fill="#F0F0F0"/>
<path d="M360.198 106.145C360.198 102.427 357.193 99.4131 353.488 99.4131C352.837 99.4099 352.19 99.5067 351.569 99.7003C351.665 99.015 351.713 98.3233 351.712 97.6316C351.712 89.7603 345.352 83.3802 337.506 83.3802C336.63 83.3802 335.757 83.4607 334.896 83.6195C331.33 77.7419 323.69 75.8777 317.831 79.4539C314.182 81.6824 311.931 85.6349 311.87 89.9202H311.656C305.334 90.1247 300.374 95.4324 300.577 101.774C300.773 107.829 305.62 112.692 311.656 112.888H353.679C357.317 112.79 360.212 109.796 360.198 106.145Z" fill="#E0E0E0"/>
<path d="M620.701 330.107H627.695V79.7018C627.684 67.1222 617.522 56.9278 604.982 56.9169H598.807V63.9332H604.982C613.659 63.9441 620.689 70.9975 620.701 79.7007V330.107Z" fill="#E0E0E0"/>
<path d="M554.032 65.5081H604.384L603.235 57.8892C602.85 55.3333 600.847 53.3277 598.298 52.947C594.981 52.4554 590.634 51.8648 588.596 51.8246C582.65 51.694 567.952 53.2374 560.777 54.0499C558.348 54.3337 556.355 56.1066 555.781 58.4907L554.032 65.5081Z" fill="#EBEBEB"/>
<path d="M559.358 70.8408H599.067C602.003 70.8408 604.383 68.4535 604.383 65.5081H554.031C554.038 68.4545 556.421 70.8408 559.358 70.8408Z" fill="#F5F5F5"/>
<path d="M587.336 81.9239L596.779 104.272" stroke="#E0E0E0" stroke-width="0.5" stroke-miterlimit="10" stroke-linecap="round" stroke-linejoin="round"/>
<path d="M578.083 81.9239C578.083 94.8265 577.296 105.557 577.296 118.461" stroke="#E0E0E0" stroke-width="0.5" stroke-miterlimit="10" stroke-linecap="round" stroke-linejoin="round"/>
<path d="M570.209 80.9363L556.428 99.1053" stroke="#E0E0E0" stroke-width="0.5" stroke-miterlimit="10" stroke-linecap="round" stroke-linejoin="round"/>
<path d="M428.676 119.221H602.432V159.282" stroke="#407BFF" stroke-miterlimit="10"/>
<path d="M602.431 161.387C604.82 161.387 606.756 159.444 606.756 157.048C606.756 154.652 604.82 152.71 602.431 152.71C600.043 152.71 598.106 154.652 598.106 157.048C598.106 159.444 600.043 161.387 602.431 161.387Z" fill="#407BFF"/>
<path d="M726.803 135.628C737.239 129.627 740.85 116.275 734.868 105.806C728.886 95.3363 715.577 91.7139 705.141 97.7149C694.704 103.716 691.093 117.068 697.075 127.537C703.057 138.007 716.367 141.629 726.803 135.628Z" fill="#407BFF"/>
<path d="M701.386 125.759L695.815 125.13L693.521 131.843L700.471 131.493L701.386 125.759Z" fill="#407BFF"/>
<path d="M733.658 97.2063C739.41 101.351 742.84 108.54 742.453 115.633" stroke="#407BFF" stroke-width="0.5" stroke-miterlimit="10" stroke-linecap="round" stroke-linejoin="round"/>
<path d="M742.16 118.88C742.181 119.963 741.976 121.051 741.562 122.051" stroke="#407BFF" stroke-width="0.5" stroke-miterlimit="10" stroke-linecap="round" stroke-linejoin="round"/>
<path d="M716.505 116.777C718.917 116.777 720.873 114.815 720.873 112.395C720.873 109.975 718.917 108.013 716.505 108.013C714.093 108.013 712.137 109.975 712.137 112.395C712.137 114.815 714.093 116.777 716.505 116.777Z" fill="white"/>
<path d="M716.505 117.287C712.652 117.287 709.528 120.421 709.528 124.286H723.482C723.482 120.42 720.358 117.287 716.505 117.287Z" fill="white"/>
<path d="M278.263 165.109C282.704 153.894 277.241 141.19 266.061 136.735C254.882 132.28 242.219 137.76 237.778 148.975C233.337 160.19 238.799 172.894 249.979 177.349C261.158 181.804 273.822 176.324 278.263 165.109Z" fill="#407BFF"/>
<path d="M266.554 171.866L265.05 177.285L271.293 180.622L272.051 173.684L266.554 171.866Z" fill="#407BFF"/>
<path d="M275.702 137.574C281.454 141.719 284.885 148.907 284.497 156.001" stroke="#407BFF" stroke-width="0.5" stroke-miterlimit="10" stroke-linecap="round" stroke-linejoin="round"/>
<path d="M284.205 159.247C284.225 160.331 284.022 161.418 283.607 162.419" stroke="#407BFF" stroke-width="0.5" stroke-miterlimit="10" stroke-linecap="round" stroke-linejoin="round"/>
<path d="M258.004 157.676C260.416 157.676 262.372 155.714 262.372 153.294C262.372 150.874 260.416 148.912 258.004 148.912C255.591 148.912 253.636 150.874 253.636 153.294C253.636 155.714 255.591 157.676 258.004 157.676Z" fill="white"/>
<path d="M258.004 158.186C254.151 158.186 251.027 161.319 251.027 165.185H264.981C264.981 161.319 261.857 158.186 258.004 158.186Z" fill="white"/>
<path d="M721.398 395.449L732.074 387.015C738.881 394.79 744.371 402.535 748.517 407.159L745.943 413.222L738.99 411.822C738.99 411.822 731.609 403.888 721.398 395.449Z" fill="#B97964"/>
<path d="M731.624 406.617L735.777 403.963C740.027 406.12 740.875 404.399 741.396 400.57C742.511 399.659 743.715 400.838 744.05 401.148L751.538 407.943C752.171 408.505 752.229 409.476 751.668 410.11C751.568 410.223 751.452 410.321 751.324 410.4C747.657 412.742 745.923 413.852 741.359 416.768L727.403 425.687C723.598 428.119 720.367 424.776 721.708 423.419C727.764 417.353 731.434 412.083 732.305 408.634C732.48 408.017 731.893 408.012 731.624 406.617Z" fill="#407BFF"/>
<path d="M731.013 410.293C732.143 409.771 733.504 409.777 734.628 410.311" stroke="#263238" stroke-width="0.5" stroke-miterlimit="10" stroke-linecap="round" stroke-linejoin="round"/>
<path d="M730.036 412.91C731.167 412.388 732.528 412.394 733.653 412.928" stroke="#263238" stroke-width="0.5" stroke-miterlimit="10" stroke-linecap="round" stroke-linejoin="round"/>
<path d="M728.458 415.593C729.589 415.071 730.949 415.077 732.075 415.612" stroke="#263238" stroke-width="0.5" stroke-miterlimit="10" stroke-linecap="round" stroke-linejoin="round"/>
<path opacity="0.7" d="M751.668 410.11C751.568 410.223 751.452 410.321 751.324 410.4C747.658 412.742 745.923 413.852 741.36 416.768L727.403 425.687C725.344 427.003 723.461 426.624 722.371 425.788C722.953 425.422 750.824 407.913 751.112 407.555L751.656 408.071C752.169 408.644 752.188 409.521 751.668 410.11Z" fill="white"/>
<path d="M658.44 395.144L674.983 405.378C673.753 417.827 670.704 429.143 671.853 435.254L666.515 439.095L659.245 431.491C659.245 431.491 659.869 409.212 658.44 395.144Z" fill="#B97964"/>
<path d="M658.589 425.991L663.512 425.885C666.028 429.942 667.642 428.913 670.07 425.913C671.493 425.716 671.913 427.35 672.039 427.789L674.922 437.495C675.171 438.305 674.719 439.165 673.911 439.416C673.767 439.46 673.618 439.483 673.468 439.484C669.121 439.577 667.064 439.621 661.654 439.736L645.11 440.09C640.6 440.187 639.568 435.647 641.417 435.185C649.732 433.155 655.595 430.562 658.125 428.069C658.596 427.633 658.097 427.324 658.589 425.991Z" fill="#407BFF"/>
<path d="M656.164 428.814C657.401 428.957 658.56 429.671 659.245 430.713" stroke="#263238" stroke-width="0.5" stroke-miterlimit="10" stroke-linecap="round" stroke-linejoin="round"/>
<path d="M653.975 430.542C655.211 430.684 656.371 431.399 657.056 432.441" stroke="#263238" stroke-width="0.5" stroke-miterlimit="10" stroke-linecap="round" stroke-linejoin="round"/>
<path d="M651.237 432.013C652.474 432.156 653.633 432.87 654.319 433.912" stroke="#263238" stroke-width="0.5" stroke-miterlimit="10" stroke-linecap="round" stroke-linejoin="round"/>
<path opacity="0.7" d="M673.911 439.417C673.767 439.461 673.618 439.484 673.468 439.485C669.121 439.578 667.064 439.622 661.654 439.738L645.11 440.091C642.669 440.143 641.255 438.838 640.758 437.556C641.444 437.546 674.326 437.1 674.757 436.945L674.955 437.669C675.098 438.425 674.662 439.184 673.911 439.417Z" fill="white"/>
<path d="M680.797 157.376C680.797 157.376 678.942 151.243 680.896 139.798C680.894 139.786 680.283 139.594 680.281 139.582C680.548 137.982 680.857 136.496 681.159 135.204C681.166 135.167 681.164 135.155 681.164 135.155L667.108 146.238C667.863 149.741 667.366 156.734 666.936 159.712C666.936 159.712 665.619 165.166 672.589 164.607C677.684 164.198 680.797 157.376 680.797 157.376Z" fill="#B97964"/>
<path opacity="0.2" d="M667.412 151.25L675.887 148.297C675.404 151.1 673.373 154.588 667.351 155.536C667.351 155.536 667.612 152.431 667.412 151.25Z" fill="black"/>
<path d="M680.452 127.778C680.516 137.503 680.747 142.988 676.196 148.248C669.349 156.161 657.397 152.63 654.43 143.091C651.759 134.505 652.102 120.041 661.317 115.631C670.395 111.286 680.386 118.051 680.452 127.778Z" fill="#B97964"/>
<path d="M680.885 116.047C679.197 110.801 665.858 111.653 662.32 114.635C661.79 115.081 669.959 118.521 669.468 118.378L673.274 119.415C673.838 119.248 675.009 119.842 675.712 121.588C675.712 121.588 676.297 136.467 680.783 140.479C684.042 138.6 683.84 132.7 684.665 129.123C685.894 123.794 687.283 116.015 680.885 116.047Z" fill="#263238"/>
<path d="M684.813 135.591C684.21 138.137 682.486 140.157 680.635 141.243C677.851 142.875 676.563 139.788 676.628 136.718C676.688 133.954 677.259 130.554 680.394 130.174C683.483 129.8 685.501 132.68 684.813 135.591Z" fill="#B97964"/>
<path d="M666.821 131.518C666.888 132.509 666.418 133.343 665.771 133.381C665.123 133.419 664.544 132.646 664.477 131.655C664.41 130.664 664.88 129.83 665.527 129.792C666.175 129.754 666.754 130.526 666.821 131.518Z" fill="#263238"/>
<path d="M657.144 132.373C657.212 133.364 656.742 134.198 656.095 134.236C655.448 134.274 654.869 133.501 654.8 132.51C654.733 131.519 655.204 130.685 655.85 130.647C656.497 130.609 657.077 131.382 657.144 132.373Z" fill="#263238"/>
<path d="M660.26 131.608C660.26 131.608 657.467 136.747 656.6 138.82C658.059 139.972 660.389 139.236 660.389 139.236L660.26 131.608Z" fill="#A24E3F"/>
<path d="M668.92 126.681C668.774 126.753 668.595 126.747 668.451 126.648C666.732 125.482 665.145 126.117 665.129 126.122C664.893 126.22 664.62 126.108 664.52 125.872C664.42 125.636 664.532 125.365 664.767 125.267C664.851 125.233 666.838 124.436 668.971 125.884C669.184 126.029 669.239 126.317 669.096 126.528C669.051 126.595 668.989 126.647 668.92 126.681Z" fill="#263238"/>
<path d="M663.842 142.174C665.445 142.077 666.634 141.189 667.794 139.907" stroke="#263238" stroke-width="0.75" stroke-miterlimit="10" stroke-linecap="round" stroke-linejoin="round"/>
<path opacity="0.2" d="M682.425 133.064C681.997 132.512 681.189 132.353 680.525 132.567C679.862 132.78 679.334 133.302 678.96 133.892C678.511 134.6 678.251 135.428 678.214 136.267" stroke="black" stroke-width="0.5" stroke-miterlimit="10" stroke-linecap="round" stroke-linejoin="round"/>
<path d="M652.584 128.481C652.498 128.468 652.413 128.431 652.341 128.367C652.15 128.195 652.131 127.901 652.3 127.709C653.995 125.789 656.102 126.111 656.198 126.114C656.45 126.154 656.625 126.392 656.588 126.645C656.551 126.899 656.318 127.072 656.068 127.035C655.98 127.017 654.355 126.791 652.994 128.332C652.888 128.453 652.733 128.503 652.584 128.481Z" fill="#263238"/>
<path d="M682.579 111.702C681.678 109.597 678.837 109.355 676.75 109.978C676.626 107.322 673.062 106.087 670.903 106.341C668.656 106.607 667.924 107.58 667.924 107.58C668.1 107.602 667.13 106.327 666.554 105.838C664.428 104.031 661.284 103.698 658.908 105.03C656.531 106.361 655.059 109.278 655.328 112.125C653.808 110.815 651.306 111.086 650.114 112.69C648.921 114.294 649.261 116.931 650.822 118.187C649.176 118.432 647.943 120.298 648.29 122.022C648.637 123.745 650.492 124.972 652.1 124.541C652.368 126.491 652.786 128.919 653.054 130.868L655.04 123.443C656.342 122.848 656.545 122.212 656.689 120.717C657.835 122.481 659.37 122.197 661.363 121.947C663.357 121.697 665.144 120.191 665.81 118.201C667.012 120.042 669.103 121.339 671.193 121.108C673.282 120.878 675.144 118.856 674.945 116.643C676.345 118.426 679.018 118.913 680.86 117.72C682.704 116.527 683.481 113.808 682.579 111.702Z" fill="#263238"/>
<path d="M697.261 156.759C697.261 156.759 705.883 156.996 709.349 166.646C712.541 175.53 720.66 195.121 720.66 195.121L701.25 200.823L693.521 177.625L697.261 156.759Z" fill="#407BFF"/>
<path d="M665.551 249.29L677.252 274.338C677.252 274.338 658.673 330.45 657.556 336.299C656.439 342.147 655.921 415.826 655.921 415.826L676.595 415.858L684.701 343.985C684.701 343.985 709.806 282.942 711.647 277.978C715.09 268.692 711.479 256.2 711.479 256.2L705.085 246.954L665.551 249.29Z" fill="#263238"/>
<path d="M654.197 261.85C654.197 264.128 662.262 341.851 663.586 342.13C664.91 342.408 723.338 406.514 723.338 406.514L739.93 391.9L697.059 333.587L692.311 281.186L690.648 248.247L653.257 251.019L654.197 261.85Z" fill="#263238"/>
<path opacity="0.4" d="M682.554 362.401L683.585 344.148L695.596 317.446L686.579 345.675L685.718 365.005L682.554 362.401Z" fill="black"/>
<path opacity="0.4" d="M660.89 324.408L677.252 274.338L671.555 269.116L673.364 276.298L660.181 318.46L660.89 324.408Z" fill="black"/>
<path d="M604.341 181.095L629.656 204.406L641.457 182.372C641.457 182.372 654.331 195.124 653.892 195.312C653.453 195.501 638.736 227.826 628.122 222.026C617.508 216.226 599.561 187.061 599.561 187.061L604.341 181.095Z" fill="#B97964"/>
<path opacity="0.2" d="M629.656 204.405C629.656 204.405 631.851 207.928 631.577 211.251C631.577 211.251 632.56 209.622 632.263 206.976C631.966 204.33 630.679 202.498 630.679 202.498L629.656 204.405Z" fill="black"/>
<path d="M652.961 162.545C659.872 166.103 662.646 178.74 647.794 209.209L630.056 195.48C632.901 187.877 635.787 183.919 640.336 174.69C647.549 160.363 652.961 162.545 652.961 162.545Z" fill="#407BFF"/>
<path d="M652.74 162.082C657.616 160.997 677.001 155.905 697.738 156.777L708.692 234.261C708.692 234.261 710.82 244.414 713.731 254.484C693.985 265.956 666.577 267.806 651.871 261.547C652.066 261.856 651.604 253.275 650.972 240.699C649.858 218.538 648.22 183.975 648.731 163.807C648.75 163.309 652.254 162.191 652.74 162.082Z" fill="#407BFF"/>
<path opacity="0.2" d="M649.399 205.836L648.703 180.776L645.549 207.471L647.794 209.209L649.399 205.836Z" fill="black"/>
<path opacity="0.2" d="M702.335 200.506L701.25 200.825L694.18 181.821L699.483 203.568L703.088 203.586L702.335 200.506Z" fill="black"/>
<path d="M606.783 185.133C606.783 185.133 608.725 182.055 608.032 179.125C607.34 176.195 607.564 173.67 606.899 171.527C606.235 169.384 605.029 172.161 604.685 173.768C604.342 175.376 603.937 177.195 602.775 176.741C601.613 176.287 594.879 167.913 593.196 167.468C591.514 167.022 592.181 168.719 592.181 168.719C592.181 168.719 590.49 166.729 589.522 167.186C589.271 167.305 588.878 167.99 589.507 169.018C590.921 171.33 594.138 176.03 594.138 176.03C593.959 175.757 589.575 170.24 588.811 169.5C587.812 168.533 586.85 168.587 586.31 169.186C585.541 170.039 590.743 177.064 590.756 177.514C590.756 177.514 587.896 173.369 586.425 173.525C584.954 173.68 586.612 176.388 588.527 178.496C590.282 180.429 593.22 184.683 595.195 186.474C597.627 188.682 599.755 189.616 602.578 188.389C605.4 187.16 606.783 185.133 606.783 185.133Z" fill="#B97964"/>
<path opacity="0.3" d="M592.453 168.936C593.767 170.564 595.009 172.253 596.17 173.996" stroke="black" stroke-width="0.25" stroke-miterlimit="10" stroke-linecap="round" stroke-linejoin="round"/>
<path opacity="0.3" d="M591.811 179.161C593.388 176.965 595.624 175.25 598.15 174.298" stroke="black" stroke-width="0.25" stroke-miterlimit="10" stroke-linecap="round" stroke-linejoin="round"/>
<path opacity="0.3" d="M602.431 178.046C601.688 178.86 601.239 179.939 601.186 181.04C601.132 182.142 601.473 183.259 602.132 184.142" stroke="black" stroke-width="0.25" stroke-miterlimit="10" stroke-linecap="round" stroke-linejoin="round"/>
<path d="M719.202 195.551C719.202 195.551 725.041 209.428 727.521 221.88C728.647 227.54 724.138 231.168 719.527 232.286C704.998 235.807 672.259 235.819 672.259 235.819L671.401 225.801L709.111 217.616L702.335 200.505L719.202 195.551Z" fill="#B97964"/>
<path d="M672.176 237.952L659.815 239.351C659.393 239.399 658.972 239.252 658.669 238.953L639.858 220.295C639.081 219.525 639.438 218.201 640.495 217.927L651.365 215.114C651.843 214.99 652.351 215.127 652.703 215.475L673.007 235.546C673.847 236.379 673.35 237.82 672.176 237.952Z" fill="#263238"/>
<path d="M673.332 225.854C673.332 225.854 672.983 224.396 667.516 222.722C663.361 221.451 659.235 217.55 658.565 217.684C657.895 217.819 657.161 219.941 658.889 221.818C660.618 223.694 662.406 224.753 661.95 225.469C660.85 227.198 647.33 225.79 647.097 227.271C646.864 228.751 649.441 232.987 656.68 235.82C663.92 238.653 673.843 235.812 673.843 235.812L673.332 225.854Z" fill="#B97964"/>
<path d="M605.117 390.766L34.9932 404.172V306.35H610.602L605.117 390.766Z" fill="#263238"/>
<path opacity="0.5" d="M605.117 390.766L34.9932 404.172V306.35H610.602L605.117 390.766Z" fill="black"/>
<path d="M13.0654 331.448V381.059C13.0622 391.688 19.9652 401.076 30.0882 404.21L34.1181 405.439C36.5998 406.211 39.1899 406.571 41.7866 406.507L68.413 405.884C65.2505 394.782 64.9718 383.053 67.6042 371.812C76.1248 335.431 112.432 312.867 148.699 321.414C184.965 329.962 207.457 366.385 198.937 402.766L469.871 396.303C469.433 393.128 469.22 389.925 469.234 386.719C469.396 349.347 499.728 319.184 536.981 319.346C574.235 319.509 604.304 349.937 604.141 387.309C604.141 388.627 604.035 389.927 604.035 391.227C604.389 391.084 604.762 390.942 605.118 390.763L614.384 386.614C623.523 382.472 629.398 373.346 629.401 363.286V262.246C629.402 252.742 624.153 244.019 615.769 239.595L546.132 202.857C545.335 202.431 544.721 201.725 544.41 200.875C543.711 198.964 544.688 196.846 546.593 196.143L555.113 193.081C555.828 192.834 556.341 192.203 556.439 191.45C556.58 190.358 555.811 189.358 554.723 189.216C521.635 184.586 392.94 167.705 325.29 176.003C247.256 185.584 172.471 253.52 172.471 253.52C115.046 251.365 61.4374 271.417 38.3616 281.477C30.9111 284.74 25.1801 291.006 22.5813 298.733L14.682 322.203C13.6466 325.179 13.1012 328.299 13.0654 331.448Z" fill="#407BFF"/>
<path d="M469.942 396.304C469.55 393.323 469.354 390.319 469.357 387.311C469.357 385.78 469.41 384.266 469.499 382.753L420.506 362.648C417.638 361.477 414.543 360.972 411.453 361.17L241.043 372.389C238.258 372.565 235.537 373.317 233.055 374.597L200.677 391.301C200.446 395.163 199.894 398.999 199.025 402.769L469.942 396.304Z" fill="#263238"/>
<path d="M629.418 363.287V360.705L601.708 369.217C603.323 375.111 604.142 381.197 604.14 387.31C604.14 388.628 604.034 389.928 604.034 391.228C604.388 391.085 604.761 390.943 605.117 390.764L614.401 386.615C623.539 382.475 629.414 373.348 629.418 363.287Z" fill="#263238"/>
<path d="M20.9287 398.867C23.573 401.321 26.7345 403.146 30.1768 404.21L34.2067 405.439C36.6884 406.211 39.2785 406.571 41.8752 406.507L68.5016 405.884C67.5378 402.508 66.8428 399.06 66.4243 395.573L20.9287 398.867Z" fill="#263238"/>
<path d="M536.864 313.284C533.803 313.283 530.743 313.474 527.704 313.855C487.274 318.92 458.592 355.906 463.641 396.465L470.031 396.305C469.592 393.13 469.379 389.927 469.394 386.722C469.556 349.349 499.887 319.186 537.141 319.348C574.395 319.511 604.462 349.939 604.301 387.311C604.301 388.629 604.194 389.929 604.194 391.229C604.549 391.086 604.922 390.944 605.278 390.765L610.603 388.343C610.603 387.987 610.603 387.648 610.603 387.31C610.554 346.44 577.534 313.323 536.794 313.283L536.864 313.284Z" fill="#263238"/>
<path d="M133.365 313.284C127.062 313.283 120.787 314.091 114.69 315.689C75.26 326.026 51.6486 366.471 61.9527 406.026L68.5022 405.884C65.3397 394.782 65.061 383.053 67.6945 371.812C76.2151 335.431 112.522 312.867 148.789 321.414C185.055 329.962 207.548 366.385 199.027 402.768L205.559 402.608C206.622 397.567 207.157 392.429 207.156 387.276C207.146 346.402 174.108 313.275 133.365 313.284Z" fill="#263238"/>
<path d="M197.578 256.366C196.789 257.036 196.228 257.999 195.992 259.088C195.434 261.67 196.809 264.272 199.064 264.9L227.228 272.819C229.723 273.528 232.311 273.724 234.87 273.397L443.692 247.443C448.773 246.796 453.511 244.158 457.1 239.978L484.494 207.963C485.407 206.904 485.985 205.53 486.135 204.056C486.509 200.412 484.232 197.126 481.047 196.714C431.043 190.062 367.819 184.015 327.895 188.908C275.572 195.316 222.892 234.772 197.578 256.366Z" fill="#407BFF"/>
<path opacity="0.8" d="M198.519 256.366C197.73 257.036 197.169 257.999 196.934 259.088C196.376 261.67 197.75 264.272 200.005 264.9L228.169 272.819C230.664 273.528 233.252 273.724 235.811 273.397L439.958 259.359C445.04 258.712 452.895 249.343 458.449 241.737L485.433 207.964C486.346 206.906 486.924 205.531 487.075 204.057C487.449 200.413 485.171 197.127 481.987 196.715C431.982 190.063 368.759 184.016 328.835 188.91C276.513 195.316 223.835 234.772 198.519 256.366Z" fill="white"/>
<g opacity="0.3">
<path d="M334.933 276.325C333.596 275.842 332.902 274.362 333.383 273.021C333.975 271.36 335.514 270.226 337.271 270.154L362.123 269.103C362.459 269.088 362.794 269.139 363.111 269.252C364.458 269.735 365.161 271.223 364.678 272.576C364.075 274.237 362.534 275.369 360.773 275.443L335.921 276.476C335.585 276.491 335.249 276.439 334.933 276.325Z" fill="black"/>
</g>
<path d="M519.748 204.897C517.551 206.858 517.353 210.235 519.308 212.439L525.202 218.869C525.878 219.59 526.737 220.113 527.687 220.383L599.88 240.469C601.137 240.809 602.431 240.982 603.733 240.986H618.075C617.329 240.486 616.566 240.024 615.768 239.597L546.131 202.824L546.126 202.822C544.368 201.95 543.647 199.815 544.515 198.051L521.9 203.732C521.102 203.947 520.366 204.346 519.748 204.897Z" fill="#407BFF"/>
<path d="M70.1977 290.933L45.565 288.242L31.4131 294.049C28.4381 295.271 26.2155 297.833 25.423 300.959C24.959 302.767 25.2192 304.685 26.1505 306.302L26.3988 306.729C27.9817 309.462 31.0521 310.968 34.1735 310.54L48.3741 308.581C49.7586 308.382 51.0705 307.837 52.1904 306.997L68.5746 294.531L70.1977 290.933Z" fill="white"/>
<path d="M172.522 253.486L176.445 254.607C179.494 255.48 182.775 254.771 185.197 252.719C208.024 233.344 247.716 203.623 290.549 189.769C290.739 189.706 290.899 189.574 290.997 189.4C291.212 189.014 291.076 188.526 290.691 188.309L285.365 185.567C223.575 207.061 172.522 253.486 172.522 253.486Z" fill="#407BFF"/>
<path opacity="0.8" d="M172.522 253.486L176.445 254.607C179.494 255.48 182.775 254.771 185.197 252.719C208.024 233.344 247.716 203.623 290.549 189.769C290.739 189.706 290.899 189.574 290.997 189.4C291.212 189.014 291.076 188.526 290.691 188.309L285.365 185.567C223.575 207.061 172.522 253.486 172.522 253.486Z" fill="white"/>
<path opacity="0.2" d="M406.624 279.645L199.025 294.538L202.933 320.222C204.13 328.091 207.038 335.599 211.45 342.214L228.801 368.229L405.986 344.197L489.754 279.645H406.624Z" fill="white"/>
<path d="M536.799 443.682C567.838 443.682 592.999 418.441 592.999 387.304C592.999 356.166 567.838 330.925 536.799 330.925C505.761 330.925 480.6 356.166 480.6 387.304C480.6 418.441 505.761 443.682 536.799 443.682Z" fill="#263238"/>
<path opacity="0.4" d="M536.799 421.868C555.828 421.868 571.253 406.393 571.253 387.304C571.253 368.214 555.828 352.739 536.799 352.739C517.77 352.739 502.345 368.214 502.345 387.304C502.345 406.393 517.77 421.868 536.799 421.868Z" fill="white"/>
<g opacity="0.3">
<path d="M539.563 358.978V376.697C539.563 378.222 538.331 379.457 536.811 379.457H536.794C535.274 379.457 534.042 378.222 534.042 376.697V358.978C534.042 357.453 535.274 356.218 536.794 356.218H536.811C538.33 356.218 539.563 357.453 539.563 358.978Z" fill="white"/>
</g>
<g opacity="0.3">
<path d="M539.563 397.923V415.642C539.563 417.167 538.331 418.402 536.811 418.402H536.794C535.274 418.402 534.042 417.167 534.042 415.642V397.923C534.042 396.398 535.274 395.163 536.794 395.163H536.811C538.33 395.164 539.563 396.4 539.563 397.923Z" fill="white"/>
</g>
<g opacity="0.3">
<path d="M547.327 384.406C546.006 385.161 544.327 384.7 543.574 383.375C543.573 383.373 543.571 383.371 543.57 383.367C542.813 382.046 543.269 380.358 544.586 379.599L559.87 370.695C561.193 369.93 562.886 370.383 563.65 371.71C564.401 373.034 563.95 374.719 562.639 375.485L547.355 384.389C547.346 384.395 547.336 384.401 547.327 384.406Z" fill="white"/>
</g>
<g opacity="0.3">
<path d="M513.71 403.804C512.392 404.563 510.71 404.107 509.954 402.785C509.953 402.783 509.951 402.781 509.95 402.777C509.193 401.456 509.648 399.768 510.966 399.009L526.249 390.105L526.251 390.104C527.565 389.337 529.248 389.784 530.013 391.103C530.779 392.426 530.335 394.122 529.018 394.895L513.717 403.799C513.715 403.802 513.712 403.803 513.71 403.804Z" fill="white"/>
</g>
<g opacity="0.3">
<path d="M559.87 403.872L544.586 394.968C543.263 394.2 542.81 392.504 543.575 391.176C544.345 389.855 546.037 389.409 547.355 390.178L562.639 399.082C563.951 399.848 564.403 401.533 563.65 402.857C562.886 404.184 561.194 404.637 559.87 403.872Z" fill="white"/>
</g>
<g opacity="0.3">
<path d="M530.008 383.382C529.247 384.701 527.564 385.152 526.249 384.39L510.965 375.486C510.963 375.485 510.961 375.483 510.958 375.482C509.642 374.718 509.193 373.03 509.953 371.711C509.954 371.709 509.956 371.707 509.957 371.704C510.718 370.384 512.401 369.933 513.716 370.695L529.017 379.599L529.018 379.6C530.331 380.367 530.775 382.057 530.011 383.374C530.011 383.377 530.009 383.379 530.008 383.382Z" fill="white"/>
</g>
<path d="M532.177 387.293C532.177 384.736 534.243 382.663 536.792 382.663C536.798 382.663 536.804 382.663 536.809 382.663C539.368 382.663 541.442 384.743 541.442 387.31C541.442 389.877 539.368 391.958 536.809 391.958C534.251 391.958 532.177 389.877 532.177 387.31C532.177 387.305 532.177 387.298 532.177 387.293Z" fill="#263238"/>
<path d="M133.362 443.692C164.4 443.692 189.562 418.451 189.562 387.313C189.562 356.176 164.4 330.935 133.362 330.935C102.324 330.935 77.1621 356.176 77.1621 387.313C77.1621 418.451 102.324 443.692 133.362 443.692Z" fill="#263238"/>
<path opacity="0.4" d="M133.363 421.879C152.392 421.879 167.818 406.403 167.818 387.313C167.818 368.224 152.392 352.748 133.363 352.748C114.333 352.748 98.9072 368.224 98.9072 387.313C98.9072 406.403 114.333 421.879 133.363 421.879Z" fill="white"/>
<g opacity="0.3">
<path d="M136.116 358.978V376.697C136.116 378.222 134.885 379.457 133.365 379.457H133.347C131.827 379.457 130.596 378.222 130.596 376.697V358.978C130.596 357.453 131.827 356.218 133.347 356.218H133.365C134.884 356.218 136.116 357.453 136.116 358.978Z" fill="white"/>
</g>
<g opacity="0.3">
<path d="M136.116 397.923V415.642C136.116 417.167 134.885 418.402 133.365 418.402H133.347C131.827 418.402 130.596 417.167 130.596 415.642V397.923C130.596 396.398 131.827 395.163 133.347 395.163H133.365C134.884 395.164 136.116 396.399 136.116 397.923Z" fill="white"/>
</g>
<g opacity="0.3">
<path d="M143.871 384.412C142.557 385.158 140.888 384.693 140.145 383.375L140.144 383.374C139.38 382.056 139.825 380.367 141.139 379.6L156.441 370.696C156.443 370.695 156.445 370.694 156.448 370.692C157.765 369.933 159.448 370.389 160.205 371.711C160.206 371.713 160.207 371.715 160.209 371.719C160.966 373.04 160.512 374.728 159.193 375.487L143.91 384.391C143.895 384.397 143.884 384.405 143.871 384.412Z" fill="white"/>
</g>
<g opacity="0.3">
<path d="M106.507 402.785C106.506 402.783 106.504 402.781 106.503 402.777C105.746 401.456 106.201 399.768 107.518 399.009L122.802 390.105C124.121 389.336 125.812 389.782 126.583 391.103C127.346 392.431 126.894 394.129 125.571 394.895L110.287 403.799C108.964 404.567 107.271 404.112 106.507 402.785Z" fill="white"/>
</g>
<g opacity="0.3">
<path d="M160.199 402.863C159.439 404.183 157.755 404.634 156.44 403.872L141.139 394.968C139.823 394.195 139.378 392.498 140.145 391.176L140.146 391.175C140.911 389.857 142.595 389.411 143.908 390.178L159.192 399.082C159.194 399.083 159.196 399.085 159.199 399.086C160.515 399.85 160.965 401.538 160.205 402.857C160.202 402.859 160.201 402.861 160.199 402.863Z" fill="white"/>
</g>
<g opacity="0.3">
<path d="M126.567 383.403C125.799 384.718 124.113 385.161 122.802 384.39L107.519 375.486C107.517 375.485 107.514 375.483 107.512 375.482C106.197 374.718 105.747 373.031 106.507 371.711C107.273 370.384 108.965 369.93 110.288 370.696L125.572 379.6C125.574 379.601 125.576 379.603 125.579 379.604C126.894 380.368 127.344 382.056 126.584 383.375C126.578 383.384 126.572 383.394 126.567 383.403Z" fill="white"/>
</g>
<path d="M133.364 382.663C135.923 382.663 137.997 384.743 137.997 387.31C137.997 389.877 135.923 391.958 133.364 391.958C130.805 391.958 128.731 389.877 128.731 387.31C128.73 384.743 130.805 382.663 133.364 382.663Z" fill="#263238"/>
<path opacity="0.3" d="M623.521 280.947C625.393 280.361 626.439 278.366 625.855 276.487C625.204 264.619 622.688 254.05 615.435 246.784C614.95 245.186 613.421 244.142 611.761 244.273L568.928 248.333C568.182 248.413 567.482 248.727 566.926 249.232C565.472 250.551 565.359 252.804 566.673 254.262L578.941 267.531C579.367 267.99 579.905 268.327 580.503 268.511L621.508 280.976C622.167 281.161 622.867 281.151 623.521 280.947Z" fill="black"/>
<path d="M195.992 259.068C195.434 261.65 196.809 264.251 199.064 264.879L227.228 272.798C229.723 273.507 231.812 273.992 235.056 274.139L243.923 273.55L235.561 228.227C216.245 240.953 214.922 241.533 197.578 256.345C196.789 257.015 196.229 257.978 195.992 259.068Z" fill="#263238"/>
<path d="M379.459 187.446L361.767 264.841L384.91 263.172L395.478 188.17C390.063 187.86 384.723 187.618 379.459 187.446Z" fill="#263238"/>
<path d="M452.894 248.698L485.4 207.964C486.334 206.897 486.926 205.5 487.077 204.002C487.442 200.357 485.157 197.077 481.972 196.675C475.312 195.768 468.226 194.895 461.14 194.041" fill="#263238"/>
<path d="M221.608 266.936C215.981 267.002 211.366 262.481 211.299 256.836C211.245 252.035 214.523 247.841 219.184 246.749L232.761 243.556L236.215 266.38L221.878 266.929C221.788 266.932 221.698 266.935 221.608 266.936Z" fill="#407BFF"/>
<path opacity="0.3" d="M232.24 266.535L236.215 266.38L232.761 243.556L228.884 244.476L232.24 266.535Z" fill="black"/>
<path opacity="0.6" d="M384.429 263.177C384.596 271.198 384.509 279.683 383.645 284.018C381.725 293.651 366.756 364.111 366.756 364.111" stroke="black" stroke-width="0.5" stroke-miterlimit="10" stroke-linecap="round" stroke-linejoin="round"/>
<path opacity="0.6" d="M195.867 260.768C195.867 260.768 200.342 321.691 207.154 334.015C213.797 346.035 233.054 374.596 233.054 374.596" stroke="black" stroke-width="0.5" stroke-miterlimit="10" stroke-linecap="round" stroke-linejoin="round"/>
<path opacity="0.6" d="M180.244 254.974C180.244 254.974 132.382 266.837 118.297 269.1C106.733 270.959 59.7163 282.435 45.5645 288.243" stroke="black" stroke-width="0.5" stroke-miterlimit="10" stroke-linecap="round" stroke-linejoin="round"/>
<path opacity="0.8" d="M519.748 204.897C517.551 206.858 517.353 210.235 519.308 212.439L525.202 218.869C525.878 219.59 526.737 220.113 527.687 220.383L599.88 240.469C601.137 240.809 602.431 240.982 603.733 240.986H618.075C617.329 240.486 616.566 240.024 615.768 239.597L546.131 202.824L546.126 202.822C544.368 201.95 543.647 199.815 544.515 198.051L521.9 203.732C521.102 203.947 520.366 204.346 519.748 204.897Z" fill="white"/>
<path d="M248.6 251.183C247.95 251.577 240.285 259.524 240.285 259.524L241.78 269.375L251.418 259.395L248.6 251.183Z" fill="#263238"/>
<path d="M260.144 271.731C258.449 272.57 256.398 271.872 255.562 270.172L240.271 239.091C239.435 237.391 240.13 235.333 241.825 234.495C243.519 233.656 245.57 234.353 246.406 236.053L261.698 267.135C262.534 268.834 261.839 270.892 260.144 271.731Z" fill="#263238"/>
<path d="M276.829 234.318C276.829 234.318 284.415 264.68 288.861 265.825C296.917 267.902 324.638 265.577 324.097 264.68L322.917 250.715C322.917 250.715 294.978 255.352 295.195 254.859L284.666 231.261L276.829 234.318Z" fill="#EBB373"/>
<path d="M283.806 233.095C283.806 233.095 286.298 230.768 286.367 227.945C286.435 225.121 287.238 222.885 287.145 220.784C287.052 218.681 285.298 220.912 284.605 222.288C283.912 223.664 283.112 225.216 282.165 224.526C281.22 223.837 277.103 214.632 275.683 213.826C274.264 213.019 274.465 214.717 274.465 214.717C274.465 214.717 273.406 212.508 272.42 212.692C272.164 212.74 271.644 213.267 271.97 214.349C272.703 216.785 274.502 221.815 274.502 221.815C274.405 221.525 271.741 215.474 271.224 214.62C270.548 213.504 269.663 213.324 269.03 213.737C268.131 214.327 271.178 221.941 271.083 222.352C271.083 222.352 269.474 217.909 268.103 217.698C266.733 217.487 267.594 220.339 268.829 222.709C269.961 224.882 271.614 229.441 272.979 231.538C274.661 234.123 276.368 235.478 279.219 235.041C282.07 234.602 283.806 233.095 283.806 233.095Z" fill="#EBB373"/>
<path opacity="0.3" d="M274.661 214.98C275.466 216.772 276.19 218.6 276.83 220.456" stroke="black" stroke-width="0.25" stroke-miterlimit="10" stroke-linecap="round" stroke-linejoin="round"/>
<path opacity="0.3" d="M271.648 224.099C273.601 222.485 276.035 221.465 278.553 221.206" stroke="black" stroke-width="0.25" stroke-miterlimit="10" stroke-linecap="round" stroke-linejoin="round"/>
<path opacity="0.3" d="M281.543 225.628C280.676 226.188 280.013 227.06 279.702 228.045C279.391 229.031 279.434 230.126 279.822 231.084" stroke="black" stroke-width="0.25" stroke-miterlimit="10" stroke-linecap="round" stroke-linejoin="round"/>
<path d="M355.967 248.619C350.892 241.896 342.839 242.569 337.606 243.492L327.232 245.207C326.904 245.261 326.58 245.338 326.263 245.437L323.896 246.176L301.708 253.305L307.063 267.557L314.308 266.666L313.101 268.631L320.216 268.176L359.036 266.145L359.037 266.144L359.039 258.24C359.04 254.789 358.042 251.368 355.967 248.619Z" fill="#263238"/>
<path d="M353.868 259.832C353.868 259.832 348.995 292.582 345.554 296.051C337.33 304.338 306.9 281.54 306.9 281.54L307.84 272.738L334.125 283.657L339.045 255.842L353.868 259.832Z" fill="#EBB373"/>
<path d="M357.868 257.6C357.63 258.411 355.53 281.252 355.53 281.252L333.239 279.169C333.239 279.169 334.401 272.826 336.088 261.73C337.845 250.176 338.873 244.338 344.581 243.397C355.396 241.614 357.868 257.6 357.868 257.6Z" fill="#263238"/>
<path d="M350.397 205.866C353.757 211.778 354.928 215.316 355.233 220.986C355.588 227.612 355.289 233.462 353.816 235.16C351.882 237.388 330.976 239.479 319.263 239.003C318.838 238.986 318.486 235.255 318.486 235.255C318.486 235.255 316.825 238.899 316.275 238.873C313.078 238.728 311.029 238.609 311.029 238.609C311.029 238.609 313.679 233.137 316.927 213.399C318.513 203.758 328.179 199.91 333.874 199.184C343.366 197.977 350.397 205.866 350.397 205.866Z" fill="#263238"/>
<path d="M322.54 224.485C319.474 219.165 316.431 204.831 329.206 200.409C345.153 194.889 352.296 205.093 353.666 215.203C355.037 225.314 349.355 232.955 338.817 232.189C328.28 231.422 324.661 228.165 322.54 224.485Z" fill="#263238"/>
<path d="M344.681 225.203L335.26 233.896L333.446 235.835C333.949 237.204 334.369 238.61 334.513 239.96C334.798 242.342 333.33 244.139 333.33 244.139L331.216 248.961C335.933 245.251 346.682 243.269 346.682 243.269C344.919 237.083 344.175 231.277 344.681 225.203Z" fill="#EBB373"/>
<path opacity="0.2" d="M334.561 240.483C337.105 239.125 339.939 236.694 339.749 233.757C339.66 232.521 339.45 231.343 339.191 230.581L333.854 237.026C334.217 238.122 334.335 238.841 334.561 240.483Z" fill="black"/>
<path d="M347.682 215.546C346.405 224.784 346.061 228.711 341.063 233.353C333.546 240.336 322.616 237.361 321.14 228.076C319.812 219.72 322.121 206.017 331.38 202.54C340.503 199.115 348.958 206.307 347.682 215.546Z" fill="#EBB373"/>
<path d="M335.931 218.367C335.835 219.299 335.228 220.041 334.572 220.025C333.917 220.008 333.463 219.239 333.559 218.307C333.653 217.375 334.261 216.633 334.916 216.65C335.571 216.666 336.025 217.435 335.931 218.367Z" fill="#263238"/>
<path d="M326.325 217.75C326.231 218.64 325.635 219.348 324.992 219.332C324.349 219.316 323.902 218.581 323.996 217.692C324.088 216.802 324.685 216.094 325.328 216.11C325.971 216.127 326.418 216.861 326.325 217.75Z" fill="#263238"/>
<path d="M337.397 215.003C337.269 215.023 337.137 214.994 337.036 214.914C335.448 213.662 333.717 214.21 333.696 214.217C333.439 214.298 333.174 214.175 333.108 213.935C333.042 213.695 333.199 213.43 333.459 213.344C333.549 213.315 335.723 212.624 337.693 214.179C337.889 214.333 337.901 214.623 337.72 214.827C337.633 214.925 337.516 214.985 337.397 215.003Z" fill="#263238"/>
<path d="M323.261 213.093C323.161 213.04 323.083 212.953 323.051 212.841C322.983 212.609 323.13 212.363 323.378 212.292C325.87 211.572 327.499 212.844 327.568 212.9C327.761 213.054 327.778 213.33 327.607 213.516C327.436 213.702 327.142 213.728 326.949 213.575C326.886 213.524 325.606 212.555 323.626 213.128C323.496 213.166 323.366 213.15 323.261 213.093Z" fill="#263238"/>
<path d="M340.337 206.937C337.251 209.9 338.173 221.676 346.361 223.59C355.98 221.787 349.546 198.095 340.337 206.937Z" fill="#263238"/>
<path d="M328.361 226.53C329.061 227.727 329.862 230.022 329.862 230.022C330.082 229.986 330.302 229.952 330.52 229.905C333.496 229.35 334.694 228.107 335.12 226.896C335.35 226.233 335.341 225.574 335.265 225.048C335.184 224.44 334.988 224.025 334.988 224.025C333.585 225.265 330.851 225.996 329.373 226.325C328.756 226.469 328.361 226.53 328.361 226.53Z" fill="#263238"/>
<path d="M329.373 226.324L329.841 227.342C332.644 226.814 334.546 226.064 335.266 225.047C335.184 224.439 334.988 224.024 334.988 224.024C333.585 225.264 330.851 225.995 329.373 226.324Z" fill="white"/>
<path d="M330.521 229.905C333.497 229.35 334.695 228.107 335.121 226.896C334.113 227.125 332.925 227.512 331.938 228.169C331.181 228.668 330.763 229.299 330.521 229.905Z" fill="#DC5753"/>
<path d="M328.946 217.22C328.946 217.22 327.011 221.32 325.099 223.282C326.228 224.484 328.367 223.979 328.367 223.979L328.946 217.22Z" fill="#E4873E"/>
<path d="M333.092 216.122L335.191 216.724C334.179 217.765 333.092 216.122 333.092 216.122Z" fill="#263238"/>
<path d="M323.61 215.588L325.709 216.19C324.698 217.231 323.61 215.588 323.61 215.588Z" fill="#263238"/>
<path d="M331.536 200.555C327.827 201.627 323.654 207.788 322.896 210.197C328.05 211.291 342.274 207.062 342.274 207.062C342.274 207.062 351.496 210.085 346.984 205.113C342.472 200.142 331.536 200.555 331.536 200.555Z" fill="#263238"/>
<path d="M350.129 223.236C348.949 225.089 347.118 226.2 345.473 226.534C342.996 227.037 341.914 223.029 342.864 220.608C343.718 218.428 346.191 217.074 348.552 217.668C350.877 218.253 351.479 221.12 350.129 223.236Z" fill="#EBB373"/>
<path d="M318.335 211.678C317.626 215.738 316.906 219.834 315.354 223.651C313.803 227.467 310.583 235.339 307.063 237.466" stroke="#263238" stroke-width="0.5" stroke-miterlimit="10"/>
<path d="M344.74 226.257C344.696 227.212 345.432 228.023 346.385 228.067C347.338 228.111 348.146 227.372 348.189 226.417C348.233 225.462 347.497 224.65 346.544 224.607C345.592 224.563 344.785 225.302 344.74 226.257Z" fill="#407BFF"/>
<path opacity="0.1" d="M348.315 220.501C347.51 220.232 346.585 220.355 345.877 220.825C345.169 221.295 344.694 222.101 344.626 222.949" stroke="black" stroke-width="0.5" stroke-miterlimit="10" stroke-linecap="round" stroke-linejoin="round"/>
<path d="M318.18 278.832L307.84 272.739L305.02 269.119C305.02 269.119 302.118 265.677 299.774 265.458C298.102 265.3 296.371 266.169 296.371 266.169C296.371 266.169 293.656 267.893 295.32 270.476C295.32 270.476 292.634 271.864 294.463 274.868C294.463 274.868 291.896 274.912 294.088 277.61C296.28 280.307 298.878 280.843 300.942 281.161C303.006 281.477 305.489 280.756 305.489 280.756L316.905 288.283L318.18 278.832Z" fill="#EBB373"/>
<path d="M335.191 267.422L337.06 255.691L331.369 267.555L335.191 267.422Z" fill="black"/>
<path d="M314.308 266.664L318.96 257.188L310.027 267.19L314.308 266.664Z" fill="black"/>
</g>
<defs>
<clipPath id="clip0_24_355">
<rect width="768" height="444" fill="white"/>
</clipPath>
</defs>
</svg>
