<svg width="128" height="128" viewBox="0 0 128 128" fill="none" xmlns="http://www.w3.org/2000/svg">
<rect width="128" height="128" fill="#E5E5E5"/>
<g id="Favicon">
<rect width="128" height="128" rx="25" fill="#407BFF"/>
<g id="Group 151">
<path id="Vector" d="M47.8977 37.3944C43.2919 38.118 38.1679 39.9602 34.3681 42.2628L31.7773 43.8418H34.3681C36.3256 43.9076 37.5922 43.3812 39.4345 41.9339C43.81 38.5786 49.0492 38.5128 51.8126 41.8023C53.4822 43.776 54.058 46.5392 52.9641 46.9997C52.5035 47.1971 52.2156 46.7365 52.2156 45.947C52.2156 44.8286 51.8702 44.5655 50.3733 44.5655C49.337 44.5655 48.0704 44.8944 47.6098 45.2234C46.9765 45.6839 47.322 45.8813 48.934 45.8813C51.3521 45.8813 51.9854 47.526 49.7976 48.0523C49.0492 48.1839 49.9703 48.3813 51.7551 48.4471C57.0518 48.5786 58.0881 47.4602 55.3246 44.4997C54.5186 43.6444 53.5974 42.3286 53.3671 41.6049C52.5035 39.1049 53.655 38.6444 61.0818 38.5786C66.2634 38.5128 67.53 38.3812 66.0331 37.9207C62.7514 36.9996 52.2732 36.6707 47.8977 37.3944Z" fill="white"/>
<path id="Vector_2" d="M19.3994 40.1576C19.3994 41.4734 22.278 43.0523 25.6173 43.4471C28.5535 43.8418 29.7049 43.1181 27.4596 42.2629C26.8263 42.0655 26.3081 41.605 26.3081 41.276C26.3081 40.4207 28.1505 40.026 32.6411 39.7628C34.7137 39.6313 32.5836 39.4997 27.9202 39.4339C21.2993 39.3023 19.3994 39.4997 19.3994 40.1576Z" fill="white"/>
<path id="Vector_3" d="M20.8376 46.1445L18.5347 46.9997L22.1042 46.934C26.71 46.8682 28.2645 48.1182 30.9704 54.3024C34.252 61.8683 35.6338 63.0525 42.5425 64.5657C47.321 65.6183 51.639 66.2762 51.639 65.8815C51.639 65.7499 49.0482 64.763 45.9393 63.6446C37.7064 60.6841 33.7914 57.1314 33.5611 52.3287C33.5036 49.7629 32.5248 49.8287 45.0757 51.2761C51.236 51.9998 54.2297 52.6577 55.3236 53.4472C56.8205 54.5656 56.8781 54.5656 58.4325 52.9866C61.599 49.5656 64.0747 49.0392 67.529 50.8814C70.5804 52.5261 72.3076 56.5393 73.5166 64.763C74.3802 70.8157 74.7832 71.9999 76.0498 73.3157C76.9134 74.171 78.2951 74.8289 79.1587 74.8289L80.7132 74.7631L79.5042 73.6447C77.777 71.9999 76.971 70.0262 76.971 67.4604C76.971 64.6314 77.8345 63.6446 80.195 63.6446C81.5768 63.6446 82.6706 64.3025 84.2827 66.013C87.8522 69.9604 88.7158 70.3552 93.7822 70.6183L98.5607 70.8815L94.9336 69.9604C92.6883 69.4341 90.7884 68.5788 90.04 67.6578C88.8309 66.2762 88.8309 66.1446 89.8097 65.3551C90.3278 64.8946 93.2065 64.3025 96.2002 64.0393C105.585 63.2499 105.642 62.4604 96.3729 62.3946C83.9948 62.3288 78.6406 60.4209 73.9196 54.4998C71.3288 51.2761 71.0985 49.1708 73.2863 49.1708C75.1862 49.1708 76.7407 50.1577 79.6193 53.1182C82.0373 55.684 84.0524 56.4077 91.0763 57.4603C93.8398 57.8551 93.8973 57.7893 92.6307 56.7367C90.2702 54.763 79.6193 49.2366 76.1074 48.184C71.847 46.934 69.3714 46.934 63.1535 48.184C57.4538 49.3024 41.5062 49.4998 38.2821 48.4471C37.0731 48.1182 36.0943 47.3945 36.0943 46.934C36.0943 46.4076 35.2883 45.8813 34.3096 45.6182C31.3158 44.9603 23.3132 45.2892 20.8376 46.1445Z" fill="white"/>
<path id="Vector_4" d="M81.2891 45.8813C81.4618 46.2102 82.2678 46.5392 83.0739 46.5392C85.3768 46.5392 91.3643 49.105 94.1854 51.276L96.8337 53.3155L95.1065 51.2103C94.1854 50.026 92.4582 48.4471 91.3643 47.7892L89.3493 46.4734L91.3643 46.9339C94.243 47.526 101.037 50.8155 104.951 53.5129C107.888 55.5524 108.176 55.6182 106.967 54.1708C104.951 51.6708 98.273 47.9865 93.3218 46.5392C88.6008 45.1576 80.6558 44.6971 81.2891 45.8813Z" fill="white"/>
<path id="Vector_5" d="M22.1046 51.276C24.6954 54.4339 25.2135 55.9471 25.6166 61.8682L26.0196 67.263L33.504 67.9867C45.0761 69.1709 46.3427 68.9077 37.5341 67.1972C29.1285 65.5524 28.0346 64.9603 28.0346 61.8682C28.0346 58.7761 25.6741 53.1839 23.5439 51.1444C20.7804 48.5129 19.8593 48.6444 22.1046 51.276Z" fill="white"/>
<path id="Vector_6" d="M16.6354 50.6181C15.5415 52.1971 14.7355 57.1971 15.0809 59.9603C15.5991 63.5129 17.499 67.263 19.2261 68.184C20.9533 69.1051 23.2562 69.1051 23.7168 68.2498C23.9471 67.8551 23.429 67.5919 22.5654 67.5919C19.0534 67.5919 17.096 64.4998 17.096 58.8419C17.096 55.9471 17.3838 54.9602 18.5353 53.5129L19.917 51.8023H18.4201C17.3838 51.8023 17.0384 51.5392 17.3263 50.8155C17.7293 49.6313 17.4414 49.5655 16.6354 50.6181Z" fill="white"/>
<path id="Vector_7" d="M59.1818 54.3682C55.2093 59.2367 55.4396 67.4604 59.7 72.3289C61.6574 74.6315 62.118 74.8289 65.0542 74.8289C67.4147 74.8289 68.5662 74.4999 69.5449 73.4473C70.8691 72.1973 70.8691 72.1315 69.66 72.7894C64.2482 75.8157 58.7212 70.2894 59.2394 62.4604C59.4697 59.3683 59.8151 58.513 61.3696 56.934C62.3483 55.9472 63.8452 55.0919 64.7664 55.0261C66.3208 55.0261 66.3208 55.0261 64.9966 54.3682C64.0179 53.9735 63.1543 54.1051 61.8877 54.8287C59.7575 56.0788 59.2394 55.6182 60.7938 53.8419C61.4847 53.0524 61.715 52.4603 61.3696 52.4603C61.0241 52.4603 60.0454 53.3156 59.1818 54.3682Z" fill="white"/>
<path id="Vector_8" d="M110.363 59.1708C110.651 60.355 110.997 63.184 111.227 65.4209C111.688 70.2893 111.803 70.1578 104.376 71.8683C96.3732 73.6446 98.6185 73.9736 108.521 72.3946C109.845 72.1972 111.515 71.5393 112.148 70.9472C113.242 69.9604 113.242 69.6972 112.378 64.763C111.63 60.0919 110.709 57.0656 110.075 57.0656C109.96 57.0656 110.075 58.0524 110.363 59.1708Z" fill="white"/>
<path id="Vector_9" d="M46.9181 69.3682C47.609 69.4998 48.6453 69.4998 49.221 69.3682C49.7392 69.1709 49.1634 69.0393 47.8968 69.1051C46.6302 69.1051 46.1696 69.2367 46.9181 69.3682Z" fill="white"/>
<path id="Vector_10" d="M19.6862 86.3421C18.0742 91.2763 18.1893 93.579 19.8013 90.75C20.9528 88.8421 23.7163 88.7763 24.5799 90.6184C25.2707 92.0658 26.3071 92.3948 26.3071 91.1447C26.3071 90.6842 25.6162 88.3158 24.7526 85.8816C22.68 79.8289 21.7012 79.8947 19.6862 86.3421ZM23.1406 86.4737C23.4284 87.7237 23.2557 87.9868 22.3345 87.9868C21.0104 87.9868 20.9528 87.7895 21.471 85.4868C21.874 83.7763 22.5073 84.171 23.1406 86.4737Z" fill="white"/>
<path id="Vector_11" d="M26.3081 81.5394C26.3081 81.671 27.0566 83.9737 27.9201 86.671C30.0503 93.25 30.9139 93.3158 32.8714 87.1974C34.5986 81.671 34.6561 81.4078 33.6198 81.4078C33.2168 81.4078 32.4108 83.0526 31.8351 85.0921C31.2594 87.1316 30.6261 88.5789 30.4533 88.3158C30.223 88.1184 29.6473 86.5395 29.1292 84.8289C28.611 83.0526 27.805 81.671 27.2868 81.5394C26.7111 81.4078 26.3081 81.4078 26.3081 81.5394Z" fill="white"/>
<path id="Vector_12" d="M35.519 81.9999C35.519 82.3289 36.0948 82.7236 36.8432 82.8552C37.9947 83.0526 38.1098 83.4473 38.2825 87.4605C38.3977 89.9605 38.6855 91.9342 38.9734 91.9342C39.2613 91.9342 39.5491 89.9605 39.6643 87.4605C39.837 83.4473 39.9521 83.0526 41.1612 82.8552C43.8095 82.3947 42.3126 81.4078 38.9734 81.4078C37.0735 81.4078 35.519 81.671 35.519 81.9999Z" fill="white"/>
<path id="Vector_13" d="M44.7313 82.7236C43.1768 84.5 43.1768 88.579 44.7313 90.4869C47.4948 93.8422 52.2157 91.2106 52.2157 86.3421C52.2157 82.1315 47.322 79.7631 44.7313 82.7236ZM49.5674 83.7763C50.7764 85.0921 50.7188 87.9211 49.5098 89.4342C48.3584 90.8816 47.7251 90.9474 46.3433 89.5C44.4434 87.5263 45.5373 82.7236 47.8978 82.7236C48.3008 82.7236 49.1068 83.1842 49.5674 83.7763Z" fill="white"/>
<path id="Vector_14" d="M53.3662 81.8025C53.3662 81.9999 54.0571 84.3683 54.8631 87.0657C56.8206 93.3158 57.7993 93.4474 59.5265 87.7894C60.2174 85.5526 60.9658 83.1841 61.1385 82.5262C61.4264 81.7368 61.2537 81.4078 60.6779 81.4078C60.0446 81.4078 59.4113 82.6578 58.778 85.0262C58.2023 86.9999 57.569 88.6447 57.3963 88.6447C57.2236 88.6447 56.5903 86.9999 56.0146 85.0262C55.4388 82.8552 54.6904 81.4078 54.1722 81.4078C53.7692 81.4078 53.3662 81.6052 53.3662 81.8025Z" fill="white"/>
<path id="Vector_15" d="M63.7298 82.7236C62.1753 84.4999 62.1753 88.5789 63.7298 90.4868C65.457 92.5921 68.4508 92.4605 70.0052 90.2237C72.4809 86.6052 70.6385 81.4078 66.8387 81.4078C65.6297 81.4078 64.4207 81.9341 63.7298 82.7236ZM68.5659 83.7763C69.7749 85.092 69.7174 87.921 68.5083 89.4342C67.3569 90.8816 66.3782 90.9474 65.2267 89.5658C63.4419 87.5263 64.5934 82.7236 66.8963 82.7236C67.2993 82.7236 68.1053 83.1841 68.5659 83.7763Z" fill="white"/>
<path id="Vector_16" d="M72.9414 86.671V91.9342H75.5322C78.929 91.9342 80.4259 90.2895 80.4259 86.671C80.4259 83.0526 78.929 81.4078 75.5322 81.4078H72.9414V86.671ZM77.7775 83.5789C78.526 84.171 78.7562 85.0921 78.5835 87C78.4108 89.4342 78.2957 89.6316 76.5685 89.8289L74.6686 90.0263V86.8026C74.6686 82.592 75.5322 81.671 77.7775 83.5789Z" fill="white"/>
<path id="Vector_17" d="M82.7285 86.671C82.7285 89.7631 82.959 91.9342 83.3048 91.9342C83.6506 91.9342 83.8812 89.7631 83.8812 86.671C83.8812 83.5789 83.6506 81.4078 83.3048 81.4078C82.959 81.4078 82.7285 83.5789 82.7285 86.671Z" fill="white"/>
<path id="Vector_18" d="M85.6074 81.9999C85.6074 82.3289 86.1831 82.7236 86.9316 82.8552C88.083 83.0526 88.1982 83.4473 88.3709 87.4605C88.4861 90.8816 88.7163 91.9342 89.3496 91.9342C90.0405 91.9342 90.2132 90.9474 90.2132 87.3289C90.2132 83.1841 90.3284 82.7236 91.3647 82.7236C91.998 82.7236 92.5161 82.3947 92.5161 82.0657C92.5161 81.671 90.9617 81.4078 89.0618 81.4078C87.1619 81.4078 85.6074 81.671 85.6074 81.9999Z" fill="white"/>
<path id="Vector_19" d="M94.2427 86.671V91.9342H97.697C100.403 91.9342 101.151 91.7368 101.151 90.9474C101.151 90.2237 100.461 89.9605 98.5606 89.9605C96.3729 89.9605 95.9699 89.7631 95.9699 88.6447C95.9699 87.5263 96.3729 87.3289 98.2728 87.3289C99.9424 87.3289 100.576 87.0657 100.576 86.3421C100.576 85.6184 99.9424 85.3552 98.2152 85.3552C96.3153 85.3552 95.9123 85.1578 96.085 84.171C96.2001 83.3815 96.9486 82.9868 98.7333 82.8552C102.418 82.5262 101.612 81.4078 97.697 81.4078H94.2427V86.671Z" fill="white"/>
<path id="Vector_20" d="M103.455 86.7368V92L106.506 91.8026C109.96 91.6053 110.536 90.421 107.37 90.0921L105.182 89.8947V85.6184C105.182 82.3289 105.009 81.4078 104.318 81.4078C103.627 81.4078 103.455 82.4605 103.455 86.7368Z" fill="white"/>
</g>
</g>
</svg>
